<?xml version="1.0" encoding="UTF-8"?>
<svg version="1.1" xmlns="http://www.w3.org/2000/svg" width="200" height="200">
<path d="M0 0 C31.37426189 -0.56506706 68.69523761 -0.64240516 94.25 20.3125 C95.61125 21.6428125 95.61125 21.6428125 97 23 C97 23.66 97 24.32 97 25 C97.54817383 25.22220215 98.09634766 25.4444043 98.66113281 25.67333984 C101.71753 27.40699979 103.98498952 29.73753725 106.421875 32.2265625 C106.92672424 32.73424164 107.43157349 33.24192078 107.95172119 33.76498413 C109.55592096 35.38033842 111.15300856 37.00252209 112.75 38.625 C113.83938107 39.72441698 114.9292199 40.82338059 116.01953125 41.921875 C118.68501885 44.6093602 121.34415143 47.30299021 124 50 C127.43930583 48.51873643 129.66954338 46.57572554 132.30078125 43.9296875 C133.11353516 43.115 133.92628906 42.3003125 134.76367188 41.4609375 C135.60478516 40.60757813 136.44589844 39.75421875 137.3125 38.875 C138.14201172 38.04484375 138.97152344 37.2146875 139.82617188 36.359375 C143.4732534 32.68638682 147.05923386 28.99709203 150.4375 25.07421875 C154.96742339 19.81604795 159.81902362 14.88061504 164.6875 9.9375 C165.15712158 9.44902588 165.62674316 8.96055176 166.1105957 8.45727539 C167.48212196 7.0313141 168.87166836 5.62275346 170.26171875 4.21484375 C171.07600342 3.38073975 171.89028809 2.54663574 172.72924805 1.68725586 C175 0 175 0 177.29614258 0.23657227 C177.85841553 0.48850342 178.42068848 0.74043457 179 1 C179.33773316 31.49412918 179.37640505 72.46536 156.828125 96.1640625 C155.88796317 97.11190767 154.94492532 98.05690357 154 99 C153.08057617 99.92184082 153.08057617 99.92184082 152.14257812 100.86230469 C146.60626984 106.40659036 146.60626984 106.40659036 143.84814453 109.11621094 C139.89741399 113.01338215 136.15222229 117.01379843 132.54736328 121.23388672 C131.09144992 122.89562184 129.56913781 124.44614988 128 126 C133.20455007 131.22785639 138.41189988 136.4529073 143.62271118 141.67452335 C146.04295364 144.099955 148.46226948 146.52629528 150.87939453 148.95483398 C153.66675932 151.75527615 156.45828726 154.55154822 159.25 157.34765625 C160.10553467 158.2083522 160.96106934 159.06904816 161.8425293 159.95582581 C166.22172913 164.33542889 170.61954333 168.49331593 175.49511719 172.31980896 C177.4243285 174.47375978 177.73287175 176.15383748 178 179 C177 180 177 180 174.79150391 180.1262207 C136.280433 179.95672338 101.28881936 177.27006848 73 149 C72.13665039 148.1435791 71.27330078 147.2871582 70.38378906 146.40478516 C64.56253907 140.62950853 58.76957929 134.82687839 53 129 C47.55694706 133.54065206 42.49739646 138.35078389 37.5 143.375 C36.77941406 144.09171875 36.05882812 144.8084375 35.31640625 145.546875 C31.9675131 148.90182401 28.70775623 152.28420909 25.62109375 155.8828125 C21.19857337 161.01435419 16.37257324 165.73494545 11.5625 170.5 C10.17901367 171.87671875 10.17901367 171.87671875 8.76757812 173.28125 C6.51400101 175.52315055 4.25810925 177.762666 2 180 C1.01 179.67 0.02 179.34 -1 179 C-1.59859415 147.37427596 -1.91488692 107.41059409 21.171875 82.87109375 C25.45064156 78.49537149 29.78592848 74.17265457 34.15185547 69.8840332 C39.49827017 64.60943995 44.82243351 59.26634973 49 53 C43.73829517 47.71280062 38.47256346 42.42963615 33.20410156 37.14916992 C31.41477465 35.35483496 29.62634889 33.55960086 27.83886719 31.76342773 C25.25956649 29.17190627 22.67697077 26.58370701 20.09375 23.99609375 C19.30383667 23.20101913 18.51392334 22.40594452 17.70007324 21.58677673 C12.96434125 16.8505742 8.10291963 12.33791721 3 8 C0.4375 5.8125 0.4375 5.8125 -1 4 C-0.58984375 1.88671875 -0.58984375 1.88671875 0 0 Z " fill="#03AC48" transform="translate(11,10)"/>
<path d="M0 0 C31.37426189 -0.56506706 68.69523761 -0.64240516 94.25 20.3125 C95.61125 21.6428125 95.61125 21.6428125 97 23 C97 23.66 97 24.32 97 25 C97.54962402 25.22292725 98.09924805 25.44585449 98.66552734 25.67553711 C101.70148123 27.39798532 103.93975819 29.71142994 106.3515625 32.19140625 C106.8516684 32.69671371 107.35177429 33.20202118 107.86703491 33.72264099 C109.45786943 35.33123084 111.04183084 36.94636819 112.625 38.5625 C114.21617776 40.18130238 115.80879701 41.79861821 117.40438843 43.41307068 C118.39547098 44.41640427 119.38386808 45.42239908 120.36929321 46.43128967 C122.92858681 49.05171465 122.92858681 49.05171465 126 51 C127.34009045 55.25675789 127.62772723 57.57052215 125.81640625 61.6953125 C121.82451866 68.31465498 117.00414485 73.20123272 111 78 C110.13375 78.763125 109.2675 79.52625 108.375 80.3125 C105.41130762 82.41828142 102.37821661 83.67284347 99 85 C98.154375 85.4125 97.30875 85.825 96.4375 86.25 C93.20308192 87.24520556 91.23189711 86.96269275 88 86 C84.63411341 83.1101651 82.60474189 79.90729378 80.4375 76.0625 C79.85871094 75.04285156 79.27992187 74.02320312 78.68359375 72.97265625 C77.62198871 71.09822136 76.56530576 69.22098216 75.515625 67.33984375 C72.20997344 62.23653116 66.98778308 58.53974985 62.0625 55.0625 C61.49660156 54.66160156 60.93070313 54.26070312 60.34765625 53.84765625 C57.75743858 52.91241959 56.59724385 53.14607795 53.91015625 53.45117188 C49.6644531 53.47501981 47.75456358 52.45049309 44.61694336 49.62280273 C43.08473652 48.08244233 41.57683232 46.51764961 40.08984375 44.93359375 C39.27810196 44.10674576 38.46636017 43.27989777 37.63002014 42.42799377 C35.04380742 39.78494019 32.49037408 37.11273091 29.9375 34.4375 C27.37447549 31.79435835 24.80511295 29.15752163 22.23426819 26.52198792 C20.63984392 24.88280566 19.05113099 23.23804122 17.46922302 21.58677673 C12.85358819 16.78727816 8.08716769 12.29609052 3 8 C0.4375 5.8125 0.4375 5.8125 -1 4 C-0.58984375 1.88671875 -0.58984375 1.88671875 0 0 Z " fill="#E03A22" transform="translate(11,10)"/>
<path d="M0 0 C0.56227295 0.25193115 1.1245459 0.5038623 1.70385742 0.76342773 C2.04159058 31.25755691 2.08026247 72.22878774 -20.46801758 95.92749023 C-21.4081794 96.8753354 -22.35121726 97.82033131 -23.29614258 98.76342773 C-23.9090918 99.37798828 -24.52204102 99.99254883 -25.15356445 100.62573242 C-30.68987274 106.1700181 -30.68987274 106.1700181 -33.44799805 108.87963867 C-38.68939292 114.04997693 -43.74824388 119.36622947 -48.17114258 125.26342773 C-51.09474818 127.32714934 -53.32792182 127.44535979 -56.86254883 127.27124023 C-67.70603165 125.00855521 -74.91758262 113.76614379 -80.71411133 105.20874023 C-87.45055465 94.79636118 -87.45055465 94.79636118 -86.30395508 88.58764648 C-83.7567353 83.97698122 -77.46033135 82.54400975 -72.77270508 80.85327148 C-63.69557874 76.85876321 -55.10836657 67.94545658 -51.29614258 58.76342773 C-51.42888486 56.74950089 -51.42888486 56.74950089 -51.80004883 54.67358398 C-51.90184524 49.93568818 -50.16285736 47.94714247 -46.94848633 44.57202148 C-45.06581586 42.75824536 -43.15983436 40.96841667 -41.23364258 39.20092773 C-39.34479484 37.41020196 -37.45803676 35.61726917 -35.57348633 33.82202148 C-34.20099731 32.52615112 -34.20099731 32.52615112 -32.80078125 31.20410156 C-30.07602292 28.54892961 -27.60238092 25.76864739 -25.13964844 22.87353516 C-21.14994239 18.30685135 -16.86234347 14.01984216 -12.60864258 9.70092773 C-11.90421021 8.96821655 -11.90421021 8.96821655 -11.18554688 8.22070312 C-9.81402062 6.79474183 -8.42447422 5.3861812 -7.03442383 3.97827148 C-6.22013916 3.14416748 -5.40585449 2.31006348 -4.56689453 1.45068359 C-2.29614258 -0.23657227 -2.29614258 -0.23657227 0 0 Z " fill="#01C7D3" transform="translate(188.296142578125,10.236572265625)"/>
<path d="M0 0 C2.8943986 1.74005103 5.42402386 3.82383155 8 6 C8.64582031 6.51304688 9.29164062 7.02609375 9.95703125 7.5546875 C13.52800386 10.45657261 15.68300962 12.98199962 18 17 C18.77226395 18.17782555 19.55001927 19.35206143 20.33203125 20.5234375 C21.1592633 21.80702809 21.98607824 23.09088757 22.8125 24.375 C23.24498047 25.00921875 23.67746094 25.6434375 24.12304688 26.296875 C26.47106405 30.01425276 27.08678049 31.38330463 26.44921875 35.9140625 C25.97097656 36.93242188 25.49273437 37.95078125 25 39 C23.515 39.495 23.515 39.495 22 40 C21.54625 40.474375 21.0925 40.94875 20.625 41.4375 C18.58233496 43.401601 16.65904998 44.05033929 14 45 C13.071875 45.37125 12.14375 45.7425 11.1875 46.125 C10.465625 46.41375 9.74375 46.7025 9 47 C9 47.66 9 48.32 9 49 C8.195625 49.28875 7.39125 49.5775 6.5625 49.875 C3.8673532 50.73262568 3.8673532 50.73262568 3 53 C2.34 53 1.68 53 1 53 C1 53.66 1 54.32 1 55 C0.34 55 -0.32 55 -1 55 C-1 55.66 -1 56.32 -1 57 C-1.66 57 -2.32 57 -3 57 C-3.0825 57.556875 -3.165 58.11375 -3.25 58.6875 C-4 61 -4 61 -6.0625 63.125 C-8.3131308 66.4646457 -8.00640926 66.72836864 -7.4296875 70.453125 C-7.33242773 75.73964881 -9.19320293 77.9569413 -12.78515625 81.7265625 C-14.83802627 83.73761677 -16.94298702 85.68464127 -19.0625 87.625 C-20.63136805 89.10602306 -22.19314296 90.59427585 -23.75486755 92.08282471 C-24.77366012 93.05231774 -25.79535939 94.01876555 -26.81996155 94.9821167 C-30.17299731 98.14731474 -33.2295385 101.44309512 -36.20532227 104.95849609 C-40.06202756 109.34562297 -44.28953344 113.3908553 -48.4375 117.5 C-49.82098633 118.87671875 -49.82098633 118.87671875 -51.23242188 120.28125 C-53.48599899 122.52315055 -55.74189075 124.762666 -58 127 C-58.99 126.67 -59.98 126.34 -61 126 C-61.59859415 94.37427596 -61.91488692 54.41059409 -38.828125 29.87109375 C-34.54935844 25.49537149 -30.21407152 21.17265457 -25.84814453 16.8840332 C-21.89762414 12.98658241 -18.15225846 8.98624391 -14.54736328 4.76611328 C-9.95779308 -0.47228224 -7.10645419 -1.74748874 0 0 Z " fill="#027CEB" transform="translate(71,63)"/>
<path d="M0 0 C2.4375 0.75 2.4375 0.75 5 2 C5.9375 3.875 5.9375 3.875 6 6 C5.0625 8.25 5.0625 8.25 4 10 C2.35 10 0.7 10 -1 10 C-1.13212891 10.57202148 -1.26425781 11.14404297 -1.40039062 11.73339844 C-1.99693808 13.98842554 -2.7484804 16.09248909 -3.59375 18.265625 C-3.90183594 19.07386719 -4.20992187 19.88210937 -4.52734375 20.71484375 C-5.17055878 22.39133595 -5.81891729 24.06586472 -6.47265625 25.73828125 C-11.28060103 38.43206014 -12.41241421 54.35233777 -7 67 C-6.65505345 68.33037618 -6.32027679 69.66347029 -6 71 C-12.03682724 65.98215495 -17.74164508 60.64266973 -23.35473633 55.16015625 C-24.41461119 54.13216102 -25.48245078 53.11231766 -26.55786133 52.10058594 C-28.12990121 50.61995205 -29.67396808 49.11452279 -31.21484375 47.6015625 C-32.13386475 46.71807129 -33.05288574 45.83458008 -33.99975586 44.92431641 C-36.73589269 40.9241398 -36.46180054 38.77204184 -36 34 C-34.94140625 32.01171875 -34.94140625 32.01171875 -33.5625 30.6875 C-30.83200976 28.20569102 -30.83200976 28.20569102 -30 25 C-29.34 25 -28.68 25 -28 25 C-28 24.34 -28 23.68 -28 23 C-27.34 23 -26.68 23 -26 23 C-26 22.34 -26 21.68 -26 21 C-25.34 21 -24.68 21 -24 21 C-23.67 20.01 -23.34 19.02 -23 18 C-21.35 17.67 -19.7 17.34 -18 17 C-18 16.34 -18 15.68 -18 15 C-14.06718758 11.9099331 -10.97874064 10.47416578 -6 10 C-5.67 9.01 -5.34 8.02 -5 7 C-4.01 7 -3.02 7 -2 7 C-1.855625 6.21625 -1.71125 5.4325 -1.5625 4.625 C-1 2 -1 2 0 0 Z " fill="#07D35C" transform="translate(98,95)"/>
<path d="M0 0 C2.8943986 1.74005103 5.42402386 3.82383155 8 6 C8.64582031 6.51304688 9.29164062 7.02609375 9.95703125 7.5546875 C13.52645587 10.45531467 15.69679816 12.97362025 18 17 C18.7617721 18.22376097 19.52771255 19.44493299 20.296875 20.6640625 C21.11476703 21.98426121 21.93247182 23.30457594 22.75 24.625 C23.17410156 25.29273437 23.59820312 25.96046875 24.03515625 26.6484375 C25.10221395 28.38631649 26.05980806 30.19033853 27 32 C26.67 32.99 26.34 33.98 26 35 C21.87413198 33.64842255 17.76982981 32.29039844 13.70703125 30.7578125 C-0.50345945 25.426907 -16.16959187 22.02671477 -31 27 C-36.49699666 29.97753985 -40.09103888 34.23523083 -44 39 C-44 32.85251005 -36.9841184 27.93703877 -32.84375 23.78125 C-30.67305118 21.63410306 -28.49475594 19.49484975 -26.31640625 17.35546875 C-22.20579622 13.28945847 -18.2780746 9.14399405 -14.52539062 4.74414062 C-9.94961355 -0.48782983 -7.08543799 -1.74232082 0 0 Z " fill="#11B2F8" transform="translate(71,63)"/>
<path d="M0 0 C5.59468217 4.64617976 10.71667472 9.62828226 15.8125 14.8125 C17.31669447 16.34212464 18.82309449 17.86958455 20.33203125 19.39453125 C21.31780151 20.39770386 21.31780151 20.39770386 22.32348633 21.42114258 C23.92800578 23.0838526 23.92800578 23.0838526 26 24 C27.34009045 28.25675789 27.62772723 30.57052215 25.81640625 34.6953125 C21.82451866 41.31465498 17.00414485 46.20123272 11 51 C10.13375 51.763125 9.2675 52.52625 8.375 53.3125 C5.41130762 55.41828142 2.37821661 56.67284347 -1 58 C-2.36125 58.5878125 -2.36125 58.5878125 -3.75 59.1875 C-6 60 -6 60 -9 60 C-8.45605878 55.64847025 -7.31663774 51.88267668 -5.71875 47.83203125 C-5.09438898 46.2405893 -4.54060283 44.62180848 -4 43 C-3.34 43 -2.68 43 -2 43 C-1.87625 41.88625 -1.7525 40.7725 -1.625 39.625 C-1.24815378 36.4955379 -0.66159181 33.50333552 0.0625 30.4375 C2.09118481 20.55338154 1.50989385 10.70492287 -1 1 C-0.67 0.67 -0.34 0.34 0 0 Z " fill="#FB7558" transform="translate(111,37)"/>
<path d="M0 0 C1.54364699 0.25930829 3.0848638 0.53309476 4.625 0.8125 C5.48351562 0.96332031 6.34203125 1.11414063 7.2265625 1.26953125 C10.42308687 2.11143274 13.04572075 3.52286038 16 5 C29.8914151 9.6048039 43.70020488 10.84994484 58 7 C58 6.34 58 5.68 58 5 C59.62626404 3.61767557 61.2925002 2.28062485 63 1 C63.99 1.495 63.99 1.495 65 2 C64.14619751 2.84594727 64.14619751 2.84594727 63.27514648 3.70898438 C60.65988156 6.30326769 58.04867381 8.90159923 55.4375 11.5 C54.54224609 12.386875 53.64699219 13.27375 52.72460938 14.1875 C46.87118743 20.01948084 41.0905507 25.87926573 36.125 32.5 C33.2013944 34.5637216 30.96822076 34.68193206 27.43359375 34.5078125 C16.51842729 32.23016942 9.36231117 20.91379928 3.515625 12.328125 C-1.21469344 5.06196575 -1.21469344 5.06196575 -0.5625 1.8359375 C-0.376875 1.23007813 -0.19125 0.62421875 0 0 Z " fill="#12E0EB" transform="translate(104,103)"/>
<path d="M0 0 C0.58426758 0.23066162 1.16853516 0.46132324 1.77050781 0.69897461 C1.88309256 10.09801396 1.59362822 19.38894762 0.89550781 28.76147461 C0.77755859 30.50654297 0.77755859 30.50654297 0.65722656 32.28686523 C0.08713396 40.16729912 -0.91248959 47.90926784 -2.22949219 55.69897461 C-2.55949219 55.69897461 -2.88949219 55.69897461 -3.22949219 55.69897461 C-3.22949219 51.07897461 -3.22949219 46.45897461 -3.22949219 41.69897461 C-2.56949219 41.69897461 -1.90949219 41.69897461 -1.22949219 41.69897461 C-1.22949219 29.81897461 -1.22949219 17.93897461 -1.22949219 5.69897461 C-2.54949219 5.69897461 -3.86949219 5.69897461 -5.22949219 5.69897461 C-5.22949219 7.01897461 -5.22949219 8.33897461 -5.22949219 9.69897461 C-7.41699219 11.26147461 -7.41699219 11.26147461 -10.22949219 12.69897461 C-11.11636719 13.27647461 -12.00324219 13.85397461 -12.91699219 14.44897461 C-13.68011719 14.86147461 -14.44324219 15.27397461 -15.22949219 15.69897461 C-15.88949219 15.36897461 -16.54949219 15.03897461 -17.22949219 14.69897461 C-14.83327191 12.15800125 -12.40951702 9.64510468 -9.97949219 7.13647461 C-9.29757813 6.41266602 -8.61566406 5.68885742 -7.91308594 4.94311523 C-7.24921875 4.26313477 -6.58535156 3.5831543 -5.90136719 2.88256836 C-5.29389648 2.24891357 -4.68642578 1.61525879 -4.06054688 0.96240234 C-2.22949219 -0.30102539 -2.22949219 -0.30102539 0 0 Z " fill="#2CB7C3" transform="translate(188.2294921875,10.301025390625)"/>
<path d="M0 0 C26.44580466 -0.47630294 53.01139215 0.6753425 78 10 C78 10.33 78 10.66 78 11 C73.49100608 11.33817454 70.42173693 10.40831075 66.25292969 8.79077148 C62.3773964 7.43047106 58.40649785 6.68590081 54.375 5.9375 C53.46766113 5.76758545 52.56032227 5.5976709 51.62548828 5.42260742 C35.2502847 2.49474913 18.59375146 1.72813228 2 1 C2.66 3.31 3.32 5.62 4 8 C2.35 6.68 0.7 5.36 -1 4 C-0.67 2.68 -0.34 1.36 0 0 Z " fill="#C34E3E" transform="translate(11,10)"/>
<path d="M0 0 C0 0.99 0 1.98 0 3 C-1.4812241 4.4812241 -2.96777256 5.95804551 -4.49609375 7.390625 C-6.2316394 9.07388878 -6.2316394 9.07388878 -7.375 12.0625 C-9.36500208 15.65981144 -11.36511355 16.59279561 -14.859375 18.56640625 C-18.57954874 21.05783647 -21.23536089 24.51828263 -24 28 C-24 21.77805998 -16.76506935 16.71757894 -12.59765625 12.5 C-11.0885225 10.99739929 -9.57678146 9.49741285 -8.0625 8 C-7.28326172 7.22527344 -6.50402344 6.45054688 -5.70117188 5.65234375 C-3.8030758 3.76589243 -1.90266851 1.88183755 0 0 Z " fill="#2FA3E2" transform="translate(51,74)"/>
<path d="M0 0 C4.98204139 4.13403434 9.56659962 8.50475038 14.08203125 13.14453125 C15.87004138 15.06021793 15.87004138 15.06021793 18 16 C19.50499002 22.94610778 19.50499002 22.94610778 17.5625 27 C17.046875 27.66 16.53125 28.32 16 29 C14.74131064 26.48262128 15.15769611 25.15582016 15.4375 22.375 C15.48547072 19.05062905 15.33778231 17.47701453 13.3984375 14.73828125 C11.34049674 12.71502488 9.22094411 10.84185903 7 9 C3.93806903 6.07119646 1.77944162 3.81537933 0 0 Z " fill="#CB8A7A" transform="translate(119,45)"/>
<path d="M0 0 C0 3 0 3 -1.3125 4.375 C-1.869375 4.91125 -2.42625 5.4475 -3 6 C-3.45375 6.825 -3.9075 7.65 -4.375 8.5 C-6.26525088 11.40807828 -8.00643188 12.3206813 -11 14 C-13.39450853 15.47688989 -13.39450853 15.47688989 -15 18 C-15.42877305 20.63148951 -15.62515907 23.19167877 -15.7265625 25.85546875 C-15.81679687 26.56316406 -15.90703125 27.27085938 -16 28 C-16.66 28.33 -17.32 28.66 -18 29 C-18.76567775 24.00123502 -19.15043146 19.76925441 -16.3125 15.40478516 C-13.97804805 12.89757971 -11.55550941 10.59365668 -9 8.3125 C-7.71222656 7.09916992 -7.71222656 7.09916992 -6.3984375 5.86132812 C-4.28838963 3.88022762 -2.15726635 1.92936365 0 0 Z " fill="#37B8C0" transform="translate(155,42)"/>
<path d="M0 0 C0.33 0 0.66 0 1 0 C1.12308347 11.05016019 0.83058514 21.97991499 0 33 C1.98 33 3.96 33 6 33 C3.525 35.475 3.525 35.475 1 38 C0.34 37.67 -0.32 37.34 -1 37 C-1.11739981 24.61702895 -0.97815251 12.3491755 0 0 Z " fill="#2D74C3" transform="translate(11,152)"/>
<path d="M0 0 C0 4.95804596 -3.62882762 7.61641078 -7 11 C-12.52267563 16.06161741 -17.71079254 19.19062226 -25 21 C-23.1875 19 -23.1875 19 -21 17 C-20.01 17 -19.02 17 -18 17 C-18 16.34 -18 15.68 -18 15 C-17.39671875 14.68546875 -16.7934375 14.3709375 -16.171875 14.046875 C-9.93821387 10.84410655 -9.93821387 10.84410655 -5 6 C-5 4.68 -5 3.36 -5 2 C-3.35 1.34 -1.7 0.68 0 0 Z " fill="#9D948C" transform="translate(133,74)"/>
<path d="M0 0 C2.4375 0.75 2.4375 0.75 5 2 C6 3.9375 6 3.9375 6 6 C4.8125 7.8125 4.8125 7.8125 3 9 C0.8125 8.6875 0.8125 8.6875 -1 8 C-1.625 5.6875 -1.625 5.6875 -2 3 C-1.34 2.01 -0.68 1.02 0 0 Z " fill="#415653" transform="translate(98,95)"/>
<path d="M0 0 C1.32 0.33 2.64 0.66 4 1 C2.21188257 2.98247802 0.41974481 4.96103728 -1.375 6.9375 C-1.88289062 7.50146484 -2.39078125 8.06542969 -2.9140625 8.64648438 C-6.7734375 12.88671875 -6.7734375 12.88671875 -9 14 C-9 12.35 -9 10.7 -9 9 C-7.02 8.01 -5.04 7.02 -3 6 C-3 4.68 -3 3.36 -3 2 C-2.01 2 -1.02 2 0 2 C0 1.34 0 0.68 0 0 Z " fill="#32D4DC" transform="translate(147,122)"/>
<path d="M0 0 C0.99 0 1.98 0 3 0 C3.48108275 1.41601714 3.95978141 2.83284437 4.4375 4.25 C4.83775391 5.43335938 4.83775391 5.43335938 5.24609375 6.640625 C5.91954708 8.74821988 6.49150595 10.84753973 7 13 C-0.66742597 7.03416856 -0.66742597 7.03416856 -2 2 C-1.34 2 -0.68 2 0 2 C0 1.34 0 0.68 0 0 Z " fill="#0CCE5D" transform="translate(85,153)"/>
<path d="M0 0 C2.97 0.33 5.94 0.66 9 1 C9 1.66 9 2.32 9 3 C7.72125 2.95875 6.4425 2.9175 5.125 2.875 C2.98128508 2.75787127 2.98128508 2.75787127 1 3 C0.34 3.66 -0.32 4.32 -1 5 C-2.32 5 -3.64 5 -5 5 C-5 5.66 -5 6.32 -5 7 C-5.99 7 -6.98 7 -8 7 C-8 7.66 -8 8.32 -8 9 C-9.65 9.33 -11.3 9.66 -13 10 C-13 9.34 -13 8.68 -13 8 C-9.06718758 4.9099331 -5.97874064 3.47416578 -1 3 C-0.67 2.01 -0.34 1.02 0 0 Z " fill="#0BC276" transform="translate(93,102)"/>
<path d="M0 0 C0.66 0.33 1.32 0.66 2 1 C-2.29 5.29 -6.58 9.58 -11 14 C-11.66 12.68 -12.32 11.36 -13 10 C-12.67 9.34 -12.34 8.68 -12 8 C-9.6859378 7.26924352 -7.35171131 6.59861742 -5 6 C-5 5.34 -5 4.68 -5 4 C-3.37373596 2.61767557 -1.7074998 1.28062485 0 0 Z " fill="#36D4E0" transform="translate(167,104)"/>
<path d="M0 0 C1.60031344 3.20062687 0.03173691 5.72271806 -1 9 C-1.66 9 -2.32 9 -3 9 C-3.19335938 9.78246094 -3.38671875 10.56492187 -3.5859375 11.37109375 C-3.84632812 12.38300781 -4.10671875 13.39492187 -4.375 14.4375 C-4.75785156 15.95150391 -4.75785156 15.95150391 -5.1484375 17.49609375 C-6 20 -6 20 -8 21 C-7.4943565 15.46640844 -6.04383132 11.43969425 -3.4375 6.5625 C-3.10814453 5.92634766 -2.77878906 5.29019531 -2.43945312 4.63476562 C-1.63546752 3.08505424 -0.81902334 1.54181678 0 0 Z " fill="#297FD0" transform="translate(25,102)"/>
<path d="M0 0 C7.59 0 15.18 0 23 0 C21 2 21 2 19.02880859 2.13525391 C18.24328613 2.08288574 17.45776367 2.03051758 16.6484375 1.9765625 C15.79765625 1.925 14.946875 1.8734375 14.0703125 1.8203125 C13.18085938 1.75585938 12.29140625 1.69140625 11.375 1.625 C10.02921875 1.53992188 10.02921875 1.53992188 8.65625 1.453125 C6.43671376 1.31145247 4.21827598 1.1600296 2 1 C2.66 3.31 3.32 5.62 4 8 C2.35 6.68 0.7 5.36 -1 4 C-0.67 2.68 -0.34 1.36 0 0 Z " fill="#BF4237" transform="translate(11,10)"/>
<path d="M0 0 C0.33 0.66 0.66 1.32 1 2 C-5.16067394 6.66638281 -11.39302552 11.10174582 -19 13 C-19.99 12.67 -20.98 12.34 -22 12 C-20.43880578 11.20576139 -18.87598036 10.41472877 -17.3125 9.625 C-16.44238281 9.18414062 -15.57226562 8.74328125 -14.67578125 8.2890625 C-12 7 -12 7 -9.40625 6 C-7.04409752 5.01832624 -5.2320902 3.89842015 -3.1875 2.375 C-2.135625 1.59125 -1.08375 0.8075 0 0 Z " fill="#3FB1B2" transform="translate(125,85)"/>
<path d="M0 0 C0.85851562 0.36931641 0.85851562 0.36931641 1.734375 0.74609375 C1.734375 1.40609375 1.734375 2.06609375 1.734375 2.74609375 C-0.453125 4.18359375 -0.453125 4.18359375 -3.265625 5.74609375 C-4.1525 6.32359375 -5.039375 6.90109375 -5.953125 7.49609375 C-6.71625 7.90859375 -7.479375 8.32109375 -8.265625 8.74609375 C-8.925625 8.41609375 -9.585625 8.08609375 -10.265625 7.74609375 C-9.03163437 6.37732259 -7.77781877 5.02640209 -6.515625 3.68359375 C-5.81953125 2.92949219 -5.1234375 2.17539062 -4.40625 1.3984375 C-2.265625 -0.25390625 -2.265625 -0.25390625 0 0 Z " fill="#1DBEC7" transform="translate(181.265625,17.25390625)"/>
<path d="M0 0 C0.99 0.66 1.98 1.32 3 2 C-0.09652196 5.27346607 -2.95019912 7.97509956 -7 10 C-7.99 10 -8.98 10 -10 10 C-6.7 6.7 -3.4 3.4 0 0 Z " fill="#28C0C9" transform="translate(170,26)"/>
<path d="M0 0 C1.29608947 0.93137592 2.58671632 1.8703566 3.875 2.8125 C4.59429687 3.33457031 5.31359375 3.85664063 6.0546875 4.39453125 C8 6 8 6 10 9 C7.83125748 8.49396008 6.00032373 8.00016187 4 7 C3.67 7.66 3.34 8.32 3 9 C0 3.375 0 3.375 0 0 Z " fill="#17A551" transform="translate(176,174)"/>
<path d="M0 0 C0.66 0 1.32 0 2 0 C1.43179252 5.45479185 0.05362055 9.91059256 -2 15 C-3.11563018 11.62953982 -2.86843709 9.25980759 -2.125 5.8125 C-1.94195312 4.93207031 -1.75890625 4.05164063 -1.5703125 3.14453125 C-1 1 -1 1 0 0 Z " fill="#2DBDCA" transform="translate(181,75)"/>
<path d="M0 0 C1.32 0.33 2.64 0.66 4 1 C0.7 4.3 -2.6 7.6 -6 11 C-6.33 10.01 -6.66 9.02 -7 8 C-5.71034824 6.62437146 -4.37310707 5.29233607 -3 4 C-2.34 4 -1.68 4 -1 4 C-0.67 2.68 -0.34 1.36 0 0 Z " fill="#2379CA" transform="translate(29,169)"/>
<path d="M0 0 C0 3 0 3 -1.3125 4.375 C-1.869375 4.91125 -2.42625 5.4475 -3 6 C-3.495 6.886875 -3.99 7.77375 -4.5 8.6875 C-4.995 9.450625 -5.49 10.21375 -6 11 C-6.99 11 -7.98 11 -9 11 C-7.59155282 7.78475695 -5.89655214 5.67816132 -3.375 3.25 C-2.74335938 2.63640625 -2.11171875 2.0228125 -1.4609375 1.390625 C-0.73777344 0.70226563 -0.73777344 0.70226563 0 0 Z " fill="#2BBFC7" transform="translate(155,42)"/>
<path d="M0 0 C2.125 0.375 2.125 0.375 4 1 C3.34 1 2.68 1 2 1 C2 1.66 2 2.32 2 3 C1.34 3 0.68 3 0 3 C0 3.66 0 4.32 0 5 C-0.66 5 -1.32 5 -2 5 C-2.103125 5.61875 -2.20625 6.2375 -2.3125 6.875 C-3 9 -3 9 -6 11 C-5.71125 10.443125 -5.4225 9.88625 -5.125 9.3125 C-3.94777265 6.97953039 -3.94777265 6.97953039 -3 4.375 C-2 2 -2 2 0 0 Z " fill="#008CCB" transform="translate(70,115)"/>
<path d="M0 0 C2.61885488 2.36944013 4.41866551 4.83733102 6 8 C5.67 8.99 5.34 9.98 5 11 C4.34 11 3.68 11 3 11 C0.15549386 7.28026121 -0.3227506 4.62609198 0 0 Z " fill="#2CA6DD" transform="translate(92,87)"/>
<path d="M0 0 C0.66 0.33 1.32 0.66 2 1 C-1.32307692 6.78461538 -1.32307692 6.78461538 -4.75 7.875 C-5.4925 7.91625 -6.235 7.9575 -7 8 C-7 7.34 -7 6.68 -7 6 C-6.34 6 -5.68 6 -5 6 C-5 5.34 -5 4.68 -5 4 C-4.34 4 -3.68 4 -3 4 C-2.67 3.01 -2.34 2.02 -2 1 C-1.34 0.67 -0.68 0.34 0 0 Z " fill="#05BD8A" transform="translate(77,112)"/>
<path d="M0 0 C2.26631621 1.48727001 3.50512823 3.07019234 5 5.3125 C3.51800098 4.86340939 2.03944764 4.40293436 0.5625 3.9375 C-0.26121094 3.68226563 -1.08492187 3.42703125 -1.93359375 3.1640625 C-4 2.3125 -4 2.3125 -5 0.3125 C-2 -0.6875 -2 -0.6875 0 0 Z " fill="#159E55" transform="translate(140,137.6875)"/>
<path d="M0 0 C3.09592835 3.5087188 4.74194623 6.49197399 6 11 C5.01 11 4.02 11 3 11 C3 9.35 3 7.7 3 6 C2.01 6 1.02 6 0 6 C0 4.02 0 2.04 0 0 Z " fill="#03B571" transform="translate(102,105)"/>
<path d="M0 0 C3.35595828 0.59927826 5.37801226 1.84622436 8 4 C7.67 5.32 7.34 6.64 7 8 C5.83035398 6.8572081 4.66435444 5.71068285 3.5 4.5625 C2.8503125 3.92441406 2.200625 3.28632812 1.53125 2.62890625 C0 1 0 1 0 0 Z " fill="#CD4738" transform="translate(43,45)"/>
<path d="M0 0 C4.61513112 1.31860889 8.09897612 3.21355437 12 6 C9 7 9 7 6.9921875 6.07421875 C6.29351562 5.61660156 5.59484375 5.15898437 4.875 4.6875 C4.17117187 4.23761719 3.46734375 3.78773437 2.7421875 3.32421875 C1 2 1 2 0 0 Z " fill="#C84939" transform="translate(89,21)"/>
<path d="M0 0 C-0.3125 1.9375 -0.3125 1.9375 -1 4 C-1.99 4.33 -2.98 4.66 -4 5 C-4.33 5.99 -4.66 6.98 -5 8 C-6 5 -6 5 -5.1875 2.875 C-3.68508471 0.50276534 -2.80531948 0 0 0 Z " fill="#19C1CF" transform="translate(108,97)"/>
<path d="M0 0 C1.98 0.99 1.98 0.99 4 2 C4.609375 4.3828125 4.609375 4.3828125 4.75 7.125 C4.80671875 8.03507812 4.8634375 8.94515625 4.921875 9.8828125 C4.94765625 10.58148438 4.9734375 11.28015625 5 12 C4.67 11.01 4.34 10.02 4 9 C3.34 9 2.68 9 2 9 C1.34 6.03 0.68 3.06 0 0 Z " fill="#E1523E" transform="translate(107,34)"/>
<path d="M0 0 C0.66 0 1.32 0 2 0 C2 1.65 2 3.3 2 5 C-0.97 5 -3.94 5 -7 5 C-7 4.67 -7 4.34 -7 4 C-5.824375 3.8453125 -5.824375 3.8453125 -4.625 3.6875 C-1.66954819 3.22404978 -1.66954819 3.22404978 0 0 Z " fill="#14DCD5" transform="translate(136,132)"/>
<path d="M0 0 C1.32 0.33 2.64 0.66 4 1 C2.71937515 2.7074998 1.38232443 4.37373596 0 6 C-0.66 6 -1.32 6 -2 6 C-2.33 4.68 -2.66 3.36 -3 2 C-2.01 2 -1.02 2 0 2 C0 1.34 0 0.68 0 0 Z " fill="#2FDDE5" transform="translate(147,122)"/>
<path d="M0 0 C3.37503669 1.1858237 5.64722731 2.27573689 8 5 C7.67 5.99 7.34 6.98 7 8 C5.83035398 6.8572081 4.66435444 5.71068285 3.5 4.5625 C2.8503125 3.92441406 2.200625 3.28632813 1.53125 2.62890625 C0 1 0 1 0 0 Z " fill="#2AB066" transform="translate(84,158)"/>
<path d="M0 0 C1.98 0 3.96 0 6 0 C4.35 1.65 2.7 3.3 1 5 C0.67 3.35 0.34 1.7 0 0 Z " fill="#1973D7" transform="translate(11,185)"/>
<path d="M0 0 C0.99 0.99 1.98 1.98 3 3 C-2.94 3.495 -2.94 3.495 -9 4 C-9 3.34 -9 2.68 -9 2 C-6.94921875 1.77213542 -4.8984375 1.54427083 -2.84765625 1.31640625 C-0.98859771 1.18113386 -0.98859771 1.18113386 0 0 Z " fill="#0BB04F" transform="translate(155,184)"/>
<path d="M0 0 C1.32 0.33 2.64 0.66 4 1 C4.66 3.31 5.32 5.62 6 8 C1.125 3.375 1.125 3.375 0 0 Z " fill="#15DCCC" transform="translate(112,120)"/>
<path d="M0 0 C0 3 0 3 -2 6 C-2.66 6 -3.32 6 -4 6 C-4.33 4.68 -4.66 3.36 -5 2 C-3.35 1.34 -1.7 0.68 0 0 Z " fill="#C08879" transform="translate(133,74)"/>
<path d="M0 0 C1.32 0 2.64 0 4 0 C4 0.99 4 1.98 4 3 C4.66 3 5.32 3 6 3 C6.33 4.32 6.66 5.64 7 7 C5.83040013 6.02433888 4.66438823 5.044375 3.5 4.0625 C2.8503125 3.51722656 2.200625 2.97195312 1.53125 2.41015625 C1.0259375 1.94480469 0.520625 1.47945312 0 1 C0 0.67 0 0.34 0 0 Z " fill="#CB4935" transform="translate(51,53)"/>
</svg>
