<svg width="32" height="32" viewBox="0 0 32 32" fill="none" xmlns="http://www.w3.org/2000/svg">
<g filter="url(#filter0_dd_2186_1342)">
<circle cx="16" cy="16" r="14" fill="white"/>
<circle cx="16" cy="16" r="13.5" stroke="#71AFC0"/>
</g>
<mask id="mask0_2186_1342" style="mask-type:alpha" maskUnits="userSpaceOnUse" x="8" y="8" width="16" height="16">
<rect x="8" y="8" width="16" height="16" fill="#D9D9D9"/>
</mask>
<g mask="url(#mask0_2186_1342)">
<path d="M16.0004 18.6667L12.6671 15.3333L13.6004 14.3667L15.3338 16.1V10.6667H16.6671V16.1L18.4004 14.3667L19.3338 15.3333L16.0004 18.6667ZM12.0004 21.3333C11.6338 21.3333 11.3199 21.2028 11.0588 20.9417C10.7977 20.6805 10.6671 20.3667 10.6671 20V18H12.0004V20H20.0004V18H21.3338V20C21.3338 20.3667 21.2032 20.6805 20.9421 20.9417C20.681 21.2028 20.3671 21.3333 20.0004 21.3333H12.0004Z" fill="#1C1B1F"/>
</g>
<defs>
<filter id="filter0_dd_2186_1342" x="-2" y="-1" width="36" height="36" filterUnits="userSpaceOnUse" color-interpolation-filters="sRGB">
<feFlood flood-opacity="0" result="BackgroundImageFix"/>
<feColorMatrix in="SourceAlpha" type="matrix" values="0 0 0 0 0 0 0 0 0 0 0 0 0 0 0 0 0 0 127 0" result="hardAlpha"/>
<feMorphology radius="1" operator="dilate" in="SourceAlpha" result="effect1_dropShadow_2186_1342"/>
<feOffset dy="1"/>
<feGaussianBlur stdDeviation="1.5"/>
<feColorMatrix type="matrix" values="0 0 0 0 0.101961 0 0 0 0 0.101961 0 0 0 0 0.101961 0 0 0 0.15 0"/>
<feBlend mode="normal" in2="BackgroundImageFix" result="effect1_dropShadow_2186_1342"/>
<feColorMatrix in="SourceAlpha" type="matrix" values="0 0 0 0 0 0 0 0 0 0 0 0 0 0 0 0 0 0 127 0" result="hardAlpha"/>
<feOffset dy="1"/>
<feGaussianBlur stdDeviation="1"/>
<feColorMatrix type="matrix" values="0 0 0 0 0.101961 0 0 0 0 0.101961 0 0 0 0 0.101961 0 0 0 0.3 0"/>
<feBlend mode="normal" in2="effect1_dropShadow_2186_1342" result="effect2_dropShadow_2186_1342"/>
<feBlend mode="normal" in="SourceGraphic" in2="effect2_dropShadow_2186_1342" result="shape"/>
</filter>
</defs>
</svg>
