<?xml version="1.0" encoding="UTF-8"?>
<svg version="1.1" xmlns="http://www.w3.org/2000/svg" width="282" height="225">
<path d="M0 0 C4.42371606 1.53286905 6.53743896 5.02105914 9.125 8.6875 C9.60654541 9.36031006 10.08809082 10.03312012 10.58422852 10.72631836 C12.06697527 12.8101327 13.53444447 14.90407121 15 17 C15.42619629 17.60038086 15.85239258 18.20076172 16.29150391 18.81933594 C44.41891622 58.56678061 64.23388681 108.81772306 56 158 C54.26188763 167.21846393 51.89946923 175.91242544 47 184 C46.29810547 185.22589844 46.29810547 185.22589844 45.58203125 186.4765625 C38.79949704 197.29512324 28.31425611 204.75145391 16 208 C15.24203125 208.22171875 14.4840625 208.4434375 13.703125 208.671875 C1.33906718 211.91634407 -11.1952087 209.86392735 -22.56640625 204.234375 C-37.91616298 195.19882875 -47.13469229 182.08733675 -52 165 C-52.29777344 164.01128906 -52.59554687 163.02257812 -52.90234375 162.00390625 C-55.11886006 153.16848408 -55.28252776 144.51101822 -55.3125 135.4375 C-55.31797852 134.23109863 -55.32345703 133.02469727 -55.32910156 131.78173828 C-54.94883767 83.46855524 -29.8143521 36.67808783 0 0 Z " fill="#6D1247" transform="translate(142,12)"/>
<path d="M0 0 C4.42371606 1.53286905 6.53743896 5.02105914 9.125 8.6875 C9.60654541 9.36031006 10.08809082 10.03312012 10.58422852 10.72631836 C12.06697527 12.8101327 13.53444447 14.90407121 15 17 C15.42619629 17.60038086 15.85239258 18.20076172 16.29150391 18.81933594 C44.41891622 58.56678061 64.23388681 108.81772306 56 158 C54.01496761 168.52805897 50.99110177 178.01334735 45 187 C44.34 187 43.68 187 43 187 C43.99 184.03 43.99 184.03 45 181 C45.66 181 46.32 181 47 181 C48.01111093 177.95086772 48.01111093 177.95086772 47 175 C47.66 175 48.32 175 49 175 C49.185625 173.824375 49.185625 173.824375 49.375 172.625 C49.70973425 170.68354136 50.06500642 168.74229598 50.546875 166.83203125 C53.50885421 154.56383357 51.26565843 142.59850352 46.01953125 131.3203125 C44.40228868 127.63969148 43.19655556 123.83441667 42 120 C41.34 120 40.68 120 40 120 C39.62875 118.88625 39.62875 118.88625 39.25 117.75 C38.178222 114.92838101 38.178222 114.92838101 36 113.125 C33.38051447 110.34179663 32.8478701 107.67410375 32 104 C31.01 104 30.02 104 29 104 C28.67 103.01 28.34 102.02 28 101 C27.34 100.67 26.68 100.34 26 100 C26 99.34 26 98.68 26 98 C25.34 98 24.68 98 24 98 C22.66025538 96.33848265 21.32817589 94.67077957 20 93 C18.24771504 91.45417761 16.45363085 89.95470913 14.625 88.5 C11.53907669 86.03865771 8.49941685 83.573965 5.5625 80.9375 C3.00364783 78.59792782 3.00364783 78.59792782 -1 79 C-1.66 79.99 -2.32 80.98 -3 82 C-3.99 82 -4.98 82 -6 82 C-6 82.66 -6 83.32 -6 84 C-9.19026533 86.32019297 -12.41726669 88.34643078 -16 90 C-16 90.66 -16 91.32 -16 92 C-17.65002828 93.35386936 -19.3174387 94.68678142 -21 96 C-21.33 96.66 -21.66 97.32 -22 98 C-22.66 98 -23.32 98 -24 98 C-24.268125 98.556875 -24.53625 99.11375 -24.8125 99.6875 C-27.65186046 105.2167809 -30.94799297 110.15198316 -35.51953125 114.41796875 C-37.20488391 116.21893928 -38.130682 117.96453801 -39.1875 120.1875 C-39.53167969 120.90292969 -39.87585938 121.61835938 -40.23046875 122.35546875 C-40.48441406 122.89816406 -40.73835938 123.44085938 -41 124 C-41.66 124 -42.32 124 -43 124 C-43.1340625 124.71542969 -43.268125 125.43085938 -43.40625 126.16796875 C-43.98556808 128.93116353 -44.71527718 131.60128267 -45.5 134.3125 C-46.77244969 138.89331889 -47.55390267 143.27136834 -48 148 C-48.66 148 -49.32 148 -50 148 C-49.67 153.94 -49.34 159.88 -49 166 C-48.34 166.33 -47.68 166.66 -47 167 C-47.05285156 167.71929687 -47.10570313 168.43859375 -47.16015625 169.1796875 C-46.97337615 172.46883945 -46.04045064 174.26851576 -44.4375 177.125 C-42.99609375 179.6953125 -42.99609375 179.6953125 -42 182 C-42.33 182.99 -42.66 183.98 -43 185 C-52.39351044 169.35294469 -55.1781814 154.17400206 -55.1875 135.9375 C-55.19974609 134.70322266 -55.21199219 133.46894531 -55.22460938 132.19726562 C-55.30057564 83.80675289 -29.82078027 36.68599587 0 0 Z " fill="#79287E" transform="translate(142,12)"/>
<path d="M0 0 C8.28702791 -1.28516324 17.04058454 0.54801671 25.1875 2.0625 C26.39132324 2.28220459 27.59514648 2.50190918 28.83544922 2.72827148 C44.61000486 5.72690282 60.18659644 9.75053215 75 16 C74.418516 20.59649258 73.15918086 24.28799274 71.25 28.5 C55.99238329 63.24352394 49.57356068 104.82450135 63.17285156 141.18359375 C65.56019097 147.2449357 68.47385221 152.55049887 72 158 C71.67 158.66 71.34 159.32 71 160 C25.47342993 121.81838323 5.08453286 66.95811698 -2 9 C-2.35667506 3.53501259 -2.35667506 3.53501259 0 0 Z " fill="#E25684" transform="translate(20,49)"/>
<path d="M0 0 C2 2 2 2 2.23706055 3.84106445 C2.14238071 9.36975598 1.66612278 14.72520168 0.8125 20.1875 C0.61394409 21.47237305 0.61394409 21.47237305 0.41137695 22.78320312 C-4.47184735 53.07509649 -13.74280455 81.83914031 -28 109 C-28.46664062 109.94746094 -28.93328125 110.89492187 -29.4140625 111.87109375 C-36.3015509 125.42454315 -46.51423926 137.11541477 -57 148 C-57.65871094 148.71027344 -58.31742188 149.42054688 -58.99609375 150.15234375 C-62.66803131 154.02055414 -66.24372987 156.57333156 -71 159 C-69.50581719 155.0204438 -67.6253596 151.37239855 -65.625 147.625 C-52.39022658 121.83794084 -53.33714073 89.49679987 -60 62 C-60.22494141 61.06397949 -60.44988281 60.12795898 -60.68164062 59.16357422 C-63.29738157 48.51505858 -66.4087867 38.2659761 -70.67578125 28.1640625 C-72.34802108 24.1684452 -73.696306 20.12836434 -75 16 C-58.53626484 9.65050487 -41.66040672 5.29876112 -24.3125 2.125 C-23.15540527 1.90972656 -21.99831055 1.69445313 -20.80615234 1.47265625 C-13.97104554 0.27999281 -6.94201258 -0.87857488 0 0 Z " fill="#E15684" transform="translate(266,49)"/>
<path d="M0 0 C4.42386047 1.53291909 6.53713106 5.0211603 9.125 8.6875 C9.60509521 9.35740967 10.08519043 10.02731934 10.57983398 10.7175293 C12.0654588 12.80335728 13.53493392 14.89969235 15 17 C15.43683105 17.62165039 15.87366211 18.24330078 16.32373047 18.88378906 C21.42938419 26.18883161 26.13491427 33.70258028 30.5625 41.4375 C30.99248291 42.17073486 31.42246582 42.90396973 31.86547852 43.65942383 C34.58198688 48.52086378 35.64243245 52.4357471 36 58 C34.10545176 58.96087136 32.20930419 59.91858969 30.3125 60.875 C29.25675781 61.40867188 28.20101562 61.94234375 27.11328125 62.4921875 C24 64 24 64 21.16796875 65.0703125 C18.8333088 65.79523554 18.8333088 65.79523554 18 68 C15.01022422 69.60198434 11.95100326 71.01946714 8.8828125 72.46484375 C6.01678332 73.77886861 6.01678332 73.77886861 4.4296875 75.75390625 C3 77 3 77 0.6171875 76.90234375 C-2.37070183 75.87219086 -4.3723183 74.48548706 -6.875 72.5625 C-10.92279884 69.62189319 -14.13504261 68.25817863 -19 67 C-24.63135046 64.4558496 -30.15480884 61.87384019 -35 58 C-34.41241447 54.32279923 -33.40120611 51.49470319 -31.62890625 48.2265625 C-31.14204346 47.32663574 -30.65518066 46.42670898 -30.15356445 45.49951172 C-29.62851318 44.55092285 -29.10346191 43.60233398 -28.5625 42.625 C-28.02262451 41.64418457 -27.48274902 40.66336914 -26.92651367 39.65283203 C-19.90056476 27.04268413 -11.77947919 15.43666308 -3 4 C-1.99821598 2.66800655 -0.99749668 1.33520716 0 0 Z " fill="#6F509E" transform="translate(142,12)"/>
<path d="M0 0 C0.33 0 0.66 0 1 0 C1.03867188 1.41925781 1.03867188 1.41925781 1.078125 2.8671875 C1.82269636 22.31320017 6.35278359 40.545211 17 57 C16.67 57.66 16.34 58.32 16 59 C7.03119026 51.47815823 -1.39988607 43.92342788 -9 35 C-8.00102287 32.00306862 -7.34869747 30.97290587 -5 29 C-4.34 29 -3.68 29 -3 29 C-2.67 29.66 -2.34 30.32 -2 31 C-0.35 31 1.3 31 3 31 C3 30.34 3 29.68 3 29 C1.68 29.33 0.36 29.66 -1 30 C-1.33 28.68 -1.66 27.36 -2 26 C-1.67 26.66 -1.34 27.32 -1 28 C-1 27.01 -1 26.02 -1 25 C-0.93309702 23.07920819 -0.85923472 21.15865506 -0.78125 19.23828125 C-0.71357422 17.56088867 -0.71357422 17.56088867 -0.64453125 15.84960938 C-0.59683594 14.68236328 -0.54914063 13.51511719 -0.5 12.3125 C-0.45230469 11.13365234 -0.40460938 9.95480469 -0.35546875 8.74023438 C-0.23751597 5.82680071 -0.11900434 2.91339087 0 0 Z " fill="#D85681" transform="translate(75,150)"/>
<path d="M0 0 C0.33 0 0.66 0 1 0 C1 14.52 1 29.04 1 44 C1.99 44 2.98 44 4 44 C4.04898438 44.71027344 4.09796875 45.42054688 4.1484375 46.15234375 C4.22320312 47.07144531 4.29796875 47.99054688 4.375 48.9375 C4.44460937 49.85402344 4.51421875 50.77054688 4.5859375 51.71484375 C4.72257812 52.46894531 4.85921875 53.22304687 5 54 C5.66 54.33 6.32 54.66 7 55 C6.94714844 55.71929687 6.89429687 56.43859375 6.83984375 57.1796875 C7.02662385 60.46883945 7.95954936 62.26851576 9.5625 65.125 C11.00390625 67.6953125 11.00390625 67.6953125 12 70 C11.67 70.99 11.34 71.98 11 73 C3.18825637 59.98774164 -1.11734506 46.66148902 -1.1328125 31.2890625 C-1.13410156 30.04382813 -1.13539062 28.79859375 -1.13671875 27.515625 C-1.13285156 26.23171875 -1.12898438 24.9478125 -1.125 23.625 C-1.12886719 22.34882813 -1.13273437 21.07265625 -1.13671875 19.7578125 C-1.12982673 13.08634124 -0.90740343 6.61108216 0 0 Z " fill="#69296B" transform="translate(88,124)"/>
<path d="M0 0 C0.99 0.33 1.98 0.66 3 1 C3.33 3.97 3.66 6.94 4 10 C4.66 10 5.32 10 6 10 C5.44874372 22.21032659 1.78813736 33.81779396 -5 44 C-5.66 44 -6.32 44 -7 44 C-6.01 41.03 -6.01 41.03 -5 38 C-4.34 38 -3.68 38 -3 38 C-1.98888907 34.95086772 -1.98888907 34.95086772 -3 32 C-2.34 32 -1.68 32 -1 32 C-0.87625 31.21625 -0.7525 30.4325 -0.625 29.625 C-0.29026575 27.68354136 0.06500642 25.74229598 0.546875 23.83203125 C2.43871974 15.99621488 2.57133461 7.71400382 0 0 Z " fill="#732972" transform="translate(192,155)"/>
<path d="M0 0 C1.5625 1.8125 1.5625 1.8125 3 4 C1.40078325 8.79765026 -2.73578614 10.56427025 -7 13 C-8.98603281 13.83368915 -10.97943302 14.5344794 -13.01953125 15.22265625 C-17.51044951 16.98536381 -21.55911772 19.79926477 -25.25 22.875 C-27 24 -27 24 -29.109375 23.5703125 C-29.73328125 23.38210937 -30.3571875 23.19390625 -31 23 C-29.61133677 22.0106909 -28.21370149 21.03396922 -26.8125 20.0625 C-26.03519531 19.51722656 -25.25789062 18.97195312 -24.45703125 18.41015625 C-21.92049701 16.9543711 -19.8781818 16.40386565 -17 16 C-16.67 15.01 -16.34 14.02 -16 13 C-13.85546875 11.9375 -13.85546875 11.9375 -11.1875 11 C-8.39333663 10.00945464 -6.23024211 9.17510186 -3.86328125 7.375 C-2 6 -2 6 1 6 C0.67 4.02 0.34 2.04 0 0 Z " fill="#713A8C" transform="translate(177,64)"/>
<path d="M0 0 C1.32 0.66 2.64 1.32 4 2 C4 3.32 4 4.64 4 6 C2.68 5.67 1.36 5.34 0 5 C0 5.66 0 6.32 0 7 C-0.515625 7.391875 -1.03125 7.78375 -1.5625 8.1875 C-3.36248025 10.07148291 -3.36248025 10.07148291 -3 13.5 C-2.33984059 17.01329569 -2.33984059 17.01329569 -0.0625 18.6875 C4.26118295 20.54050698 8.60636645 22.31932852 13 24 C13 24.66 13 25.32 13 26 C9.35421731 25.28136014 6.31005012 23.78830018 3 22.125 C1.453125 21.35542969 1.453125 21.35542969 -0.125 20.5703125 C-2.62014955 19.20747267 -4.78834673 17.77570239 -7 16 C-6.40165275 11.85701333 -4.99335715 8.81805623 -2.9375 5.1875 C-2.11572266 3.72376953 -2.11572266 3.72376953 -1.27734375 2.23046875 C-0.85582031 1.49441406 -0.43429688 0.75835937 0 0 Z " fill="#6F4892" transform="translate(114,54)"/>
<path d="M0 0 C2.609375 -0.328125 2.609375 -0.328125 5.75 -0.25 C6.8225 -0.22421875 7.895 -0.1984375 9 -0.171875 C12.06008621 0.00344244 15.0056449 0.33458775 18 1 C18 1.33 18 1.66 18 2 C10.08 2.495 10.08 2.495 2 3 C2 3.99 2 4.98 2 6 C1.67 6.66 1.34 7.32 1 8 C0.92883618 10.37402501 0.91590915 12.75000677 0.9375 15.125 C0.94652344 16.40632813 0.95554687 17.68765625 0.96484375 19.0078125 C0.97644531 19.99523437 0.98804688 20.98265625 1 22 C0.67 22 0.34 22 0 22 C-0.33910994 19.95928485 -0.67102704 17.91737379 -1 15.875 C-1.185625 14.73804688 -1.37125 13.60109375 -1.5625 12.4296875 C-2.64244742 3.96367113 -2.64244742 3.96367113 0 0 Z " fill="#CC5E83" transform="translate(20,49)"/>
<path d="M0 0 C0.33 0 0.66 0 1 0 C1 1.98 1 3.96 1 6 C1.4125 5.484375 1.825 4.96875 2.25 4.4375 C3.11625 3.7259375 3.11625 3.7259375 4 3 C6.109375 3.41015625 6.109375 3.41015625 8 4 C3.03573118 9.26820365 -1.46247356 13.80078493 -8 17 C-6.51095825 13.10391502 -4.75621287 9.40902982 -2.875 5.6875 C-2.06675781 4.08455078 -2.06675781 4.08455078 -1.2421875 2.44921875 C-0.62730469 1.23685547 -0.62730469 1.23685547 0 0 Z " fill="#D35B84" transform="translate(203,191)"/>
<path d="M0 0 C1.95490358 1.95490358 2.76698301 3.35394423 3.9375 5.8125 C5.13237879 8.28760605 6.34127903 10.54133915 7.8125 12.875 C8.204375 13.57625 8.59625 14.2775 9 15 C8.67 15.66 8.34 16.32 8 17 C5.99702215 15.35767739 3.99756092 13.71138756 2 12.0625 C1.42765625 11.59392578 0.8553125 11.12535156 0.265625 10.64257812 C-1.17497065 9.45065672 -2.58974871 8.22767412 -4 7 C-4 6.67 -4 6.34 -4 6 C-2.35 6 -0.7 6 1 6 C0.67 4.02 0.34 2.04 0 0 Z " fill="#CF5A82" transform="translate(83,192)"/>
<path d="M0 0 C0.66 0.33 1.32 0.66 2 1 C-3.62638979 7.49096506 -9.44097693 13.44886464 -16 19 C-16 16 -16 16 -14 13 C-13.34 13 -12.68 13 -12 13 C-11.7525 12.38125 -11.505 11.7625 -11.25 11.125 C-9.79371361 8.64931313 -8.62187494 8.04874998 -6 7 C-6 6.34 -6 5.68 -6 5 C-4.04072937 3.2856382 -2.04119788 1.61594832 0 0 Z " fill="#6F175A" transform="translate(132,97)"/>
<path d="M0 0 C2 3 2 3 1.6796875 5.05078125 C-0.03499769 9.87021194 -1.8032082 13.97822967 -5 18 C-5.66 18 -6.32 18 -7 18 C-6.34 16.02 -5.68 14.04 -5 12 C-4.34 12 -3.68 12 -3 12 C-1.98888907 8.95086772 -1.98888907 8.95086772 -3 6 C-2.34 6 -1.68 6 -1 6 C-0.67 4.02 -0.34 2.04 0 0 Z " fill="#6D2865" transform="translate(192,181)"/>
<path d="M0 0 C0.66 0.66 1.32 1.32 2 2 C1.625 4.625 1.625 4.625 1 7 C0.01 7 -0.98 7 -2 7 C-2.33 9.64 -2.66 12.28 -3 15 C-3.66 15 -4.32 15 -5 15 C-5.33 15.99 -5.66 16.98 -6 18 C-6.33 17.34 -6.66 16.68 -7 16 C-5.92664301 13.23325418 -4.79739939 10.56805742 -3.5625 7.875 C-3.22412109 7.12089844 -2.88574219 6.36679688 -2.53710938 5.58984375 C-1.69839399 3.72340669 -0.85008607 1.8612857 0 0 Z " fill="#6E2B74" transform="translate(106,69)"/>
<path d="M0 0 C2.26722103 2.26722103 2.85047534 4.02931829 4 7 C5.32982445 9.58119317 6.69554628 12.13991395 8.07421875 14.6953125 C9 17 9 17 8 20 C6.84059004 17.98692526 5.69805177 15.96412862 4.5625 13.9375 C3.92441406 12.81214844 3.28632812 11.68679687 2.62890625 10.52734375 C0.96352826 6.92102163 0.35598317 3.9358703 0 0 Z " fill="#6B2760" transform="translate(91,177)"/>
<path d="M0 0 C0.66 0 1.32 0 2 0 C0.25192871 5.46737191 -1.65794081 10.75824848 -4 16 C-4.66 14.68 -5.32 13.36 -6 12 C-5.34 11.34 -4.68 10.68 -4 10 C-4.66 10 -5.32 10 -6 10 C-5 8 -5 8 -3 7 C-1.94647157 4.69034152 -0.94280904 2.3570226 0 0 Z " fill="#CD5880" transform="translate(247,133)"/>
<path d="M0 0 C0.66 1.32 1.32 2.64 2 4 C2.66 4 3.32 4 4 4 C4.28875 4.804375 4.5775 5.60875 4.875 6.4375 C5.73262568 9.1326468 5.73262568 9.1326468 8 10 C8 12.31 8 14.62 8 17 C5.72195761 14.12071475 3.95965316 11.2169671 2.3125 7.9375 C1.87550781 7.08027344 1.43851563 6.22304687 0.98828125 5.33984375 C0 3 0 3 0 0 Z " fill="#CD587F" transform="translate(40,139)"/>
<path d="M0 0 C1.9078584 3.1749094 2.1609041 5.10585211 1.625 8.75 C1.51414062 9.54921875 1.40328125 10.3484375 1.2890625 11.171875 C1.19367187 11.77515625 1.09828125 12.3784375 1 13 C-1.26969744 10.73030256 -1.99131829 9.02604513 -3 6 C-3 4.68 -3 3.36 -3 2 C-2.34 2 -1.68 2 -1 2 C-0.67 1.34 -0.34 0.68 0 0 Z " fill="#D05981" transform="translate(38,124)"/>
<path d="M0 0 C1.3274855 3.98245651 -0.00092171 6.44789543 -1.4375 10.1875 C-1.68048828 10.84169922 -1.92347656 11.49589844 -2.17382812 12.16992188 C-2.7743293 13.78303286 -3.38609203 15.3919435 -4 17 C-4.66 15.68 -5.32 14.36 -6 13 C-5.34 13 -4.68 13 -4 13 C-4 11.68 -4 10.36 -4 9 C-4.66 8.67 -5.32 8.34 -6 8 C-4.68 7.67 -3.36 7.34 -2 7 C-1.34 4.69 -0.68 2.38 0 0 Z " fill="#C9577F" transform="translate(87,82)"/>
<path d="M0 0 C2.88314998 1.0318642 3.84499442 1.70674619 5.30078125 4.4609375 C5.63464844 5.42257813 5.96851563 6.38421875 6.3125 7.375 C6.65925781 8.33148438 7.00601563 9.28796875 7.36328125 10.2734375 C8.00653746 13.02799478 7.96097914 14.3836568 7 17 C4.44669421 11.40087258 2.10319285 5.78378035 0 0 Z " fill="#751E65" transform="translate(184,133)"/>
<path d="M0 0 C0.33 0.99 0.66 1.98 1 3 C0.67 3.66 0.34 4.32 0 5 C0.66 5.66 1.32 6.32 2 7 C-0.31 8.65 -2.62 10.3 -5 12 C-5 8.55639368 -4.20408468 7.25204608 -2.5 4.3125 C-2.0359375 3.50425781 -1.571875 2.69601563 -1.09375 1.86328125 C-0.7328125 1.24839844 -0.371875 0.63351563 0 0 Z " fill="#BE567B" transform="translate(201,196)"/>
<path d="M0 0 C2.93200474 2.85276137 5.64315404 5.65079784 8 9 C7.67 9.66 7.34 10.32 7 11 C4.50638429 9.79618552 2.31856917 8.54571278 0 7 C0.33 6.67 0.66 6.34 1 6 C0.71325582 3.99279077 0.38133299 1.9914056 0 0 Z " fill="#5F4788" transform="translate(145,14)"/>
<path d="M0 0 C0.66 0 1.32 0 2 0 C2.12375 1.093125 2.2475 2.18625 2.375 3.3125 C2.75464801 7.07381802 2.75464801 7.07381802 5 10 C4.625 13.1875 4.625 13.1875 4 16 C1.11388804 11.0523795 0 5.66834163 0 0 Z " fill="#CA5B7F" transform="translate(23,85)"/>
<path d="M0 0 C0.66 0 1.32 0 2 0 C2 0.66 2 1.32 2 2 C2.66 2 3.32 2 4 2 C4.33 1.34 4.66 0.68 5 0 C5.66 3.3 6.32 6.6 7 10 C4.4000702 7.48972295 2.00908773 5.0136316 0 2 C0 1.34 0 0.68 0 0 Z " fill="#C95A7E" transform="translate(57,171)"/>
<path d="M0 0 C1.15957207 3.47871621 0.77456651 4.34219645 -0.4375 7.6875 C-0.86869141 8.89986328 -0.86869141 8.89986328 -1.30859375 10.13671875 C-1.53675781 10.75160156 -1.76492187 11.36648437 -2 12 C-2.33 12 -2.66 12 -3 12 C-3.33 8.7 -3.66 5.4 -4 2 C-3.01 2 -2.02 2 -1 2 C-0.67 1.34 -0.34 0.68 0 0 Z " fill="#CB5B80" transform="translate(254,116)"/>
<path d="M0 0 C4.03174806 0.27489191 5.56894631 0.53491576 8.375 3.5625 C8.91125 4.366875 9.4475 5.17125 10 6 C9.484375 5.690625 8.96875 5.38125 8.4375 5.0625 C5.33334577 3.70940713 2.34884993 3.38640576 -1 3 C-0.67 2.01 -0.34 1.02 0 0 Z " fill="#6F1A5F" transform="translate(141,90)"/>
<path d="M0 0 C3.48331435 3.01887244 4.79157144 5.56909529 6 10 C3.69 8.35 1.38 6.7 -1 5 C-0.34 4.67 0.32 4.34 1 4 C0.67 2.68 0.34 1.36 0 0 Z " fill="#BA5B7D" transform="translate(86,199)"/>
<path d="M0 0 C0.66 0 1.32 0 2 0 C3.79217969 5.16569441 4.12029814 8.51053913 3 14 C2.67 14 2.34 14 2 14 C1.34 9.38 0.68 4.76 0 0 Z " fill="#CD6085" transform="translate(207,112)"/>
<path d="M0 0 C0.66 0.66 1.32 1.32 2 2 C-0.31 4.64 -2.62 7.28 -5 10 C-5 6.60406522 -4.47834052 5.93380119 -2.5 3.3125 C-2.0359375 2.68988281 -1.571875 2.06726563 -1.09375 1.42578125 C-0.7328125 0.95527344 -0.371875 0.48476563 0 0 Z " fill="#694F8B" transform="translate(131,27)"/>
<path d="M0 0 C2.4375 1.1875 2.4375 1.1875 5 3 C5.75 5.4375 5.75 5.4375 6 8 C6.32483418 9.33542939 6.6550855 10.66961551 7 12 C0 3.55172414 0 3.55172414 0 0 Z " fill="#C85A7D" transform="translate(48,156)"/>
<path d="M0 0 C0.99 0.495 0.99 0.495 2 1 C2 2.32 2 3.64 2 5 C3.32 5 4.64 5 6 5 C5.01 6.485 5.01 6.485 4 8 C2.68 7.67 1.36 7.34 0 7 C0 4.69 0 2.38 0 0 Z " fill="#D6537F" transform="translate(210,126)"/>
<path d="M0 0 C0.66 0.33 1.32 0.66 2 1 C-0.31 3.64 -2.62 6.28 -5 9 C-5.33 8.34 -5.66 7.68 -6 7 C-4.78519695 3.57646413 -2.98228777 1.98819185 0 0 Z " fill="#741E64" transform="translate(113,116)"/>
<path d="M0 0 C-1.44253657 3.36591866 -3.33264727 5.51047079 -6 8 C-6.33 7.34 -6.66 6.68 -7 6 C-6.34 6 -5.68 6 -5 6 C-5.33 5.01 -5.66 4.02 -6 3 C-2.25 0 -2.25 0 0 0 Z " fill="#631956" transform="translate(186,199)"/>
<path d="M0 0 C-1.65 1.65 -3.3 3.3 -5 5 C-5.33 3.35 -5.66 1.7 -6 0 C-3.50907189 -1.24546405 -2.58919267 -0.7767578 0 0 Z " fill="#D45983" transform="translate(223,181)"/>
<path d="M0 0 C1.0625 1.875 1.0625 1.875 2 4 C1.67 4.66 1.34 5.32 1 6 C1.66 6 2.32 6 3 6 C3 6.66 3 7.32 3 8 C2.01 8.33 1.02 8.66 0 9 C0 8.34 0 7.68 0 7 C-0.66 6.67 -1.32 6.34 -2 6 C-1.34 4.02 -0.68 2.04 0 0 Z " fill="#702E75" transform="translate(98,87)"/>
<path d="M0 0 C0.99 0.33 1.98 0.66 3 1 C3.33 2.98 3.66 4.96 4 7 C2.35 5.35 0.7 3.7 -1 2 C-0.67 1.34 -0.34 0.68 0 0 Z " fill="#651A46" transform="translate(105,201)"/>
<path d="M0 0 C0.33 0.66 0.66 1.32 1 2 C0.29296875 3.91015625 0.29296875 3.91015625 -0.8125 6.0625 C-1.16957031 6.77535156 -1.52664062 7.48820313 -1.89453125 8.22265625 C-3 10 -3 10 -5 11 C-3.77472971 6.94718288 -2.30119506 3.55639236 0 0 Z " fill="#70175E" transform="translate(106,125)"/>
<path d="M0 0 C0 1.32 0 2.64 0 4 C-1.32 4.33 -2.64 4.66 -4 5 C-4 3.68 -4 2.36 -4 1 C-2 0 -2 0 0 0 Z " fill="#732E84" transform="translate(181,70)"/>
<path d="M0 0 C2.0625 2.25 2.0625 2.25 4 5 C3.67 6.32 3.34 7.64 3 9 C1.68 6.36 0.36 3.72 -1 1 C-0.67 0.67 -0.34 0.34 0 0 Z " fill="#682254" transform="translate(96,188)"/>
</svg>
