<?xml version="1.0" standalone="no"?>
<!DOCTYPE svg PUBLIC "-//W3C//DTD SVG 20010904//EN"
 "http://www.w3.org/TR/2001/REC-SVG-20010904/DTD/svg10.dtd">
<svg version="1.0" xmlns="http://www.w3.org/2000/svg"
 width="50.000000pt" height="50.000000pt" viewBox="0 0 50.000000 50.000000"
 preserveAspectRatio="xMidYMid meet">

<g transform="translate(0.000000,50.000000) scale(0.100000,-0.100000)"
fill="#000000" stroke="none">
<path d="M20 424 c0 -11 224 -374 230 -374 6 0 230 363 230 374 0 3 -103 6
-230 6 -126 0 -230 -3 -230 -6z m408 -54 l-23 -40 -155 0 -155 0 -23 40 -23
40 201 0 201 0 -23 -40z m-62 -102 l-26 -43 -90 0 -90 0 -26 43 -25 42 141 0
141 0 -25 -42z m-136 -87 c-10 -20 -30 -37 -30 -26 0 11 25 45 33 45 4 0 3 -9
-3 -19z m29 -21 c-13 -22 -26 -40 -31 -40 -12 0 -10 7 15 45 31 48 43 44 16
-5z m32 -12 c-16 -29 -35 -54 -42 -57 -7 -2 -3 11 10 30 12 19 27 44 33 57 6
12 15 22 20 22 6 0 -4 -24 -21 -52z"/>
<path d="M150 280 c0 -5 5 -10 10 -10 6 0 10 5 10 10 0 6 -4 10 -10 10 -5 0
-10 -4 -10 -10z"/>
<path d="M210 280 c0 -5 5 -10 10 -10 6 0 10 5 10 10 0 6 -4 10 -10 10 -5 0
-10 -4 -10 -10z"/>
<path d="M270 280 c0 -5 5 -10 10 -10 6 0 10 5 10 10 0 6 -4 10 -10 10 -5 0
-10 -4 -10 -10z"/>
<path d="M330 280 c0 -5 5 -10 10 -10 6 0 10 5 10 10 0 6 -4 10 -10 10 -5 0
-10 -4 -10 -10z"/>
<path d="M180 250 c0 -5 5 -10 10 -10 6 0 10 5 10 10 0 6 -4 10 -10 10 -5 0
-10 -4 -10 -10z"/>
<path d="M240 250 c0 -5 5 -10 10 -10 6 0 10 5 10 10 0 6 -4 10 -10 10 -5 0
-10 -4 -10 -10z"/>
<path d="M300 250 c0 -5 5 -10 10 -10 6 0 10 5 10 10 0 6 -4 10 -10 10 -5 0
-10 -4 -10 -10z"/>
</g>
</svg>
