<svg width="20" height="20" viewBox="0 0 20 20" fill="none" xmlns="http://www.w3.org/2000/svg">
<path d="M2.80822 4.7847L7.03291 7.22039C7.51463 7.499 8.13288 7.42099 8.52379 7.03279C8.6506 6.91509 8.75134 6.77395 8.81995 6.61787C8.88857 6.46178 8.92365 6.29397 8.92308 6.12452V1.24262C8.9319 1.0287 8.88046 0.816455 8.77419 0.62831C8.66793 0.440164 8.51078 0.2831 8.31936 0.173707C8.12793 0.0643135 7.90932 0.00665122 7.68663 0.00681063C7.46394 0.00697005 7.24542 0.0649453 7.05417 0.174613C6.86282 0.283888 6.70569 0.440789 6.59937 0.628764C6.49305 0.816738 6.44148 1.02882 6.45009 1.24262V4.02069L4.05051 2.63754C3.9091 2.55657 3.75208 2.50402 3.58894 2.48305C3.4258 2.46209 3.25993 2.47315 3.10137 2.51558C2.9428 2.558 2.79483 2.6309 2.66641 2.72986C2.53798 2.82883 2.43177 2.95181 2.3542 3.09136C2.01094 3.68202 2.21058 4.42746 2.80822 4.7847ZM12.9649 7.2142L17.1896 4.77851C17.7885 4.42127 17.9881 3.67521 17.6442 3.08455C17.5666 2.94514 17.4604 2.82229 17.332 2.72344C17.2036 2.62459 17.0557 2.55179 16.8972 2.50943C16.7387 2.46708 16.5729 2.45604 16.4099 2.47699C16.2468 2.49795 16.0899 2.55046 15.9486 2.63135L13.5805 3.99592V1.23581C13.5894 1.02189 13.5379 0.809645 13.4317 0.621499C13.3254 0.433354 13.1682 0.27629 12.9768 0.166896C12.7854 0.0575032 12.5668 -0.000159087 12.3441 3.29653e-07C12.1214 0.000159746 11.9029 0.058135 11.7116 0.167802C11.5203 0.277078 11.3632 0.433978 11.2568 0.621953C11.1505 0.809927 11.0989 1.022 11.1076 1.23581V6.02174C11.0818 6.27806 11.1378 6.53562 11.2686 6.76099C11.3461 6.90054 11.4523 7.02352 11.5808 7.12249C11.7092 7.22146 11.8572 7.29435 12.0157 7.33678C12.1743 7.3792 12.3402 7.39026 12.5033 7.3693C12.6664 7.34834 12.8235 7.29516 12.9649 7.2142ZM9.20387 9.9904C9.20794 9.91216 9.23898 9.83745 9.29209 9.77804L9.78605 9.28397C9.845 9.23237 9.93965 9.20139 10.0192 9.19605C10.0987 9.20054 10.1741 9.23164 10.2323 9.28397L10.7263 9.77804C10.7794 9.83745 10.8105 9.91216 10.8145 9.9904V10.009C10.8107 10.0876 10.7797 10.1628 10.7263 10.2226L10.2323 10.7154C10.1738 10.767 10.099 10.7982 10.0198 10.8039H10.0005C9.92064 10.7994 9.84497 10.7681 9.78669 10.7154L9.29274 10.2226C9.23928 10.1625 9.20902 10.0876 9.20451 10.009L9.20387 9.9904ZM7.70848 9.78733V10.0003V10.2133C7.71402 10.3202 7.75639 10.4224 7.82891 10.5037L9.50526 12.1766C9.58452 12.2484 9.68758 12.2912 9.79635 12.2973H10.0095H10.2227C10.3315 12.2912 10.4345 12.2484 10.5138 12.1766L12.1901 10.5037C12.2629 10.4232 12.3061 10.3204 12.3106 10.2127V9.99969V9.78671C12.3052 9.67954 12.2628 9.57716 12.1901 9.49571L10.5138 7.82405C10.4345 7.75217 10.3315 7.70943 10.2227 7.70331H9.79635C9.68758 7.70943 9.58452 7.75217 9.50526 7.82405L7.82891 9.49695C7.75614 9.57744 7.71299 9.6796 7.70848 9.78733ZM0.622458 8.63821L3.01495 10.0176L0.622458 11.3965C0.0248188 11.7537 -0.176112 12.4998 0.167788 13.0904C0.245422 13.2299 0.351675 13.3528 0.480125 13.4517C0.608574 13.5507 0.756552 13.6235 0.915113 13.6658C1.07367 13.7082 1.23952 13.7192 1.40263 13.6982C1.56575 13.6772 1.72273 13.6246 1.86411 13.5436L6.0888 11.1079C6.2792 10.9909 6.4359 10.8297 6.54444 10.6392C6.65298 10.4486 6.70988 10.2349 6.70988 10.0176C6.70988 9.8004 6.65298 9.58665 6.54444 9.3961C6.4359 9.20555 6.2792 9.04435 6.0888 8.92735L1.86411 6.49104C1.72269 6.41008 1.56567 6.35752 1.40253 6.33656C1.23939 6.3156 1.07353 6.32666 0.91496 6.36908C0.756395 6.4115 0.608427 6.4844 0.480002 6.58337C0.351578 6.68234 0.245366 6.80532 0.167788 6.94487C-0.175468 7.53553 0.0248188 8.28097 0.622458 8.63821ZM13.2888 10.0164C13.2852 10.2337 13.3406 10.4481 13.4495 10.6385C13.5583 10.8289 13.7169 10.9888 13.9096 11.1024L18.1363 13.5381C18.2776 13.6189 18.4345 13.6715 18.5976 13.6924C18.7606 13.7134 18.9264 13.7023 19.0849 13.66C19.2434 13.6176 19.3913 13.5448 19.5197 13.446C19.6481 13.3471 19.7543 13.2243 19.8319 13.0848C20.1758 12.4942 19.9755 11.7475 19.3773 11.3909L16.9848 10.0121L19.3773 8.63264C19.9762 8.27602 20.1758 7.53057 19.8319 6.9393C19.7543 6.79983 19.6482 6.67692 19.5198 6.57801C19.3914 6.4791 19.2435 6.40624 19.085 6.36382C18.9265 6.3214 18.7608 6.31031 18.5977 6.33122C18.4346 6.35213 18.2776 6.4046 18.1363 6.48547L13.9096 8.92177C13.7155 9.03614 13.556 9.19749 13.4471 9.38968C13.3381 9.58188 13.2835 9.79758 13.2888 10.0164ZM7.88172 12.6626C7.58998 12.6081 7.28794 12.6601 7.03356 12.8075L2.80887 15.2438C2.21123 15.601 2.0103 16.3458 2.3542 16.9371C2.43183 17.0766 2.53808 17.1995 2.66653 17.2984C2.79498 17.3973 2.94296 17.4702 3.10152 17.5125C3.26008 17.5549 3.42593 17.5659 3.58904 17.5449C3.75215 17.5239 3.90914 17.4713 4.05051 17.3903L6.45009 16.0072V18.7642C6.44127 18.9781 6.49271 19.1904 6.59897 19.3785C6.70524 19.5666 6.86238 19.7237 7.05381 19.8331C7.24524 19.9425 7.46384 20.0002 7.68653 20C7.90923 19.9998 8.12774 19.9419 8.319 19.8322C8.51035 19.7229 8.66747 19.566 8.77379 19.378C8.88011 19.1901 8.93169 18.978 8.92308 18.7642V13.8761C8.92781 13.5873 8.82581 13.3063 8.63523 13.0831C8.44466 12.8599 8.17787 12.7089 7.88236 12.657M17.1915 15.2388L12.9668 12.8031C12.8254 12.7221 12.6684 12.6696 12.5053 12.6486C12.3422 12.6275 12.1764 12.6386 12.0178 12.6809C11.8593 12.7233 11.7113 12.7961 11.5828 12.895C11.4544 12.9939 11.3481 13.1168 11.2705 13.2563C11.1405 13.4817 11.0846 13.7397 11.1101 13.9962V18.7586C11.1013 18.9725 11.1527 19.1848 11.259 19.3729C11.3653 19.5611 11.5224 19.7181 11.7139 19.8275C11.9053 19.9369 12.1239 19.9946 12.3466 19.9944C12.5693 19.9943 12.7878 19.9363 12.979 19.8266C13.1704 19.7174 13.3275 19.5605 13.4338 19.3725C13.5402 19.1845 13.5917 18.9724 13.5831 18.7586V16.0208L15.9505 17.3854C16.0919 17.4663 16.2489 17.5189 16.4121 17.5399C16.5752 17.5608 16.7411 17.5498 16.8996 17.5073C17.0582 17.4649 17.2062 17.392 17.3346 17.293C17.463 17.1941 17.5692 17.0711 17.6468 16.9315C17.9901 16.3409 17.7898 15.5954 17.1921 15.2382" fill="#71AFC0"/>
</svg>
