<svg width="32" height="32" viewBox="0 0 32 32" fill="none" xmlns="http://www.w3.org/2000/svg">
  <mask id="mask0_2194_6453" style="mask-type:alpha" maskUnits="userSpaceOnUse" x="0" y="0"
    width="32" height="32">
    <rect width="32" height="32" fill="#D9D9D9" />
  </mask>
  <g mask="url(#mask0_2194_6453)">
    <path
      d="M7.6665 20H11.6665V18H8.33317V14H11.6665V12H7.6665C7.28873 12 6.97206 12.1278 6.7165 12.3834C6.46095 12.6389 6.33317 12.9556 6.33317 13.3334V18.6667C6.33317 19.0445 6.46095 19.3612 6.7165 19.6167C6.97206 19.8723 7.28873 20 7.6665 20ZM12.8665 20H16.8665C17.2443 20 17.5609 19.8723 17.8165 19.6167C18.0721 19.3612 18.1998 19.0445 18.1998 18.6667V16.6667C18.1998 16.2889 18.0721 15.9389 17.8165 15.6167C17.5609 15.2945 17.2443 15.1334 16.8665 15.1334H14.8665V14H18.1998V12H14.1998C13.8221 12 13.5054 12.1278 13.2498 12.3834C12.9943 12.6389 12.8665 12.9556 12.8665 13.3334V15.3334C12.8665 15.7112 12.9943 16.05 13.2498 16.35C13.5054 16.65 13.8221 16.8 14.1998 16.8H16.1998V18H12.8665V20ZM21.6665 20H23.6665L25.9998 12H23.9998L22.6665 16.6L21.3332 12H19.3332L21.6665 20ZM5.33317 26.6667C4.59984 26.6667 3.97206 26.4056 3.44984 25.8834C2.92762 25.3612 2.6665 24.7334 2.6665 24V8.00004C2.6665 7.26671 2.92762 6.63893 3.44984 6.11671C3.97206 5.59449 4.59984 5.33337 5.33317 5.33337H26.6665C27.3998 5.33337 28.0276 5.59449 28.5498 6.11671C29.0721 6.63893 29.3332 7.26671 29.3332 8.00004V24C29.3332 24.7334 29.0721 25.3612 28.5498 25.8834C28.0276 26.4056 27.3998 26.6667 26.6665 26.6667H5.33317Z"
      fill="#1C1B1F" />
  </g>
</svg>