<svg width="150" height="148" viewBox="0 0 150 148" fill="none" xmlns="http://www.w3.org/2000/svg">
  <path
    d="M84.309 50.8323H52.6656C51.9728 50.8344 51.2887 50.6784 50.6653 50.3763C50.0419 50.0742 49.4957 49.6339 49.0681 49.0888C48.6327 48.5386 48.3286 47.8964 48.1789 47.2109C48.0293 46.5255 48.038 45.8149 48.2044 45.1334C51.1208 32.9178 51.1207 20.1873 48.2042 7.97184C48.0379 7.29028 48.0293 6.57977 48.179 5.89437C48.3287 5.20898 48.6327 4.56676 49.068 4.01657C49.4956 3.47149 50.0418 3.03114 50.6653 2.72902C51.2887 2.42689 51.9728 2.27096 52.6656 2.27309H84.309C85.4015 2.27623 86.4575 2.66708 87.2887 3.37601C88.12 4.08495 88.6727 5.06594 88.8483 6.14427C90.9308 19.6702 90.9308 33.4352 88.8483 46.9611C88.6727 48.0394 88.12 49.0204 87.2887 49.7294C86.4575 50.4383 85.4015 50.8292 84.309 50.8323Z"
    fill="#E6E6E6" />
  <path
    d="M52.6656 4.65394C52.3329 4.65282 52.0043 4.7276 51.7049 4.87259C51.4055 5.01757 51.143 5.22894 50.9376 5.49061C50.726 5.75872 50.5784 6.07154 50.506 6.40529C50.4335 6.73904 50.4381 7.08491 50.5195 7.41661C53.5231 19.9971 53.5232 33.108 50.5196 45.6886C50.4382 46.0202 50.4336 46.366 50.506 46.6997C50.5784 47.0334 50.726 47.3461 50.9375 47.6142C51.1429 47.8759 51.4055 48.0875 51.7049 48.2325C52.0043 48.3776 52.3329 48.4523 52.6656 48.4512H84.309C84.8337 48.4514 85.3414 48.2654 85.7417 47.9262C86.142 47.587 86.409 47.1168 86.495 46.5992C88.5406 33.3131 88.5406 19.7921 86.495 6.50592C86.409 5.98835 86.142 5.51812 85.7417 5.17897C85.3414 4.83981 84.8337 4.65376 84.309 4.65394L52.6656 4.65394Z"
    fill="white" />
  <path
    d="M77.4038 16.1027H60.7986C60.1673 16.102 59.5622 15.8509 59.1158 15.4046C58.6695 14.9582 58.4184 14.353 58.4177 13.7218V12.7914C58.4184 12.1602 58.6695 11.555 59.1158 11.1086C59.5622 10.6623 60.1673 10.4112 60.7986 10.4105H77.4038C78.035 10.4112 78.6402 10.6623 79.0865 11.1086C79.5329 11.555 79.7839 12.1602 79.7846 12.7914V13.7218C79.7839 14.353 79.5329 14.9582 79.0865 15.4046C78.6402 15.8509 78.035 16.102 77.4038 16.1027Z"
    fill="#E6E6E6" />
  <path
    d="M77.4038 27.8589H60.7986C60.1673 27.8582 59.5622 27.6071 59.1158 27.1608C58.6695 26.7144 58.4184 26.1092 58.4177 25.478V24.5476C58.4184 23.9164 58.6695 23.3112 59.1158 22.8648C59.5622 22.4185 60.1673 22.1674 60.7986 22.1667H77.4038C78.035 22.1674 78.6402 22.4185 79.0865 22.8648C79.5329 23.3112 79.7839 23.9164 79.7846 24.5476V25.478C79.7839 26.1092 79.5329 26.7144 79.0865 27.1608C78.6402 27.6071 78.035 27.8582 77.4038 27.8589Z"
    fill="#E6E6E6" />
  <path
    d="M77.4038 39.6152H60.7986C60.1673 39.6145 59.5622 39.3635 59.1158 38.9171C58.6695 38.4708 58.4184 37.8656 58.4177 37.2343V36.304C58.4184 35.6727 58.6695 35.0675 59.1158 34.6212C59.5622 34.1748 60.1673 33.9238 60.7986 33.9231H77.4038C78.035 33.9238 78.6402 34.1748 79.0865 34.6212C79.5329 35.0675 79.7839 35.6727 79.7846 36.304V37.2343C79.7839 37.8656 79.5329 38.4708 79.0865 38.9171C78.6402 39.3635 78.035 39.6145 77.4038 39.6152Z"
    fill="#E6E6E6" />
  <path
    d="M143.833 80.991H112.189C111.497 80.9931 110.813 80.8371 110.189 80.535C109.566 80.2329 109.02 79.7926 108.592 79.2475C108.157 78.6973 107.853 78.0551 107.703 77.3696C107.553 76.6842 107.562 75.9736 107.728 75.292C110.645 63.0765 110.645 50.346 107.728 38.1305C107.562 37.449 107.553 36.7385 107.703 36.0531C107.853 35.3677 108.157 34.7254 108.592 34.1753C109.019 33.6302 109.566 33.1898 110.189 32.8877C110.813 32.5856 111.497 32.4297 112.189 32.4318H143.833C144.925 32.4349 145.981 32.8258 146.813 33.5347C147.644 34.2436 148.197 35.2246 148.372 36.303C150.455 49.8289 150.455 63.5939 148.372 77.1198C148.197 78.1981 147.644 79.1791 146.813 79.8881C145.981 80.597 144.925 80.9878 143.833 80.991Z"
    fill="#E6E6E6" />
  <path
    d="M112.189 34.8128C111.857 34.8116 111.528 34.8864 111.229 35.0314C110.929 35.1764 110.667 35.3877 110.462 35.6494C110.25 35.9175 110.102 36.2304 110.03 36.5641C109.957 36.8978 109.962 37.2437 110.043 37.5754C113.047 50.1559 113.047 63.2668 110.044 75.8474C109.962 76.179 109.957 76.5248 110.03 76.8585C110.102 77.1922 110.25 77.5049 110.461 77.773C110.667 78.0347 110.929 78.2463 111.229 78.3914C111.528 78.5364 111.857 78.6112 112.189 78.61H143.833C144.358 78.6102 144.865 78.4242 145.266 78.085C145.666 77.7459 145.933 77.2756 146.019 76.7581C148.065 63.4719 148.065 49.9509 146.019 36.6647C145.933 36.1472 145.666 35.6769 145.266 35.3378C144.865 34.9986 144.358 34.8126 143.833 34.8127L112.189 34.8128Z"
    fill="white" />
  <path
    d="M80.7375 115.316H49.094C48.3713 115.319 47.6576 115.156 47.0072 114.841C46.3568 114.525 45.7868 114.066 45.3408 113.497C44.8868 112.924 44.5697 112.254 44.4136 111.539C44.2575 110.824 44.2665 110.083 44.44 109.373C47.349 97.1877 47.349 84.4889 44.4398 72.3039C44.2664 71.5931 44.2574 70.8522 44.4135 70.1375C44.5696 69.4228 44.8867 68.7531 45.3407 68.1794C45.7868 67.6108 46.3567 67.1513 47.0071 66.8361C47.6575 66.5209 48.3713 66.3582 49.094 66.3604H80.7375C81.8773 66.3638 82.9789 66.7717 83.8461 67.5114C84.7133 68.2511 85.2898 69.2747 85.4728 70.3997C87.5585 83.9457 87.5585 97.7311 85.4728 111.277C85.2898 112.402 84.7133 113.426 83.8461 114.165C82.9789 114.905 81.8773 115.313 80.7375 115.316Z"
    fill="#F2F2F2" />
  <path
    d="M136.927 52.2139H120.322C119.691 52.2132 119.086 51.9621 118.64 51.5158C118.193 51.0694 117.942 50.4642 117.941 49.833V48.9026C117.942 48.2714 118.193 47.6662 118.64 47.2198C119.086 46.7735 119.691 46.5224 120.322 46.5217H136.927C137.559 46.5224 138.164 46.7735 138.61 47.2198C139.057 47.6662 139.308 48.2714 139.308 48.9026V49.833C139.308 50.4642 139.057 51.0694 138.61 51.5158C138.164 51.9621 137.559 52.2132 136.927 52.2139Z"
    fill="#E6E6E6" />
  <path
    d="M136.927 63.9701H120.322C119.691 63.9694 119.086 63.7183 118.64 63.272C118.193 62.8256 117.942 62.2205 117.941 61.5892V60.6588C117.942 60.0276 118.193 59.4224 118.64 58.976C119.086 58.5297 119.691 58.2786 120.322 58.278H136.927C137.559 58.2786 138.164 58.5297 138.61 58.976C139.057 59.4224 139.308 60.0276 139.308 60.6588V61.5892C139.308 62.2205 139.057 62.8256 138.61 63.272C138.164 63.7183 137.559 63.9694 136.927 63.9701Z"
    fill="#E6E6E6" />
  <path
    d="M65.0044 99.8016C70.0451 99.8016 74.1314 95.7153 74.1314 90.6746C74.1314 85.6339 70.0451 81.5476 65.0044 81.5476C59.9637 81.5476 55.8774 85.6339 55.8774 90.6746C55.8774 95.7153 59.9637 99.8016 65.0044 99.8016Z"
    fill="white" />
  <path
    d="M69.3694 89.4841H66.1948V86.3095C66.1948 85.9938 66.0693 85.691 65.8461 85.4677C65.6228 85.2444 65.32 85.119 65.0043 85.119C64.6886 85.119 64.3857 85.2444 64.1625 85.4677C63.9392 85.691 63.8138 85.9938 63.8138 86.3095V89.4841H60.6392C60.3235 89.4841 60.0207 89.6095 59.7974 89.8328C59.5741 90.056 59.4487 90.3588 59.4487 90.6746C59.4487 90.9903 59.5741 91.2931 59.7974 91.5164C60.0207 91.7396 60.3235 91.8651 60.6392 91.8651H63.8138V95.0397C63.8138 95.3554 63.9392 95.6582 64.1625 95.8814C64.3857 96.1047 64.6886 96.2301 65.0043 96.2301C65.32 96.2301 65.6228 96.1047 65.8461 95.8814C66.0693 95.6582 66.1948 95.3554 66.1948 95.0397V91.8651H69.3694C69.6851 91.8651 69.9879 91.7396 70.2112 91.5164C70.4344 91.2931 70.5598 90.9903 70.5598 90.6746C70.5598 90.3588 70.4344 90.056 70.2112 89.8328C69.9879 89.6095 69.6851 89.4841 69.3694 89.4841Z"
    fill="#E6E6E6" />
  <path
    d="M76.5124 6.74603H59.8458C59.3723 6.7455 58.9184 6.55719 58.5837 6.22242C58.2489 5.88765 58.0606 5.43375 58.0601 4.96032V1.78571C58.0606 1.31228 58.2489 0.858383 58.5837 0.523613C58.9184 0.188842 59.3723 0.000533555 59.8458 0H76.5124C76.9859 0.000533555 77.4398 0.188842 77.7745 0.523613C78.1093 0.858383 78.2976 1.31228 78.2982 1.78571V4.96032C78.2976 5.43375 78.1093 5.88765 77.7745 6.22242C77.4398 6.55719 76.9859 6.7455 76.5124 6.74603Z"
    fill="#CCCCCC" />
  <path
    d="M136.83 37.3016H120.163C119.69 37.301 119.236 37.1127 118.901 36.778C118.566 36.4432 118.378 35.9893 118.377 35.5159V32.3413C118.378 31.8678 118.566 31.4139 118.901 31.0792C119.236 30.7444 119.69 30.5561 120.163 30.5555H136.83C137.303 30.5561 137.757 30.7444 138.092 31.0792C138.427 31.4139 138.615 31.8678 138.616 32.3413V35.5159C138.615 35.9893 138.427 36.4432 138.092 36.778C137.757 37.1127 137.303 37.301 136.83 37.3016Z"
    fill="#CCCCCC" />
  <path
    d="M35.3482 141.263L6.1266 129.122C5.48607 128.858 4.91416 128.451 4.4544 127.933C3.99463 127.415 3.65912 126.799 3.47339 126.131C3.28245 125.456 3.24806 124.747 3.37284 124.056C3.49762 123.366 3.77827 122.713 4.19345 122.147C11.5735 111.986 16.458 100.229 18.4515 87.8299C18.5595 87.1367 18.8241 86.4772 19.2253 85.9017C19.6265 85.3262 20.1537 84.8498 20.7668 84.5087C21.3708 84.1694 22.0442 83.9724 22.7359 83.9326C23.4275 83.8928 24.1191 84.0113 24.758 84.279L53.9796 96.4201C54.9873 96.8422 55.8124 97.6083 56.3081 98.5819C56.8038 99.5555 56.9377 100.673 56.6861 101.737C53.4196 115.026 48.1382 127.738 41.0254 139.43C40.4495 140.358 39.5627 141.052 38.5231 141.388C37.4834 141.723 36.3583 141.679 35.3482 141.263Z"
    fill="#E6E6E6" />
  <path
    d="M23.8443 86.4779C23.5375 86.3492 23.2054 86.2922 22.8732 86.3112C22.5411 86.3302 22.2177 86.4247 21.9275 86.5875C21.6293 86.7539 21.373 86.9862 21.178 87.2666C20.983 87.547 20.8546 87.8682 20.8024 88.2057C18.7493 100.976 13.7189 113.083 6.11827 123.549C5.91586 123.824 5.77887 124.141 5.7177 124.477C5.65654 124.813 5.67282 125.158 5.76531 125.487C5.85455 125.808 6.01585 126.104 6.23672 126.353C6.45759 126.601 6.7323 126.797 7.03996 126.923L36.2616 139.064C36.746 139.266 37.2862 139.289 37.786 139.129C38.2859 138.969 38.7128 138.638 38.9908 138.193C45.9775 126.708 51.1653 114.222 54.374 101.168C54.4931 100.657 54.427 100.12 54.1875 99.6535C53.9479 99.1867 53.5504 98.8201 53.0659 98.619L23.8443 86.4779Z"
    fill="white" />
  <path
    d="M39.4036 113.505L24.0693 107.133C23.4867 106.891 23.0242 106.427 22.7832 105.843C22.5423 105.26 22.5426 104.604 22.7842 104.021L23.1412 103.162C23.384 102.579 23.8481 102.117 24.4315 101.876C25.0149 101.635 25.6701 101.635 26.2533 101.877L41.5876 108.248C42.1703 108.491 42.6328 108.955 42.8737 109.538C43.1147 110.122 43.1143 110.777 42.8727 111.36L42.5158 112.219C42.2729 112.802 41.8089 113.265 41.2254 113.506C40.642 113.747 39.9868 113.746 39.4036 113.505Z"
    fill="#B4522E" />
  <path
    d="M34.8929 124.361L19.5586 117.99C18.9759 117.747 18.5134 117.283 18.2725 116.7C18.0316 116.116 18.0319 115.461 18.2735 114.878L18.6304 114.019C18.8733 113.436 19.3373 112.973 19.9208 112.732C20.5042 112.492 21.1594 112.492 21.7426 112.733L37.0769 119.105C37.6595 119.347 38.1221 119.811 38.363 120.395C38.6039 120.978 38.6036 121.634 38.362 122.217L38.005 123.076C37.7622 123.659 37.2982 124.121 36.7147 124.362C36.1313 124.603 35.4761 124.603 34.8929 124.361Z"
    fill="#B4522E" />
  <path
    d="M45.5482 98.2468C45.3186 98.2466 45.0913 98.202 44.8786 98.1156L29.4271 91.8685C28.9884 91.6905 28.6381 91.3459 28.4533 90.91C28.2684 90.4742 28.2639 89.9829 28.4408 89.5437L29.6308 86.6005C29.8084 86.1615 30.153 85.8109 30.589 85.626C31.025 85.4411 31.5166 85.4369 31.9557 85.6144L47.4072 91.8615C47.8459 92.0395 48.1961 92.3842 48.381 92.82C48.5659 93.2558 48.5704 93.7472 48.3935 94.1863L47.2035 97.1295C47.0698 97.4591 46.841 97.7415 46.5461 97.9405C46.2513 98.1394 45.9039 98.2461 45.5482 98.2468Z"
    fill="#CCCCCC" />
</svg>