<svg width="100" height="98" viewBox="0 0 100 98" fill="none" xmlns="http://www.w3.org/2000/svg">
  <g clip-path="url(#clip0_2194_3954)">
    <path
      d="M65.508 46.9448H38.2051C37.5837 46.9429 36.9839 46.7165 36.5164 46.3072L25.2704 36.3931C24.8844 36.0523 24.3869 35.8643 23.8718 35.8646H14.1665V2.40555C14.1672 1.76778 14.421 1.15634 14.8722 0.705366C15.3234 0.254393 15.9351 0.000720811 16.5731 0H63.1014C63.7395 0.000720426 64.3512 0.254393 64.8024 0.705366C65.2535 1.15634 65.5073 1.76778 65.508 2.40555L65.508 46.9448Z"
      fill="#E6E6E6" />
    <path
      d="M25.3247 15.5268C28.1441 15.5268 30.4297 13.2422 30.4297 10.4241C30.4297 7.60593 28.1441 5.32138 25.3247 5.32138C22.5053 5.32138 20.2197 7.60593 20.2197 10.4241C20.2197 13.2422 22.5053 15.5268 25.3247 15.5268Z"
      fill="white" />
    <path
      d="M45.161 7.69049H35.6803C35.5062 7.69049 35.3393 7.75961 35.2162 7.88265C35.0931 8.00568 35.0239 8.17255 35.0239 8.34655C35.0239 8.52055 35.0931 8.68742 35.2162 8.81046C35.3393 8.93349 35.5062 9.00261 35.6803 9.00261H45.161C45.335 9.00261 45.502 8.93349 45.6251 8.81046C45.7482 8.68742 45.8173 8.52055 45.8173 8.34655C45.8173 8.17255 45.7482 8.00568 45.6251 7.88265C45.502 7.75961 45.335 7.69049 45.161 7.69049Z"
      fill="white" />
    <path
      d="M58.924 11.8455H35.5549C35.2617 11.8455 35.0239 12.14 35.0239 12.5016C35.0239 12.8631 35.2617 13.1576 35.5549 13.1576H58.924C59.2172 13.1576 59.4549 12.8631 59.4549 12.5016C59.4549 12.14 59.2172 11.8455 58.924 11.8455Z"
      fill="white" />
    <path
      d="M57.0879 20.6295H22.5869C22.3069 20.6295 22.0793 20.924 22.0793 21.2855C22.0793 21.6471 22.3069 21.9416 22.5869 21.9416H57.0879C57.3679 21.9416 57.5954 21.6471 57.5954 21.2855C57.5954 20.924 57.3679 20.6295 57.0879 20.6295Z"
      fill="white" />
    <path
      d="M57.0879 24.7116H22.5869C22.3069 24.7116 22.0793 25.0061 22.0793 25.3677C22.0793 25.7292 22.3069 26.0237 22.5869 26.0237H57.0879C57.3679 26.0237 57.5954 25.7292 57.5954 25.3677C57.5954 25.0061 57.3679 24.7116 57.0879 24.7116Z"
      fill="white" />
    <path
      d="M57.0879 28.7938H22.5869C22.3069 28.7938 22.0793 29.0883 22.0793 29.4498C22.0793 29.8114 22.3069 30.1059 22.5869 30.1059H57.0879C57.3679 30.1059 57.5954 29.8114 57.5954 29.4498C57.5954 29.0883 57.3679 28.7938 57.0879 28.7938Z"
      fill="white" />
    <path
      d="M57.0879 32.8759H22.5869C22.3069 32.8759 22.0793 33.1704 22.0793 33.532C22.0793 33.8935 22.3069 34.188 22.5869 34.188H57.0879C57.3679 34.188 57.5954 33.8935 57.5954 33.532C57.5954 33.1704 57.3679 32.8759 57.0879 32.8759Z"
      fill="white" />
    <path
      d="M88.116 46.9448H38.2053C37.7084 46.9456 37.2223 46.8005 36.8072 46.5274L36.7744 46.5058V12.4652C36.7751 11.8274 37.0289 11.2159 37.4801 10.765C37.9313 10.314 38.543 10.0603 39.181 10.0596H85.7093C86.3474 10.0603 86.9591 10.314 87.4103 10.765C87.8614 11.2159 88.1152 11.8274 88.116 12.4652L88.116 46.9448Z"
      fill="#B4522E" />
    <path
      d="M47.9324 25.5864C50.7518 25.5864 53.0374 23.3018 53.0374 20.4837C53.0374 17.6655 50.7518 15.381 47.9324 15.381C45.113 15.381 42.8274 17.6655 42.8274 20.4837C42.8274 23.3018 45.113 25.5864 47.9324 25.5864Z"
      fill="white" />
    <path
      d="M67.7689 17.7501H58.2882C58.1141 17.7501 57.9472 17.8192 57.8241 17.9422C57.701 18.0653 57.6318 18.2321 57.6318 18.4061C57.6318 18.5801 57.701 18.747 57.8241 18.87C57.9472 18.9931 58.1141 19.0622 58.2882 19.0622H67.7689C67.9429 19.0622 68.1099 18.9931 68.233 18.87C68.3561 18.747 68.4252 18.5801 68.4252 18.4061C68.4252 18.2321 68.3561 18.0653 68.233 17.9422C68.1099 17.8192 67.9429 17.7501 67.7689 17.7501Z"
      fill="white" />
    <path
      d="M81.5319 21.9051H58.1628C57.8696 21.9051 57.6318 22.1996 57.6318 22.5612C57.6318 22.9227 57.8696 23.2172 58.1628 23.2172H81.5319C81.8251 23.2172 82.0628 22.9227 82.0628 22.5612C82.0628 22.1996 81.8251 21.9051 81.5319 21.9051Z"
      fill="white" />
    <path
      d="M79.6958 30.689H45.1948C44.9148 30.689 44.6873 30.9835 44.6873 31.3451C44.6873 31.7066 44.9148 32.0011 45.1948 32.0011H79.6958C79.9758 32.0011 80.2034 31.7066 80.2034 31.3451C80.2034 30.9835 79.9758 30.689 79.6958 30.689Z"
      fill="white" />
    <path
      d="M79.6958 34.7712H45.1948C44.9148 34.7712 44.6873 35.0657 44.6873 35.4273C44.6873 35.7888 44.9148 36.0833 45.1948 36.0833H79.6958C79.9758 36.0833 80.2034 35.7888 80.2034 35.4273C80.2034 35.0657 79.9758 34.7712 79.6958 34.7712Z"
      fill="white" />
    <path
      d="M79.6958 38.8533H45.1948C44.9148 38.8533 44.6873 39.1478 44.6873 39.5094C44.6873 39.871 44.9148 40.1655 45.1948 40.1655H79.6958C79.9758 40.1655 80.2034 39.871 80.2034 39.5094C80.2034 39.1478 79.9758 38.8533 79.6958 38.8533Z"
      fill="white" />
    <path
      d="M79.6958 42.9355H45.1948C44.9148 42.9355 44.6873 43.23 44.6873 43.5915C44.6873 43.9531 44.9148 44.2476 45.1948 44.2476H79.6958C79.9758 44.2476 80.2034 43.9531 80.2034 43.5915C80.2034 43.23 79.9758 42.9355 79.6958 42.9355Z"
      fill="white" />
    <path
      d="M89.5018 46.5803H38.2054C37.7124 46.5809 37.2337 46.4144 36.8475 46.1079C36.8169 46.0846 36.7877 46.0598 36.7585 46.0336L32.4164 42.2065L25.5115 36.1198C25.0589 35.7203 24.4759 35.4999 23.8721 35.5002H11.3226C10.6652 35.5011 10.0351 35.7625 9.57029 36.2271C9.10548 36.6917 8.84395 37.3216 8.84302 37.9786V94.6914C8.84395 95.3484 9.10548 95.9783 9.57029 96.4429C10.0351 96.9075 10.6652 97.1689 11.3226 97.1698H89.5018C90.1591 97.1689 90.7892 96.9075 91.254 96.4429C91.7188 95.9783 91.9804 95.3484 91.9813 94.6914V49.0587C91.9804 48.4017 91.7188 47.7718 91.254 47.3072C90.7892 46.8426 90.1591 46.5812 89.5018 46.5803ZM91.6896 94.6914C91.6889 95.2711 91.4582 95.827 91.048 96.2369C90.6379 96.6469 90.0818 96.8775 89.5018 96.8782H11.3226C10.7425 96.8775 10.1865 96.6469 9.77632 96.2369C9.36617 95.827 9.13544 95.2711 9.13473 94.6914V37.9786C9.13544 37.3988 9.36617 36.843 9.77632 36.433C10.1865 36.0231 10.7425 35.7924 11.3226 35.7917H23.8721C24.405 35.7913 24.9196 35.9858 25.319 36.3385L31.9759 42.2065L36.5645 46.2523C37.0187 46.65 37.6016 46.8701 38.2054 46.8719H89.5018C90.0818 46.8726 90.6379 47.1032 91.048 47.5132C91.4582 47.9231 91.6889 48.479 91.6896 49.0587V94.6914Z"
      fill="#1C1B1F" />
    <mask id="mask0_2194_3954" style="mask-type:alpha" maskUnits="userSpaceOnUse" x="32" y="54"
      width="38" height="38">
      <rect x="32.5471" y="54.2453" width="37.1292" height="37.1292" fill="#D9D9D9" />
    </mask>
    <g mask="url(#mask0_2194_3954)">
      <path
        d="M48.9457 79.9263L59.8524 69.0196L57.6866 66.8537L48.9457 75.5946L44.5366 71.1855L42.3708 73.3513L48.9457 79.9263ZM51.1116 88.2804C48.9715 88.2804 46.9604 87.8743 45.0781 87.0621C43.1959 86.2499 41.5586 85.1476 40.1662 83.7553C38.7739 82.3629 37.6716 80.7256 36.8594 78.8434C36.0472 76.9611 35.6411 74.95 35.6411 72.8099C35.6411 70.6698 36.0472 68.6586 36.8594 66.7764C37.6716 64.8941 38.7739 63.2568 40.1662 61.8645C41.5586 60.4722 43.1959 59.3699 45.0781 58.5577C46.9604 57.7455 48.9715 57.3394 51.1116 57.3394C53.2517 57.3394 55.2629 57.7455 57.1451 58.5577C59.0273 59.3699 60.6646 60.4722 62.057 61.8645C63.4493 63.2568 64.5516 64.8941 65.3638 66.7764C66.176 68.6586 66.5821 70.6698 66.5821 72.8099C66.5821 74.95 66.176 76.9611 65.3638 78.8434C64.5516 80.7256 63.4493 82.3629 62.057 83.7553C60.6646 85.1476 59.0273 86.2499 57.1451 87.0621C55.2629 87.8743 53.2517 88.2804 51.1116 88.2804ZM51.1116 85.1863C54.5667 85.1863 57.4932 83.9873 59.8911 81.5894C62.289 79.1915 63.488 76.265 63.488 72.8099C63.488 69.3548 62.289 66.4283 59.8911 64.0304C57.4932 61.6324 54.5667 60.4335 51.1116 60.4335C47.6565 60.4335 44.73 61.6324 42.3321 64.0304C39.9342 66.4283 38.7352 69.3548 38.7352 72.8099C38.7352 76.265 39.9342 79.1915 42.3321 81.5894C44.73 83.9873 47.6565 85.1863 51.1116 85.1863Z"
        fill="#B4522E" />
    </g>
    <path
      d="M99.3711 96.934H0.628931C0.462128 96.934 0.302156 96.9464 0.184209 96.9685C0.0662617 96.9906 0 97.0206 0 97.0519C0 97.0832 0.0662617 97.1131 0.184209 97.1353C0.302156 97.1574 0.462128 97.1698 0.628931 97.1698H99.3711C99.5379 97.1698 99.6979 97.1574 99.8158 97.1353C99.9337 97.1131 100 97.0832 100 97.0519C100 97.0206 99.9337 96.9906 99.8158 96.9685C99.6979 96.9464 99.5379 96.934 99.3711 96.934Z"
      fill="#1C1B1F" />
  </g>
  <defs>
    <clipPath id="clip0_2194_3954">
      <rect width="100" height="97.1698" fill="white" />
    </clipPath>
  </defs>
</svg>