<svg width="48" height="48" viewBox="0 0 48 48" fill="none" xmlns="http://www.w3.org/2000/svg">
  <mask id="mask0_2033_18229" style="mask-type:alpha" maskUnits="userSpaceOnUse" x="0" y="0"
    width="48" height="48">
    <rect width="48" height="48" fill="#D9D9D9" />
  </mask>
  <g mask="url(#mask0_2033_18229)">
    <path
      d="M22 40H13C9.96667 40 7.375 38.95 5.225 36.85C3.075 34.75 2 32.1833 2 29.15C2 26.55 2.78333 24.2333 4.35 22.2C5.91667 20.1667 7.96667 18.8667 10.5 18.3C11.3333 15.2333 13 12.75 15.5 10.85C18 8.95 20.8333 8 24 8C27.9 8 31.2083 9.35833 33.925 12.075C36.6417 14.7917 38 18.1 38 22C40.3 22.2667 42.2083 23.2583 43.725 24.975C45.2417 26.6917 46 28.7 46 31C46 33.5 45.125 35.625 43.375 37.375C41.625 39.125 39.5 40 37 40H26V25.7L29.2 28.8L32 26L24 18L16 26L18.8 28.8L22 25.7V40Z"
      fill="#1C1B1F" />
  </g>
</svg>