<?xml version="1.0" encoding="UTF-8"?>
<svg version="1.1" xmlns="http://www.w3.org/2000/svg" width="256" height="300">
<path d="M0 0 C0.85371382 -0.00322445 1.70742764 -0.00644889 2.58701158 -0.00977105 C4.00205747 -0.00744815 4.00205747 -0.00744815 5.44569016 -0.00507832 C6.44363594 -0.00734387 7.44158172 -0.00960943 8.46976829 -0.01194364 C11.83534999 -0.01830638 15.20089165 -0.01745281 18.56647873 -0.01662922 C20.97080157 -0.01961934 23.37512393 -0.02302152 25.77944565 -0.02680683 C31.64598856 -0.03474547 37.51252199 -0.0378622 43.37906918 -0.03841921 C48.14775539 -0.03889396 52.91643828 -0.04094665 57.68512344 -0.04411983 C71.20060931 -0.05293045 84.71608723 -0.05753872 98.231576 -0.05678936 C98.96068276 -0.0567494 99.68978953 -0.05670945 100.44099045 -0.05666828 C101.1709862 -0.0566274 101.90098195 -0.05658652 102.65309879 -0.0565444 C114.47944209 -0.05613809 126.30575353 -0.06570266 138.13208762 -0.07980665 C150.27077539 -0.09416903 162.40944762 -0.10107687 174.5481441 -0.10021287 C181.36482891 -0.09988079 188.18148034 -0.10263247 194.9981575 -0.11339092 C201.41011952 -0.12344555 207.82202923 -0.12316191 214.23399544 -0.11587429 C216.58903671 -0.11482641 218.94408235 -0.11720335 221.29911613 -0.12323475 C224.51122503 -0.13092896 227.72308866 -0.12632673 230.93519211 -0.11860371 C231.86963315 -0.12374727 232.8040742 -0.12889083 233.76683164 -0.13419026 C238.56407391 -0.10866035 242.4382454 0.26016779 246.94440842 2.12863445 C246.9937524 8.07344626 247.03010123 14.01813954 247.0542717 19.96310711 C247.06434512 21.98656572 247.07800437 24.01000973 247.09528732 26.03341961 C247.11947689 28.93759034 247.1308779 31.84156906 247.13972092 34.74582195 C247.15004349 35.65419811 247.16036606 36.56257427 247.17100143 37.49847698 C247.1711525 38.3391975 247.17130356 39.17991802 247.1714592 40.04611492 C247.17590042 40.78779919 247.18034164 41.52948345 247.18491745 42.293643 C246.94440842 44.12863445 246.94440842 44.12863445 244.94440842 46.12863445 C242.82866169 46.80146916 240.68422996 47.38491595 238.5308342 47.92526531 C237.53791115 48.17746948 237.53791115 48.17746948 236.52492905 48.43476868 C234.31481677 48.99434193 232.10232982 49.54386727 229.88972092 50.0934782 C228.32949785 50.48648187 226.76943186 50.88010958 225.20951462 51.27432537 C221.02891016 52.32890466 216.84617909 53.37479214 212.66285324 54.41851711 C208.35471941 55.49431489 204.04807703 56.57605071 199.74128342 57.65719891 C194.60219439 58.94689099 189.46289222 60.23570784 184.32264328 61.52077007 C174.72579863 63.92093076 165.13868404 66.35376627 155.56159592 68.83175945 C152.59259315 69.59473423 149.62329307 70.35653638 146.65382004 71.11767864 C144.86805482 71.57802881 143.08338993 72.04267172 141.2999382 72.51190472 C124.57089697 76.90838545 112.80634544 75.99265039 96.25690842 71.62863445 C94.45777897 71.16487326 92.65829366 70.70249063 90.85847092 70.24142742 C87.23664301 69.31223938 83.61649 68.37693463 79.99763107 67.43625164 C73.15823057 65.6615223 66.30187603 63.95713086 59.44440842 62.25363445 C57.56903271 61.78429662 55.69365965 61.31494809 53.81840134 60.84514141 C47.09987159 59.16231126 40.3784154 57.49148722 33.65562057 55.82577801 C29.21233278 54.7243254 24.76974347 53.62007083 20.32722092 52.51553631 C18.11904051 51.96726622 15.91054521 51.42026277 13.70173264 50.8745451 C10.60604008 50.10957209 7.51145148 49.34027583 4.41706467 48.5700407 C3.00234627 48.22216755 3.00234627 48.22216755 1.5590477 47.86726665 C0.70016449 47.6526025 -0.15871872 47.43793835 -1.04362869 47.21676922 C-1.79760437 47.02994076 -2.55158005 46.8431123 -3.32840347 46.65062237 C-5.05559158 46.12863445 -5.05559158 46.12863445 -6.05559158 45.12863445 C-6.14837488 43.74703331 -6.17306201 42.36075408 -6.16911697 40.97604656 C-6.16900368 39.65479023 -6.16900368 39.65479023 -6.16888809 38.30684185 C-6.16114616 36.87091434 -6.16114616 36.87091434 -6.15324783 35.4059782 C-6.15183289 34.43076717 -6.15041794 33.45555614 -6.14896011 32.45079327 C-6.14334291 29.32254303 -6.13078751 26.19436322 -6.11809158 23.06613445 C-6.1130788 20.95090111 -6.10851551 18.83566665 -6.10441971 16.72043133 C-6.0933679 11.52314149 -6.07661305 6.325893 -6.05559158 1.12863445 C-3.77690045 -0.01071112 -2.5309243 0.00240847 0 0 Z " fill="#F48437" transform="translate(8.055591583251953,148.87136554718018)"/>
<path d="M0 0 C3.36870186 1.6214719 6.66932974 3.36016513 9.9703064 5.11431885 C11.34756034 5.82200002 12.72581095 6.52774504 14.10507202 7.23150635 C23.99321788 12.32473034 23.99321788 12.32473034 26.4078064 14.73931885 C26.65669537 16.62244511 26.65669537 16.62244511 26.65504456 18.95930481 C26.65923904 19.84409515 26.66343353 20.7288855 26.66775513 21.64048767 C26.66213562 22.61355362 26.65651611 23.58661957 26.65072632 24.58917236 C26.65262466 25.61198303 26.65452301 26.6347937 26.65647888 27.68859863 C26.66019477 31.08188451 26.64947155 34.47495812 26.63827515 37.8682251 C26.63708378 40.21709671 26.63663009 42.5659688 26.6368866 44.9148407 C26.63532037 49.84195937 26.6270195 54.76900553 26.61361694 59.69610596 C26.5966176 66.02739444 26.59280278 72.35860321 26.59356213 78.68991184 C26.59329086 83.54101835 26.58781676 88.39210726 26.58056068 93.24320793 C26.57736764 95.57851974 26.57540513 97.91383354 26.57466698 100.24914742 C26.57251066 103.50575316 26.5637821 106.76227252 26.55307007 110.01885986 C26.55352325 110.99395004 26.55397644 111.96904022 26.55444336 112.97367859 C26.55017838 113.85564911 26.54591339 114.73761963 26.54151917 115.64631653 C26.53984332 116.4171032 26.53816748 117.18788988 26.53644085 117.98203373 C26.4078064 119.73931885 26.4078064 119.73931885 25.4078064 120.73931885 C1.94034621 124.75310417 -24.07751613 124.06389141 -47.5921936 120.73931885 C-49.12494962 119.20656283 -48.73988422 117.8044335 -48.76628113 115.66650391 C-48.77921707 114.78886887 -48.79215302 113.91123383 -48.80548096 113.00700378 C-48.81445404 112.03662674 -48.82342712 111.06624969 -48.83267212 110.06646729 C-48.84566849 109.05022781 -48.85866486 108.03398834 -48.87205505 106.98695374 C-48.99882079 96.35099809 -49.05552518 85.71423917 -49.10708618 75.07769775 C-49.13385701 70.02549654 -49.18261923 64.97423544 -49.25064087 59.92242432 C-49.33243832 53.8327827 -49.37524729 47.74403842 -49.39015007 41.65387726 C-49.40242506 39.33012871 -49.42851992 37.00641108 -49.46859932 34.68297577 C-49.52189259 31.43082721 -49.52508489 28.18223926 -49.51626587 24.92974854 C-49.54345703 23.96746841 -49.57064819 23.00518829 -49.59866333 22.01374817 C-49.5093933 15.63612555 -49.5093933 15.63612555 -46.88978386 13.07476044 C-44.83642653 11.76663985 -42.81381615 10.73028091 -40.5921936 9.73931885 C-39.25652717 9.04456723 -37.92284241 8.34597672 -36.5921936 7.6416626 C-35.26092474 6.9825285 -33.92758457 6.32756113 -32.5921936 5.67681885 C-31.9321936 5.35133057 -31.2721936 5.02584229 -30.5921936 4.69049072 C-29.25847517 4.03274872 -27.92119474 3.38218086 -26.58047485 2.73883057 C-24.5813082 1.76471316 -24.5813082 1.76471316 -22.69766235 0.60308838 C-15.00118585 -3.8506008 -8.08106036 -3.63680208 0 0 Z " fill="#9E4F25" transform="translate(139.59219360351563,2.26068115234375)"/>
<path d="M0 0 C1.03769028 -0.00137466 2.07538055 -0.00274933 3.14451599 -0.00416565 C4.85894142 0.00122726 4.85894142 0.00122726 6.60800171 0.00672913 C8.40797356 0.00651009 8.40797356 0.00651009 10.24430847 0.00628662 C13.53956391 0.00686495 16.83475712 0.01188887 20.13000154 0.01886058 C23.57199706 0.02510124 27.01399335 0.02569848 30.45599365 0.02688599 C36.97601466 0.02999719 43.49601894 0.03820776 50.01603258 0.04823548 C57.43794268 0.05940313 64.85985358 0.06490871 72.28176999 0.06993091 C87.55116812 0.08039053 102.82054956 0.09798592 118.0899353 0.12025452 C119.26720983 3.65207809 119.20987788 6.43361714 119.20346069 10.16200256 C119.20360672 10.87445129 119.20375275 11.58690002 119.2039032 12.32093811 C119.20320681 14.67464752 119.19542723 17.02827769 119.18759155 19.38197327 C119.1857264 21.01436317 119.18430296 22.64675363 119.18330383 24.27914429 C119.17948632 28.57487026 119.16966254 32.87056241 119.15859985 37.16627502 C119.14836929 41.55001874 119.14380268 45.93376793 119.13876343 50.31752014 C119.12803961 58.91844712 119.11097235 67.51934661 119.0899353 76.12025452 C114.54290944 75.59249638 110.13602226 75.00677667 105.6836853 73.92103577 C104.68981812 73.68062561 103.69595093 73.44021545 102.67196655 73.19252014 C101.65489624 72.94179749 100.63782593 72.69107483 99.5899353 72.43275452 C98.63473999 72.2013678 97.67954468 71.96998108 96.69540405 71.73158264 C88.48823569 69.73453977 80.29654384 67.67480534 72.1028595 65.62330627 C65.01630741 63.84963415 57.92749386 62.08527086 50.83728027 60.32629395 C46.26390489 59.19165861 41.6912206 58.05424907 37.11866951 56.91629696 C33.77466538 56.08424834 30.43032671 55.25358967 27.08529663 54.42567444 C23.13923912 53.44891344 19.194644 52.4663572 15.25009155 51.48353577 C14.05940567 51.18973526 12.86871979 50.89593475 11.64195251 50.5932312 C10.51885178 50.31251266 9.39575104 50.03179413 8.23861694 49.74256897 C7.26509781 49.50085464 6.29157867 49.25914032 5.28855896 49.01010132 C1.17677294 47.86621569 -2.86114722 46.46989368 -6.9100647 45.12025452 C-6.9100647 30.60025452 -6.9100647 16.08025452 -6.9100647 1.12025452 C-4.42555881 -0.12199843 -2.77990077 -0.00283086 0 0 Z " fill="#9D4F25" transform="translate(8.910064697265625,148.87974548339844)"/>
<path d="M0 0 C5.61907067 0 8.34738909 0.75120421 13.078125 3.2109375 C13.73077332 3.53913483 14.38342163 3.86733215 15.05584717 4.20547485 C16.42679975 4.89764392 17.79487423 5.59554013 19.16015625 6.29882812 C21.25166767 7.37585877 23.35132421 8.43539971 25.453125 9.4921875 C26.78696433 10.16827348 28.12031548 10.84532364 29.453125 11.5234375 C30.08019348 11.84122162 30.70726196 12.15900574 31.35333252 12.48641968 C33.91168564 13.80789406 35.95006464 14.95006464 38 17 C38.24888897 18.88312626 38.24888897 18.88312626 38.24723816 21.21998596 C38.25143265 22.10477631 38.25562714 22.98956665 38.25994873 23.90116882 C38.25432922 24.87423477 38.24870972 25.84730072 38.24291992 26.84985352 C38.24481827 27.87266418 38.24671661 28.89547485 38.24867249 29.94927979 C38.25238837 33.34256567 38.24166515 36.73563927 38.23046875 40.12890625 C38.22927739 42.47777786 38.22882369 44.82664995 38.2290802 47.17552185 C38.22751397 52.10264052 38.21921311 57.02968668 38.20581055 61.95678711 C38.1888112 68.2880756 38.18499638 74.61928436 38.18575573 80.95059299 C38.18548446 85.8016995 38.18001037 90.65278841 38.17275429 95.50388908 C38.16956124 97.83920089 38.16759874 100.1745147 38.16686058 102.50982857 C38.16470426 105.76643432 38.15597571 109.02295367 38.14526367 112.27954102 C38.14571686 113.2546312 38.14617004 114.22972137 38.14663696 115.23435974 C38.14237198 116.11633026 38.13810699 116.99830078 38.13371277 117.90699768 C38.13203692 118.67778436 38.13036108 119.44857103 38.12863445 120.24271488 C38 122 38 122 37 123 C32.57769333 123.30152091 28.49860922 122.82105059 24.125 122.125 C16.11537682 120.86032266 8.05331074 119.94744832 0 119 C0 79.73 0 40.46 0 0 Z " fill="#F38539" transform="translate(128,0)"/>
<path d="M0 0 C1.06154297 0.30228516 2.12308594 0.60457031 3.21679688 0.91601562 C4.30154297 1.23634766 5.38628906 1.55667969 6.50390625 1.88671875 C8.12522461 2.34981445 8.12522461 2.34981445 9.77929688 2.82226562 C15.93843311 4.59642555 21.97701026 6.54442009 28.06640625 8.57421875 C28.06640625 20.78421875 28.06640625 32.99421875 28.06640625 45.57421875 C22.60415676 48.46599789 17.13971245 51.3507617 11.66259766 54.21386719 C10.00394752 55.08296617 8.34717262 55.95565967 6.69287109 56.83300781 C4.55248549 57.96689424 2.40453539 59.08491377 0.25390625 60.19921875 C-0.70322266 60.71258789 -0.70322266 60.71258789 -1.6796875 61.23632812 C-5.67557924 63.28103443 -8.48056754 63.91504008 -12.93359375 63.57421875 C-15.55151367 62.56787109 -15.55151367 62.56787109 -18.1640625 61.16015625 C-19.6171582 60.38865234 -19.6171582 60.38865234 -21.09960938 59.6015625 C-22.09669922 59.05628906 -23.09378906 58.51101563 -24.12109375 57.94921875 C-25.09884766 57.42714844 -26.07660156 56.90507812 -27.08398438 56.3671875 C-29.05070118 55.31428557 -31.01283167 54.25277071 -32.97021484 53.18261719 C-34.99846572 52.08176723 -37.03861531 51.00263818 -39.08837891 49.94238281 C-40.08530762 49.4212793 -41.08223633 48.90017578 -42.109375 48.36328125 C-43.01212158 47.89873535 -43.91486816 47.43418945 -44.8449707 46.95556641 C-46.93359375 45.57421875 -46.93359375 45.57421875 -47.93359375 42.57421875 C-48.04194797 40.08425706 -48.09760403 37.62308559 -48.1015625 35.1328125 C-48.1048909 34.40933121 -48.1082193 33.68584991 -48.11164856 32.94044495 C-48.11670548 31.41318395 -48.11905727 29.88591194 -48.11889648 28.35864258 C-48.12108889 26.01690661 -48.13927323 23.67563738 -48.15820312 21.33398438 C-48.16113607 19.85026203 -48.16312153 18.36653745 -48.1640625 16.8828125 C-48.17124802 16.18071152 -48.17843353 15.47861053 -48.18583679 14.75523376 C-48.16242739 9.80305239 -48.16242739 9.80305239 -45.93359375 7.57421875 C-43.63120429 6.77591397 -41.36205607 6.06771891 -39.01953125 5.41015625 C-37.98682602 5.11475449 -37.98682602 5.11475449 -36.93325806 4.81338501 C-35.4732373 4.39821372 -34.01221492 3.98655125 -32.55029297 3.578125 C-30.33445022 2.95647275 -28.12434357 2.31688624 -25.9140625 1.67578125 C-24.49119912 1.27362802 -23.06803054 0.87255273 -21.64453125 0.47265625 C-20.9921347 0.28206635 -20.33973816 0.09147644 -19.66757202 -0.10488892 C-12.85343077 -1.97329471 -6.81410456 -1.97029466 0 0 Z " fill="#F38438" transform="translate(137.93359375,236.42578125)"/>
<path d="M0 0 C0.98943604 0.18208008 1.97887207 0.36416016 2.99829102 0.55175781 C6.17552257 1.15993913 9.33705368 1.82167205 12.5 2.5 C13.5828125 2.72558594 14.665625 2.95117188 15.78125 3.18359375 C23.72226732 4.86113366 23.72226732 4.86113366 26 6 C27.09098974 9.05317247 27.09865321 11.90286148 27.03759766 15.11987305 C27.02072906 16.13740158 27.00386047 17.15493011 26.98648071 18.20329285 C26.9625827 19.29507339 26.93868469 20.38685394 26.9140625 21.51171875 C26.89282318 22.63568558 26.87158386 23.7596524 26.84970093 24.91767883 C26.80347653 27.29063098 26.75455138 29.66353184 26.703125 32.03637695 C26.62508243 35.68364789 26.55804564 39.33100657 26.4921875 42.97851562 C26.44597102 45.28126331 26.39911804 47.58399833 26.3515625 49.88671875 C26.33171295 50.98457199 26.3118634 52.08242523 26.29141235 53.21354675 C26.26823944 54.2216188 26.24506653 55.22969086 26.22119141 56.26831055 C26.19335068 57.60589668 26.19335068 57.60589668 26.16494751 58.97050476 C26 61 26 61 25 62 C11.22555266 64.40452635 -2.95524811 64.14148754 -16.875 63.6875 C-17.61331055 63.66439758 -18.35162109 63.64129517 -19.11230469 63.61749268 C-31.58519764 63.20740118 -31.58519764 63.20740118 -34 62 C-34.21876141 54.79223911 -34.41373987 47.58411872 -34.59204102 40.37524414 C-34.65554515 37.92197042 -34.72453246 35.46883235 -34.79907227 33.01586914 C-34.90515249 29.49386346 -34.9916286 25.9718437 -35.07421875 22.44921875 C-35.11157639 21.34913986 -35.14893402 20.24906097 -35.18742371 19.11564636 C-35.20767105 18.09481461 -35.2279184 17.07398285 -35.2487793 16.0222168 C-35.27320602 15.12286911 -35.29763275 14.22352142 -35.32279968 13.29692078 C-34.93051277 10.50555509 -34.19464944 9.70483685 -32 8 C-28.59044439 6.16836116 -25.00742372 4.74001425 -21.4375 3.25 C-20.48552734 2.82589844 -19.53355469 2.40179688 -18.55273438 1.96484375 C-11.84562112 -0.83853783 -7.09257843 -1.43590043 0 0 Z " fill="#F38539" transform="translate(36,69)"/>
<path d="M0 0 C0.90556641 0.26490234 1.81113281 0.52980469 2.74414062 0.80273438 C3.60845703 1.06248047 4.47277344 1.32222656 5.36328125 1.58984375 C6.14614502 1.82437256 6.92900879 2.05890137 7.7355957 2.30053711 C9.6875 3.0625 9.6875 3.0625 11.6875 5.0625 C11.86245606 7.57170846 11.91919569 9.96874941 11.8828125 12.4765625 C11.8799826 13.20620209 11.87715271 13.93584167 11.87423706 14.68759155 C11.86303002 17.02106028 11.8379251 19.35414703 11.8125 21.6875 C11.80247085 23.26822363 11.79334489 24.84895327 11.78515625 26.4296875 C11.76308905 30.30743914 11.72855615 34.18490478 11.6875 38.0625 C7.37412944 39.91168325 3.53098586 40.4854808 -1.125 40.6875 C-1.87563721 40.72399658 -2.62627441 40.76049316 -3.3996582 40.7980957 C-15.06751105 41.32082922 -26.5479033 41.18173299 -38.1875 40.25 C-39.15776123 40.17998779 -40.12802246 40.10997559 -41.12768555 40.0378418 C-42.03172119 39.95703369 -42.93575684 39.87622559 -43.8671875 39.79296875 C-45.08124268 39.69085083 -45.08124268 39.69085083 -46.31982422 39.58666992 C-48.3125 39.0625 -48.3125 39.0625 -50.3125 36.0625 C-50.5077426 33.5440546 -50.5926857 31.13899002 -50.578125 28.62109375 C-50.58003845 27.89761246 -50.5819519 27.17413116 -50.58392334 26.4287262 C-50.58528285 24.9014552 -50.58160274 23.37417255 -50.57324219 21.84692383 C-50.56252338 19.50510842 -50.57315291 17.16405742 -50.5859375 14.82226562 C-50.58461617 13.33853997 -50.58205432 11.85481479 -50.578125 10.37109375 C-50.58217346 9.66899277 -50.58622192 8.96689178 -50.59039307 8.24351501 C-50.54243553 3.29243553 -50.54243553 3.29243553 -48.3125 1.0625 C-46.08762821 0.53521401 -43.83798381 0.11079036 -41.58203125 -0.26171875 C-40.91338547 -0.37224075 -40.24473969 -0.48276276 -39.55583191 -0.59663391 C-38.13839095 -0.82837513 -36.72025536 -1.05590096 -35.30151367 -1.27954102 C-33.14839781 -1.62128627 -30.999203 -1.98254105 -28.84960938 -2.34570312 C-27.46894318 -2.5689066 -26.08808857 -2.79094826 -24.70703125 -3.01171875 C-22.83301636 -3.31468872 -22.83301636 -3.31468872 -20.92114258 -3.6237793 C-13.5649729 -4.26329476 -6.95345712 -2.10879391 0 0 Z " fill="#9C4F24" transform="translate(243.3125,91.9375)"/>
<path d="M0 0 C-0.33 0.66 -0.66 1.32 -1 2 C-1.09101612 3.8485708 -1.11753146 5.70046379 -1.11352539 7.55126953 C-1.11341209 9.29284836 -1.11341209 9.29284836 -1.11329651 11.0696106 C-1.10813522 12.32796722 -1.10297394 13.58632385 -1.09765625 14.8828125 C-1.0962413 16.16735321 -1.09482635 17.45189392 -1.09336853 18.77536011 C-1.08954911 22.19156842 -1.07972373 25.60773426 -1.06866455 29.02392578 C-1.05843807 32.50943426 -1.05386826 35.9949496 -1.04882812 39.48046875 C-1.03810095 46.32033171 -1.02050879 53.16015945 -1 60 C4.28 60 9.56 60 15 60 C15 60.99 15 61.98 15 63 C7.48774514 64.11231177 0.19272723 63.99494844 -7.38647461 63.703125 C-9.45731334 63.6242453 -11.52830418 63.55754836 -13.59960938 63.4921875 C-23.73570267 63.13214867 -23.73570267 63.13214867 -26 62 C-26.21876141 54.79223911 -26.41373987 47.58411872 -26.59204102 40.37524414 C-26.65554515 37.92197042 -26.72453246 35.46883235 -26.79907227 33.01586914 C-26.90515249 29.49386346 -26.9916286 25.9718437 -27.07421875 22.44921875 C-27.11157639 21.34913986 -27.14893402 20.24906097 -27.18742371 19.11564636 C-27.20767105 18.09481461 -27.2279184 17.07398285 -27.2487793 16.0222168 C-27.27320602 15.12286911 -27.29763275 14.22352142 -27.32279968 13.29692078 C-26.93021373 10.50342723 -26.20121996 9.70161708 -24 8 C-20.41660181 6.17993281 -16.66463797 4.75032094 -12.9375 3.25 C-11.91849609 2.82589844 -10.89949219 2.40179688 -9.84960938 1.96484375 C-8.87701172 1.56910156 -7.90441406 1.17335938 -6.90234375 0.765625 C-6.01023193 0.40243164 -5.11812012 0.03923828 -4.19897461 -0.33496094 C-2 -1 -2 -1 0 0 Z " fill="#9D4F24" transform="translate(28,69)"/>
<path d="M0 0 C3.56474694 0.39809357 6.74402743 1.55171418 10.0625 2.875 C11.31740234 3.36613281 11.31740234 3.36613281 12.59765625 3.8671875 C15 5 15 5 16.796875 6.46875 C20.00100506 8.69573401 23.46374751 9.55255928 27.1875 10.625 C34.88894052 12.88894052 34.88894052 12.88894052 36 14 C36.08874135 17.10251201 36.11518455 20.1826812 36.09765625 23.28515625 C36.0962413 24.21597519 36.09482635 25.14679413 36.09336853 26.1058197 C36.08775172 29.09141191 36.0751964 32.07693029 36.0625 35.0625 C36.05748716 37.08137913 36.05292388 39.10025943 36.04882812 41.11914062 C36.03777683 46.07945572 36.02050095 51.03971532 36 56 C32.58214349 55.43110285 29.86138301 54.59906859 26.8125 52.9609375 C26.03696777 52.54851807 25.26143555 52.13609863 24.46240234 51.71118164 C23.64980957 51.2702417 22.8372168 50.82930176 22 50.375 C20.74437256 49.70102173 20.74437256 49.70102173 19.46337891 49.01342773 C17.77291158 48.10570409 16.08360563 47.19581406 14.39550781 46.28369141 C12.24047353 45.12886362 10.07471777 44.0008314 7.8984375 42.88671875 C6.73570313 42.28472656 5.57296875 41.68273437 4.375 41.0625 C3.35148437 40.53785156 2.32796875 40.01320313 1.2734375 39.47265625 C-1 38 -1 38 -2 35 C-2.10835422 32.51003831 -2.16401028 30.04886684 -2.16796875 27.55859375 C-2.17129715 26.83511246 -2.17462555 26.11163116 -2.17805481 25.3662262 C-2.18311173 23.8389652 -2.18546352 22.31169319 -2.18530273 20.78442383 C-2.18749514 18.44268786 -2.20567948 16.10141863 -2.22460938 13.75976562 C-2.22754232 12.27604328 -2.22952778 10.7923187 -2.23046875 9.30859375 C-2.23765427 8.60649277 -2.24483978 7.90439178 -2.25224304 7.18101501 C-2.22883364 2.22883364 -2.22883364 2.22883364 0 0 Z " fill="#9D4F25" transform="translate(92,244)"/>
<path d="M0 0 C3.96139848 1.11439386 7.91851606 2.2432929 11.875 3.375 C13.00292969 3.69210938 14.13085938 4.00921875 15.29296875 4.3359375 C16.90751953 4.8 16.90751953 4.8 18.5546875 5.2734375 C19.54968262 5.55622559 20.54467773 5.83901367 21.56982422 6.13037109 C24 7 24 7 26 9 C26.17495606 11.50920846 26.23169569 13.90624941 26.1953125 16.4140625 C26.1924826 17.14370209 26.18965271 17.87334167 26.18673706 18.62509155 C26.17553002 20.95856028 26.1504251 23.29164703 26.125 25.625 C26.11497085 27.20572363 26.10584489 28.78645327 26.09765625 30.3671875 C26.07558905 34.24493914 26.04105615 38.12240478 26 42 C22.27877851 43.57200631 19.49598881 44.27257852 15.4375 44.25 C14.50808594 44.25515625 13.57867187 44.2603125 12.62109375 44.265625 C10 44 10 44 8.09765625 43.046875 C5.16570317 41.5836284 2.22886335 41.41650676 -1 41 C-1.02467609 35.48242521 -1.04284856 29.96488239 -1.05493164 24.44726562 C-1.05996763 22.56933025 -1.06679671 20.6913988 -1.07543945 18.81347656 C-1.08753713 16.11782868 -1.09323557 13.42223253 -1.09765625 10.7265625 C-1.10281754 9.88380768 -1.10797882 9.04105286 -1.11329651 8.17276001 C-1.11387171 2.22774341 -1.11387171 2.22774341 0 0 Z " fill="#F68535" transform="translate(229,88)"/>
<path d="M0 0 C1.68416016 0.47566406 1.68416016 0.47566406 3.40234375 0.9609375 C12.38315512 3.53608054 12.38315512 3.53608054 16.25 5.625 C15.92 6.285 15.59 6.945 15.25 7.625 C14.26 7.625 13.27 7.625 12.25 7.625 C12.25 8.285 12.25 8.945 12.25 9.625 C11.25033203 9.86283203 11.25033203 9.86283203 10.23046875 10.10546875 C2.43193521 12.07964297 -4.57027245 15.03513623 -11.75 18.625 C-20.56923712 19.9005095 -30.64985826 17.3136634 -37.8671875 12.09375 C-38.48851563 11.6090625 -39.10984375 11.124375 -39.75 10.625 C-41.31222667 9.85164607 -42.8965603 9.12131987 -44.5 8.4375 C-45.29921875 8.09332031 -46.0984375 7.74914062 -46.921875 7.39453125 C-47.52515625 7.14058594 -48.1284375 6.88664063 -48.75 6.625 C-48.75 5.965 -48.75 5.305 -48.75 4.625 C-44.91289114 3.47172028 -41.07177134 2.3330187 -37.2265625 1.20703125 C-35.92202846 0.8228898 -34.61860773 0.43494455 -33.31640625 0.04296875 C-20.52160336 -3.80332169 -12.82280056 -3.7617529 0 0 Z " fill="#F9BE93" transform="translate(144.75,238.375)"/>
<path d="M0 0 C0.66 0.33 1.32 0.66 2 1 C0 3 0 3 -2 5 C-2.7115625 5.7734375 -2.7115625 5.7734375 -3.4375 6.5625 C-5 8 -5 8 -7.625 9.375 C-10.14977705 10.74266477 -10.14977705 10.74266477 -10.63560486 13.03251648 C-11.13058701 17.06344664 -11.17789735 21.04664052 -11.20532227 25.10473633 C-11.21522186 26.01254852 -11.22512146 26.92036072 -11.23532104 27.85568237 C-11.26683635 30.84777239 -11.29165401 33.83987828 -11.31640625 36.83203125 C-11.33698439 38.90997219 -11.35798108 40.98790902 -11.37937927 43.06584167 C-11.43451114 48.52872386 -11.48395956 53.99164327 -11.53222656 59.45458984 C-11.58250651 65.03160913 -11.63815866 70.60857451 -11.69335938 76.18554688 C-11.80083226 87.12365185 -11.90230131 98.06180366 -12 109 C-11.40246414 109.00808685 -10.80492828 109.01617371 -10.18928528 109.02450562 C-3.90992727 109.11127772 2.36914102 109.21080272 8.64819336 109.31738281 C10.98440646 109.35541456 13.320673 109.39030992 15.65698242 109.421875 C40.57461064 109.76270172 40.57461064 109.76270172 51 112 C51 112.66 51 113.32 51 114 C41.76572805 114.94484662 32.59063134 115.19978783 23.3125 115.1875 C22.61088745 115.18756042 21.9092749 115.18762085 21.18640137 115.18768311 C-5.69054246 115.15472877 -5.69054246 115.15472877 -14 111 C-14 76.68 -14 42.36 -14 7 C-7.25 3.625 -7.25 3.625 -3 4 C-2.67 3.01 -2.34 2.02 -2 1 C-1.34 0.67 -0.68 0.34 0 0 Z " fill="#954417" transform="translate(107,10)"/>
<path d="M0 0 C27.06 0.33 54.12 0.66 82 1 C81.67 1.66 81.34 2.32 81 3 C80.0626149 2.99777939 79.1252298 2.99555878 78.15943909 2.99327087 C69.34478215 2.97303857 60.5301299 2.95802744 51.71545506 2.94818783 C47.18325906 2.94295922 42.65108173 2.93586199 38.11889648 2.92456055 C33.7487717 2.91373086 29.37866492 2.90772299 25.00852776 2.90512276 C23.33749037 2.90326865 21.66645403 2.89964832 19.99542427 2.89426994 C17.66302449 2.88705841 15.33070007 2.8860091 12.99829102 2.88647461 C12.3005809 2.88287933 11.60287079 2.87928406 10.88401794 2.87557983 C7.66340619 2.60937534 7.66340619 2.60937534 5 4 C4.91144839 6.6662603 4.88475327 9.30647114 4.90234375 11.97265625 C4.9037587 12.77029892 4.90517365 13.56794159 4.90663147 14.38975525 C4.91224684 16.94737435 4.92480188 19.50490718 4.9375 22.0625 C4.94251302 23.79231645 4.94707627 25.52213426 4.95117188 27.25195312 C4.96222125 31.50133553 4.97949614 35.75065312 5 40 C8.3 40.33 11.6 40.66 15 41 C15.33 41.99 15.66 42.98 16 44 C17.485 43.505 17.485 43.505 19 43 C21.02045442 43.60183749 23.02111039 44.27306096 25 45 C27.56836124 45.7338175 29.28640069 46 32 46 C32.33 46.99 32.66 47.98 33 49 C32.505 49.99 32.505 49.99 32 51 C24.21072797 49.37054848 16.43984452 47.6715463 8.6875 45.875 C7.94056885 45.70452148 7.1936377 45.53404297 6.42407227 45.35839844 C1.11691479 44.11691479 1.11691479 44.11691479 0 43 C-0.09268999 41.64905018 -0.11747326 40.29332909 -0.11352539 38.93920898 C-0.11340454 38.06631226 -0.11328369 37.19341553 -0.11315918 36.29406738 C-0.10804321 35.37073608 -0.10292725 34.44740479 -0.09765625 33.49609375 C-0.09664917 32.6517981 -0.09564209 31.80750244 -0.09460449 30.93762207 C-0.0893557 27.77090098 -0.07539456 24.60419919 -0.0625 21.4375 C-0.041875 14.363125 -0.02125 7.28875 0 0 Z " fill="#96451A" transform="translate(2,151)"/>
<path d="M0 0 C1.03769028 -0.00137466 2.07538055 -0.00274933 3.14451599 -0.00416565 C4.85894142 0.00122726 4.85894142 0.00122726 6.60800171 0.00672913 C8.40797356 0.00651009 8.40797356 0.00651009 10.24430847 0.00628662 C13.53956391 0.00686495 16.83475712 0.01188887 20.13000154 0.01886058 C23.57199706 0.02510124 27.01399335 0.02569848 30.45599365 0.02688599 C36.97601466 0.02999719 43.49601894 0.03820776 50.01603258 0.04823548 C57.43794268 0.05940313 64.85985358 0.06490871 72.28176999 0.06993091 C87.55116812 0.08039053 102.82054956 0.09798592 118.0899353 0.12025452 C119.24183996 3.57596848 119.21000624 6.24074477 119.20346069 9.88661194 C119.20360672 10.56979996 119.20375275 11.25298798 119.2039032 11.95687866 C119.20320699 14.21319259 119.19542826 16.46942378 119.18759155 18.72572327 C119.18572634 20.29085241 119.18430292 21.85598213 119.18330383 23.42111206 C119.17948682 27.53928745 119.16966348 31.65742754 119.15859985 35.77558899 C119.14836821 39.97836327 119.14380245 44.18114325 119.13876343 48.38392639 C119.12804049 56.62938529 119.11097385 64.87481551 119.0899353 73.12025452 C118.7599353 73.12025452 118.4299353 73.12025452 118.0899353 73.12025452 C117.7599353 50.02025452 117.4299353 26.92025452 117.0899353 3.12025452 C76.4999353 3.12025452 35.9099353 3.12025452 -5.9100647 3.12025452 C-6.2400647 2.46025452 -6.5700647 1.80025452 -6.9100647 1.12025452 C-4.42555881 -0.12199843 -2.77990077 -0.00283086 0 0 Z " fill="#A45834" transform="translate(8.910064697265625,148.87974548339844)"/>
<path d="M0 0 C-1 3 -1 3 -3 4.0625 C-3.66 4.371875 -4.32 4.68125 -5 5 C-5.33 5.66 -5.66 6.32 -6 7 C-11.445 8.485 -11.445 8.485 -17 10 C-17 44.32 -17 78.64 -17 114 C-15.35 114 -13.7 114 -12 114 C-12.495 114.99 -12.495 114.99 -13 116 C-14.66611905 116.042721 -16.33382885 116.04063832 -18 116 C-19.53275602 114.46724398 -19.14769061 113.06511465 -19.17408752 110.92718506 C-19.18702347 110.04955002 -19.19995941 109.17191498 -19.21328735 108.26768494 C-19.22226044 107.29730789 -19.23123352 106.32693085 -19.24047852 105.32714844 C-19.25347488 104.31090897 -19.26647125 103.29466949 -19.27986145 102.24763489 C-19.40662719 91.61167924 -19.46333158 80.97492032 -19.51489258 70.33837891 C-19.54166341 65.2861777 -19.59042563 60.23491659 -19.65844727 55.18310547 C-19.74024471 49.09346386 -19.78305369 43.00471957 -19.79795647 36.91455841 C-19.81023146 34.59080986 -19.83632632 32.26709223 -19.87640572 29.94365692 C-19.92969898 26.69150837 -19.93289129 23.44292042 -19.92407227 20.19042969 C-19.95126343 19.22814957 -19.97845459 18.26586945 -20.00646973 17.27442932 C-19.96926471 14.61643107 -19.86281528 12.5160152 -19 10 C-16.59554251 7.68647977 -14.02256789 6.35915885 -11 5 C-9.67355469 4.21689453 -9.67355469 4.21689453 -8.3203125 3.41796875 C-7.59585938 3.01191406 -6.87140625 2.60585937 -6.125 2.1875 C-5.01511719 1.55908203 -5.01511719 1.55908203 -3.8828125 0.91796875 C-2 0 -2 0 0 0 Z " fill="#944F30" transform="translate(110,7)"/>
<path d="M0 0 C1.09136765 -0.00095673 2.18273529 -0.00191345 3.30717468 -0.00289917 C5.60069843 -0.00357659 7.89422413 -0.00175298 10.18774414 0.00244141 C13.70528421 0.00782178 17.2226981 0.00246832 20.74023438 -0.00390625 C22.97265653 -0.0032459 25.20507861 -0.00196562 27.4375 0 C29.01716301 -0.00303635 29.01716301 -0.00303635 30.6287384 -0.00613403 C31.60372787 -0.00298187 32.57871735 0.00017029 33.58325195 0.00341797 C34.44070511 0.00421356 35.29815826 0.00500916 36.18159485 0.00582886 C38.38671875 0.1328125 38.38671875 0.1328125 41.38671875 1.1328125 C41.38671875 1.7928125 41.38671875 2.4528125 41.38671875 3.1328125 C32.15494456 4.07740355 22.97117488 4.33014143 13.69921875 4.3203125 C12.99893555 4.3210376 12.29865234 4.3217627 11.57714844 4.32250977 C1.06589687 4.32130821 -9.2273736 3.88465234 -19.61328125 2.1328125 C-19.61328125 1.8028125 -19.61328125 1.4728125 -19.61328125 1.1328125 C-13.04445724 0.14633785 -6.6364089 -0.01287995 0 0 Z " fill="#643314" transform="translate(116.61328125,120.8671875)"/>
<path d="M0 0 C1.65 0 3.3 0 5 0 C5 33.33 5 66.66 5 101 C4.67 101 4.34 101 4 101 C2.90035805 91.34547126 2.91788106 81.77879409 3.01653099 72.08128166 C3.04348716 69.286088 3.06115229 66.49097687 3.07600403 63.69569397 C3.11847377 55.75799977 3.16694293 47.82047295 3.24682617 39.88305664 C3.29524017 35.00631523 3.32430373 30.12979019 3.34057045 25.25284004 C3.35047584 23.39919295 3.36769781 21.54557003 3.39235497 19.69206047 C3.42596772 17.11206023 3.4349772 14.53307221 3.43823242 11.95288086 C3.45418457 11.18770645 3.47013672 10.42253204 3.48657227 9.63417053 C3.51840016 7.26848627 3.51840016 7.26848627 3 4 C1.13264463 1.95908212 1.13264463 1.95908212 -1 1 C-0.67 0.67 -0.34 0.34 0 0 Z " fill="#F17E2C" transform="translate(158,15)"/>
<path d="M0 0 C0.66 0 1.32 0 2 0 C2.33 0.99 2.66 1.98 3 3 C2.34 3 1.68 3 1 3 C1 13.23 1 23.46 1 34 C1.99 34.33 2.98 34.66 4 35 C4.99 35.66 5.98 36.32 7 37 C8.44746609 37.34153694 9.90815665 37.62969173 11.375 37.875 C15.55357076 38.72556529 17.75408391 40.19272122 21 43 C24.17921787 44.25556887 24.17921787 44.25556887 27 45 C27 45.66 27 46.32 27 47 C28.32 47.33 29.64 47.66 31 48 C31 48.66 31 49.32 31 50 C31.99 49.67 32.98 49.34 34 49 C34 50.32 34 51.64 34 53 C27.77429549 50.60969517 21.83670884 47.60494682 15.86035156 44.66015625 C14.44908214 43.96790933 13.03497936 43.28141015 11.61816406 42.60058594 C9.56673085 41.6142652 7.52496823 40.61008198 5.484375 39.6015625 C4.53132477 39.14978134 4.53132477 39.14978134 3.559021 38.68887329 C-0.7960568 36.50127786 -0.7960568 36.50127786 -1.90527344 33.77490234 C-1.9365332 33.18918457 -1.96779297 32.6034668 -2 32 C-1.34 32 -0.68 32 0 32 C0 21.44 0 10.88 0 0 Z " fill="#8F421B" transform="translate(93,247)"/>
<path d="M0 0 C4.62 1.32 9.24 2.64 14 4 C14 4.33 14 4.66 14 5 C12.741875 5.020625 11.48375 5.04125 10.1875 5.0625 C9.47980469 5.07410156 8.77210938 5.08570312 8.04296875 5.09765625 C6 5 6 5 3 4 C3 5.32 3 6.64 3 8 C4.65 8 6.3 8 8 8 C8 8.99 8 9.98 8 11 C7.01 11 6.02 11 5 11 C2.42003482 16.87094438 2.77447574 22.59609985 2.875 28.875 C2.88402344 29.94492188 2.89304688 31.01484375 2.90234375 32.1171875 C2.92580658 34.74502439 2.95863541 37.37239406 3 40 C2.01 40 1.02 40 0 40 C0 26.8 0 13.6 0 0 Z " fill="#EC863E" transform="translate(229,88)"/>
<path d="M0 0 C3.62747486 0.40099637 6.87131129 1.59715193 10.25 2.9375 C11.12140625 3.27652344 11.9928125 3.61554688 12.890625 3.96484375 C15 5 15 5 16 7 C10.92576476 5.98515295 5.95648753 4.48694626 1 3 C1 13.56 1 24.12 1 35 C0.01 35 -0.98 35 -2 35 C-2.04937279 30.33692986 -2.08570627 25.67401127 -2.10986328 21.01074219 C-2.11993188 19.42380117 -2.13358767 17.83687875 -2.15087891 16.25 C-2.17509001 13.97130753 -2.18647422 11.69285994 -2.1953125 9.4140625 C-2.20563507 8.70255035 -2.21595764 7.99103821 -2.22659302 7.25796509 C-2.22699422 5.50368335 -2.12202209 3.75003291 -2 2 C-1.34 1.34 -0.68 0.68 0 0 Z " fill="#98573D" transform="translate(92,244)"/>
<path d="M0 0 C0.33 0 0.66 0 1 0 C1 19.47 1 38.94 1 59 C9.91 59 18.82 59 28 59 C29.65 59.33 31.3 59.66 33 60 C33 60.66 33 61.32 33 62 C27.29309366 62.99250545 21.78591511 63.10477512 16 63 C16 62.01 16 61.02 16 60 C10.72 60 5.44 60 0 60 C-0.15302671 52.32472143 -0.30179083 44.64938327 -0.4429636 36.97387791 C-0.50868172 33.41017974 -0.57629855 29.84653832 -0.64819336 26.28295898 C-0.73068566 22.19003366 -0.80502956 18.09699621 -0.87890625 14.00390625 C-0.90594131 12.71851456 -0.93297638 11.43312286 -0.96083069 10.10877991 C-0.98092697 8.92763107 -1.00102325 7.74648224 -1.02172852 6.52954102 C-1.04171402 5.48363297 -1.06169952 4.43772491 -1.08229065 3.36012268 C-1 1 -1 1 0 0 Z " fill="#CB6C2E" transform="translate(27,69)"/>
<path d="M0 0 C0.78375 0.04125 1.5675 0.0825 2.375 0.125 C2.705 0.785 3.035 1.445 3.375 2.125 C1.725 2.125 0.075 2.125 -1.625 2.125 C-1.61976318 3.08390137 -1.61452637 4.04280273 -1.60913086 5.03076172 C-1.59105321 8.58283559 -1.57955785 12.13490537 -1.57006836 15.68701172 C-1.56503448 17.22543013 -1.55820692 18.76384375 -1.54956055 20.30224609 C-1.53745361 22.51140526 -1.53176231 24.72050126 -1.52734375 26.9296875 C-1.52218246 27.61932587 -1.51702118 28.30896423 -1.51170349 29.01950073 C-1.51112829 33.89725659 -1.51112829 33.89725659 -2.625 36.125 C-0.975 36.125 0.675 36.125 2.375 36.125 C1.715 36.785 1.055 37.445 0.375 38.125 C-1.6875 37.875 -1.6875 37.875 -3.625 37.125 C-5.12044542 34.13410916 -4.78779298 31.06132814 -4.79296875 27.78125 C-4.79629715 27.05635376 -4.79962555 26.33145752 -4.80305481 25.58459473 C-4.80811925 24.05135737 -4.81046328 22.51810899 -4.81030273 20.98486328 C-4.81249138 18.63425657 -4.83065751 16.28411751 -4.84960938 13.93359375 C-4.85254292 12.44531411 -4.85452798 10.95703223 -4.85546875 9.46875 C-4.86265427 8.76351196 -4.86983978 8.05827393 -4.87724304 7.33166504 C-4.84384159 0.23065912 -4.84384159 0.23065912 0 0 Z " fill="#A05533" transform="translate(197.625,92.875)"/>
<path d="M0 0 C1.32 0.33 2.64 0.66 4 1 C3.67 16.84 3.34 32.68 3 49 C2.34 49 1.68 49 1 49 C0.67 35.8 0.34 22.6 0 9 C-0.66 8.67 -1.32 8.34 -2 8 C-1.125 1.125 -1.125 1.125 0 0 Z " fill="#95441A" transform="translate(3,80)"/>
<path d="M0 0 C1.06605469 -0.01224609 2.13210937 -0.02449219 3.23046875 -0.03710938 C4.25527344 -0.03904297 5.28007812 -0.04097656 6.3359375 -0.04296875 C7.25681152 -0.04707764 8.17768555 -0.05118652 9.12646484 -0.05541992 C11.74451774 0.1991201 13.37637034 0.85996009 15.625 2.1875 C15.625 2.5175 15.625 2.8475 15.625 3.1875 C4.40527511 5.36911317 -9.05578803 4.92639343 -20.375 3.1875 C-21.035 2.5275 -21.695 1.8675 -22.375 1.1875 C-14.90343001 0.28295914 -7.5225605 0.0046493 0 0 Z " fill="#793F22" transform="translate(223.375,128.8125)"/>
<path d="M0 0 C0.33 0 0.66 0 1 0 C1 12.54 1 25.08 1 38 C8.15018443 37.96045433 8.15018443 37.96045433 15.30029297 37.90991211 C16.18861816 37.90741455 17.07694336 37.90491699 17.9921875 37.90234375 C18.90339355 37.89710693 19.81459961 37.89187012 20.75341797 37.88647461 C23 38 23 38 25 39 C25.33 38.34 25.66 37.68 26 37 C26 38.32 26 39.64 26 41 C22.7865962 41.94734782 19.84527553 42.16452421 16.5 42.1875 C15.09234375 42.20876953 15.09234375 42.20876953 13.65625 42.23046875 C10.85701984 41.98759437 9.47619381 41.24271667 7 40 C4.69 39.67 2.38 39.34 0 39 C0 26.13 0 13.26 0 0 Z " fill="#D6742F" transform="translate(228,90)"/>
<path d="M0 0 C2.475 0.495 2.475 0.495 5 1 C5.04934399 6.94481181 5.08569282 12.88950509 5.10986328 18.83447266 C5.11993671 20.85793127 5.13359595 22.88137528 5.15087891 24.90478516 C5.17506847 27.80895589 5.18646949 30.71293461 5.1953125 33.6171875 C5.20563507 34.52556366 5.21595764 35.43393982 5.22659302 36.36984253 C5.22674408 37.21056305 5.22689514 38.05128357 5.22705078 38.91748047 C5.231492 39.65916473 5.23593323 40.400849 5.24050903 41.16500854 C5 43 5 43 3 45 C1.12060547 45.59423828 1.12060547 45.59423828 -1.1328125 46.0703125 C-1.93847656 46.24433594 -2.74414062 46.41835937 -3.57421875 46.59765625 C-4.41597656 46.77167969 -5.25773438 46.94570312 -6.125 47.125 C-6.97449219 47.30675781 -7.82398438 47.48851562 -8.69921875 47.67578125 C-10.79806785 48.12385016 -12.89886134 48.56279337 -15 49 C-13.70525365 46.41050731 -12.67336607 46.03964236 -10 45 C-7.25 44.875 -7.25 44.875 -5 45 C-5 44.34 -5 43.68 -5 43 C-5.66 42.67 -6.32 42.34 -7 42 C-5.5422647 41.664061 -4.08378894 41.33133376 -2.625 41 C-1.81289062 40.814375 -1.00078125 40.62875 -0.1640625 40.4375 C2 40 2 40 4 40 C3.93127642 34.62437333 3.84338684 29.24953601 3.73754883 23.87451172 C3.70424974 22.0451735 3.67623343 20.2157313 3.65356445 18.38623047 C3.62010923 15.75963944 3.56780037 13.13400559 3.51171875 10.5078125 C3.50532883 9.68693146 3.4989389 8.86605042 3.49235535 8.02029419 C3.46057783 5.47385626 3.46057783 5.47385626 3 2 C2.01 1.34 1.02 0.68 0 0 Z " fill="#E6813E" transform="translate(250,150)"/>
<path d="M0 0 C1.94229492 0.00676758 1.94229492 0.00676758 3.92382812 0.01367188 C7.095101 0.02537399 10.26627546 0.04176887 13.4375 0.0625 C13.4375 1.0525 13.4375 2.0425 13.4375 3.0625 C5.36024897 4.25945817 -2.48337022 3.97409896 -10.625 3.625 C-11.98109576 3.57165126 -13.33721565 3.51891226 -14.69335938 3.46679688 C-17.98335957 3.33800683 -21.27298617 3.20308296 -24.5625 3.0625 C-24.2325 2.4025 -23.9025 1.7425 -23.5625 1.0625 C-15.75419166 -0.26532997 -7.8988933 -0.05252461 0 0 Z " fill="#7F3F17" transform="translate(29.5625,128.9375)"/>
<path d="M0 0 C0.99 0.495 0.99 0.495 2 1 C2 14.53 2 28.06 2 42 C5.3 42.66 8.6 43.32 12 44 C11.67 44.66 11.34 45.32 11 46 C9.35328588 45.69217504 7.70764424 45.37860766 6.0625 45.0625 C5.14597656 44.88847656 4.22945313 44.71445313 3.28515625 44.53515625 C1 44 1 44 0 43 C-0.09268999 41.64905018 -0.11747326 40.29332909 -0.11352539 38.93920898 C-0.11344986 38.07839218 -0.11337433 37.21757538 -0.11329651 36.33067322 C-0.10813522 35.39526199 -0.10297394 34.45985077 -0.09765625 33.49609375 C-0.0962413 32.54307877 -0.09482635 31.59006378 -0.09336853 30.60816956 C-0.08775152 27.55124835 -0.07519616 24.49439923 -0.0625 21.4375 C-0.05748719 19.37044376 -0.05292391 17.30338638 -0.04882812 15.23632812 C-0.03777656 10.15752412 -0.02050055 5.0787743 0 0 Z " fill="#8C492A" transform="translate(2,151)"/>
<path d="M0 0 C0.33 0 0.66 0 1 0 C1 15.51 1 31.02 1 47 C1.66 47 2.32 47 3 47 C2.67 47.99 2.34 48.98 2 50 C1.01 49.67 0.02 49.34 -1 49 C-1.02480684 43.14673162 -1.04291055 37.29349418 -1.05493164 31.44018555 C-1.05994564 29.45092231 -1.06675849 27.46166273 -1.07543945 25.47241211 C-1.08763384 22.60529678 -1.09325777 19.73823038 -1.09765625 16.87109375 C-1.10281754 15.98852402 -1.10797882 15.10595428 -1.11329651 14.19664001 C-1.11373181 9.35354428 -0.81805934 4.77531522 0 0 Z " fill="#8F4A29" transform="translate(3,82)"/>
<path d="M0 0 C0 12.21 0 24.42 0 37 C-0.99 37.495 -0.99 37.495 -2 38 C-2.495 20.675 -2.495 20.675 -3 3 C-5.97 2.505 -5.97 2.505 -9 2 C-5.43554666 -1.30041976 -5.26882404 -1.05376481 0 0 Z " fill="#E6935D" transform="translate(166,245)"/>
<path d="M0 0 C6.75 0.875 6.75 0.875 9 2 C10.53668865 2.22467831 12.07968054 2.40796805 13.625 2.5625 C14.44226563 2.64628906 15.25953125 2.73007813 16.1015625 2.81640625 C16.72804688 2.87699219 17.35453125 2.93757812 18 3 C18.33 3.99 18.66 4.98 19 6 C21.01508358 6.73323796 21.01508358 6.73323796 23 7 C19.45113056 8.77443472 15.40293589 7.37917186 11.6875 6.375 C9.89389066 5.79030774 9.89389066 5.79030774 8 7 C5.8359375 6.44140625 5.8359375 6.44140625 3.375 5.5625 C2.55773437 5.27503906 1.74046875 4.98757812 0.8984375 4.69140625 C0.27195313 4.46324219 -0.35453125 4.23507813 -1 4 C-0.67 2.68 -0.34 1.36 0 0 Z " fill="#96461A" transform="translate(63,205)"/>
<path d="M0 0 C0.66 0 1.32 0 2 0 C2.33 5.28 2.66 10.56 3 16 C-5.12307692 21.04615385 -5.12307692 21.04615385 -9.5625 20.8125 C-10.366875 20.544375 -11.17125 20.27625 -12 20 C-8.79663178 17.16625119 -6.21912747 16.4794463 -2 16 C-0.89485234 12.68455701 -0.67892369 9.79589889 -0.4375 6.3125 C-0.35371094 5.13300781 -0.26992187 3.95351563 -0.18359375 2.73828125 C-0.12300781 1.83464844 -0.06242188 0.93101562 0 0 Z " fill="#F07F2E" transform="translate(161,267)"/>
<path d="M0 0 C6.72123291 0.57915386 12.59860957 1.86620319 19 4 C20.1875 6.0625 20.1875 6.0625 21 8 C14.69632197 7.41632611 9.01339937 5.95928381 3 4 C3 3.34 3 2.68 3 2 C2.01 1.67 1.02 1.34 0 1 C0 0.67 0 0.34 0 0 Z " fill="#95471D" transform="translate(107,217)"/>
<path d="M0 0 C1.46015291 0.28241641 2.91809793 0.57626614 4.375 0.875 C5.18710938 1.03742188 5.99921875 1.19984375 6.8359375 1.3671875 C9 2 9 2 11 4 C11.17495606 6.50920846 11.23169569 8.90624941 11.1953125 11.4140625 C11.1924826 12.14370209 11.18965271 12.87334167 11.18673706 13.62509155 C11.17553002 15.95856028 11.1504251 18.29164703 11.125 20.625 C11.11497085 22.20572363 11.10584489 23.78645327 11.09765625 25.3671875 C11.07558905 29.24493914 11.04105615 33.12240478 11 37 C10.67 37 10.34 37 10 37 C10 27.76 10 18.52 10 9 C9.01 8.67 8.02 8.34 7 8 C7.66 6.68 8.32 5.36 9 4 C8.443125 3.87625 7.88625 3.7525 7.3125 3.625 C4.77885636 2.94023145 2.42078968 2.00866237 0 1 C0 0.67 0 0.34 0 0 Z " fill="#E38448" transform="translate(244,93)"/>
<path d="M0 0 C0.99 0 1.98 0 3 0 C2.83628906 1.11375 2.67257813 2.2275 2.50390625 3.375 C1.89330686 8.25979515 1.88841503 13.08395145 1.9375 18 C1.94201172 18.87011719 1.94652344 19.74023438 1.95117188 20.63671875 C1.9628264 22.75784293 1.98075643 24.8789311 2 27 C1.34 27.33 0.68 27.66 0 28 C0 18.76 0 9.52 0 0 Z " fill="#97491E" transform="translate(196,96)"/>
<path d="M0 0 C1.258125 -0.020625 2.51625 -0.04125 3.8125 -0.0625 C4.52019531 -0.07410156 5.22789062 -0.08570312 5.95703125 -0.09765625 C8 0 8 0 11 1 C11 1.66 11 2.32 11 3 C3.30881404 3.75166913 -4.27227893 4.13690844 -12 4 C-12 3.34 -12 2.68 -12 2 C-8.04 2 -4.08 2 0 2 C0 1.34 0 0.68 0 0 Z " fill="#6C4733" transform="translate(147,121)"/>
<path d="M0 0 C3.3 0.33 6.6 0.66 10 1 C10 1.66 10 2.32 10 3 C10.7425 2.773125 11.485 2.54625 12.25 2.3125 C15 2 15 2 17.171875 3.48046875 C17.77515625 3.98191406 18.3784375 4.48335937 19 5 C16.77090129 5.02714735 14.54170633 5.04646254 12.3125 5.0625 C11.07113281 5.07410156 9.82976563 5.08570313 8.55078125 5.09765625 C5.53764546 5.01478673 2.91724661 4.70839449 0 4 C0.66 3.34 1.32 2.68 2 2 C1.34 1.34 0.68 0.68 0 0 Z " fill="#96471D" transform="translate(43,201)"/>
<path d="M0 0 C0 0.33 0 0.66 0 1 C-7.92 1 -15.84 1 -24 1 C-23.67 0.34 -23.34 -0.32 -23 -1 C-15.10716416 -2.76134863 -7.70199693 -2.12468881 0 0 Z " fill="#7B4125" transform="translate(29,131)"/>
<path d="M0 0 C1.37432457 3.81756824 0.67975039 7.07255329 0 11 C-0.33 11 -0.66 11 -1 11 C-1 9.35 -1 7.7 -1 6 C-1.53625 6.144375 -2.0725 6.28875 -2.625 6.4375 C-5.39915827 7.09453748 -8.18525388 7.55219948 -11 8 C-10 6 -10 6 -7 5 C-6.67 4.01 -6.34 3.02 -6 2 C-3.85412616 0.684787 -2.52986895 0 0 0 Z " fill="#934721" transform="translate(125,0)"/>
<path d="M0 0 C0 0.66 0 1.32 0 2 C-0.61488281 2.19335938 -1.22976562 2.38671875 -1.86328125 2.5859375 C-3.07564453 2.97652344 -3.07564453 2.97652344 -4.3125 3.375 C-5.51326172 3.75785156 -5.51326172 3.75785156 -6.73828125 4.1484375 C-9.22724528 4.98831811 -9.22724528 4.98831811 -12 7 C-12.99 6.01 -13.98 5.02 -15 4 C-13.34548877 2.02201062 -12.38794196 1.09206594 -9.84375 0.48828125 C-8.68359375 0.40126953 -8.68359375 0.40126953 -7.5 0.3125 C-6.7265625 0.24675781 -5.953125 0.18101562 -5.15625 0.11328125 C-3.43945285 0.0230872 -1.71916474 0 0 0 Z " fill="#F78324" transform="translate(245,193)"/>
<path d="M0 0 C-0.33 0.66 -0.66 1.32 -1 2 C-2.65 2 -4.3 2 -6 2 C-6 2.66 -6 3.32 -6 4 C-8.31 4.33 -10.62 4.66 -13 5 C-13.33 5.99 -13.66 6.98 -14 8 C-15.98 8.33 -17.96 8.66 -20 9 C-20.33 8.34 -20.66 7.68 -21 7 C-17.88036821 5.63321521 -14.75353763 4.28376009 -11.625 2.9375 C-10.73554688 2.54755859 -9.84609375 2.15761719 -8.9296875 1.75585938 C-8.07890625 1.39169922 -7.228125 1.02753906 -6.3515625 0.65234375 C-5.56604004 0.31195068 -4.78051758 -0.02844238 -3.97119141 -0.37915039 C-2 -1 -2 -1 0 0 Z " fill="#8E4F35" transform="translate(25,70)"/>
<path d="M0 0 C3.61932963 0.51252745 6.86103179 1.59307399 10.25 2.9375 C11.12140625 3.27652344 11.9928125 3.61554688 12.890625 3.96484375 C15 5 15 5 16 7 C12.21760329 6.34309381 8.78158474 5.279869 5.1875 3.9375 C4.21167969 3.57527344 3.23585938 3.21304688 2.23046875 2.83984375 C1.49441406 2.56269531 0.75835937 2.28554687 0 2 C-0.33 2.66 -0.66 3.32 -1 4 C-1 1 -1 1 0 0 Z " fill="#C88D65" transform="translate(92,244)"/>
<path d="M0 0 C0.33 1.32 0.66 2.64 1 4 C-3.75 7 -3.75 7 -6 7 C-6.33 6.01 -6.66 5.02 -7 4 C-4.82575883 1.49962266 -3.26954202 0.56371414 0 0 Z " fill="#EE7E2F" transform="translate(139,291)"/>
<path d="M0 0 C0.495 0.474375 0.99 0.94875 1.5 1.4375 C4.99468651 3.62167907 7.90966936 3.65913911 12 4 C8.17482487 6.39073445 4.40334476 6.55966552 0 7 C0 4.69 0 2.38 0 0 Z " fill="#EE8944" transform="translate(130,218)"/>
<path d="M0 0 C1.58323688 -0.027193 3.16661062 -0.04648306 4.75 -0.0625 C6.07257813 -0.07990234 6.07257813 -0.07990234 7.421875 -0.09765625 C9.7818838 -0.00826198 11.74498524 0.33087179 14 1 C14 1.66 14 2.32 14 3 C12.41753293 3.08153933 10.83383727 3.13943557 9.25 3.1875 C8.36828125 3.22230469 7.4865625 3.25710937 6.578125 3.29296875 C3.55328417 2.94923684 2.24416398 1.99772541 0 0 Z " fill="#C66D2D" transform="translate(235,129)"/>
<path d="M0 0 C0.33 0.66 0.66 1.32 1 2 C-4.78591511 2.10477512 -10.29309366 1.99250545 -16 1 C-16 0.67 -16 0.34 -16 0 C-10.33713138 -0.91010388 -5.65122578 -1.09058743 0 0 Z " fill="#6C3918" transform="translate(113,122)"/>
<path d="M0 0 C3.3 0 6.6 0 10 0 C10 0.99 10 1.98 10 3 C6.7 3 3.4 3 0 3 C0 2.01 0 1.02 0 0 Z " fill="#BA5E2D" transform="translate(43,129)"/>
<path d="M0 0 C-0.33 0.99 -0.66 1.98 -1 3 C-5.95 3 -10.9 3 -16 3 C-16 2.67 -16 2.34 -16 2 C-13.89627599 1.66388432 -11.79200343 1.33120054 -9.6875 1 C-8.51574219 0.814375 -7.34398437 0.62875 -6.13671875 0.4375 C-3 0 -3 0 0 0 Z " fill="#995F41" transform="translate(229,88)"/>
<path d="M0 0 C1.77305664 0.25587405 3.54344608 0.53027739 5.3125 0.8125 C6.79169922 1.03873047 6.79169922 1.03873047 8.30078125 1.26953125 C11.12699269 2.03436705 12.1959128 2.75258762 14 5 C8.86496656 4.35812082 4.0056546 3.31727753 -1 2 C-0.67 1.34 -0.34 0.68 0 0 Z " fill="#954B30" transform="translate(73,210)"/>
<path d="M0 0 C4.455 0.99 4.455 0.99 9 2 C9 2.66 9 3.32 9 4 C6.03 4 3.06 4 0 4 C0 2.68 0 1.36 0 0 Z " fill="#F68127" transform="translate(232,92)"/>
<path d="M0 0 C-0.66 0 -1.32 0 -2 0 C-2.33 0.99 -2.66 1.98 -3 3 C-5.31 3 -7.62 3 -10 3 C-9.67 2.01 -9.34 1.02 -9 0 C-5.35959446 -1.21346851 -3.64040554 -1.21346851 0 0 Z " fill="#F5802A" transform="translate(205,204)"/>
<path d="M0 0 C0.33 0 0.66 0 1 0 C1.19448477 2.12437212 1.38038289 4.24953191 1.5625 6.375 C1.66691406 7.55835937 1.77132812 8.74171875 1.87890625 9.9609375 C2 13 2 13 1 15 C0.34 15 -0.32 15 -1 15 C-0.67 10.05 -0.34 5.1 0 0 Z " fill="#F57F28" transform="translate(252,114)"/>
<path d="M0 0 C1.258125 -0.020625 2.51625 -0.04125 3.8125 -0.0625 C4.52019531 -0.07410156 5.22789062 -0.08570312 5.95703125 -0.09765625 C8 0 8 0 11 1 C11 1.66 11 2.32 11 3 C7.37 2.67 3.74 2.34 0 2 C0 1.34 0 0.68 0 0 Z " fill="#984D20" transform="translate(147,121)"/>
<path d="M0 0 C1.98 0.66 3.96 1.32 6 2 C6 2.66 6 3.32 6 4 C6.99 4.33 7.98 4.66 9 5 C5.79937313 6.60031344 3.27728194 5.03173691 0 4 C0 2.68 0 1.36 0 0 Z " fill="#F1862C" transform="translate(163,210)"/>
<path d="M0 0 C2.0625 0.4375 2.0625 0.4375 4 1 C3.01 1.66 2.02 2.32 1 3 C0.26656572 6.06556598 0.26656572 6.06556598 0 9 C-0.66 8.67 -1.32 8.34 -2 8 C-1.125 1.125 -1.125 1.125 0 0 Z " fill="#8B350E" transform="translate(3,80)"/>
<path d="M0 0 C0.33 0.99 0.66 1.98 1 3 C2.65 3 4.3 3 6 3 C6 3.99 6 4.98 6 6 C4.02 6 2.04 6 0 6 C0 4.02 0 2.04 0 0 Z " fill="#F78C40" transform="translate(29,122)"/>
<path d="M0 0 C5.625 -0.25 5.625 -0.25 9 2 C9 2.66 9 3.32 9 4 C4.545 3.01 4.545 3.01 0 2 C0 1.34 0 0.68 0 0 Z " fill="#924A2C" transform="translate(17,196)"/>
<path d="M0 0 C0.66 0.99 1.32 1.98 2 3 C-0.35438733 4.42944945 -1.48032433 5.08661261 -4.25 4.625 C-4.8275 4.41875 -5.405 4.2125 -6 4 C-5.67 3.34 -5.34 2.68 -5 2 C-3.35 2 -1.7 2 0 2 C0 1.34 0 0.68 0 0 Z " fill="#97471E" transform="translate(24,70)"/>
<path d="M0 0 C0.66 0 1.32 0 2 0 C2 0.66 2 1.32 2 2 C2.99 1.67 3.98 1.34 5 1 C5 2.32 5 3.64 5 5 C2.525 4.01 2.525 4.01 0 3 C0 2.01 0 1.02 0 0 Z " fill="#843C13" transform="translate(122,295)"/>
<path d="M0 0 C2.475 0.99 2.475 0.99 5 2 C2.64561267 3.42944945 1.51967567 4.08661261 -1.25 3.625 C-1.8275 3.41875 -2.405 3.2125 -3 3 C-2.01 2.01 -1.02 1.02 0 0 Z " fill="#EC863F" transform="translate(205,203)"/>
<path d="M0 0 C2.31 0.33 4.62 0.66 7 1 C6.67 1.99 6.34 2.98 6 4 C4.35 4 2.7 4 1 4 C0.67 2.68 0.34 1.36 0 0 Z " fill="#F67D28" transform="translate(150,12)"/>
<path d="M0 0 C0.66 0.99 1.32 1.98 2 3 C-0.31 3.66 -2.62 4.32 -5 5 C-5 4.01 -5 3.02 -5 2 C-3.35 1.34 -1.7 0.68 0 0 Z " fill="#965234" transform="translate(117,3)"/>
</svg>
