<?xml version="1.0" standalone="no"?>
<!DOCTYPE svg PUBLIC "-//W3C//DTD SVG 20010904//EN"
 "http://www.w3.org/TR/2001/REC-SVG-20010904/DTD/svg10.dtd">
<svg version="1.0" xmlns="http://www.w3.org/2000/svg"
 width="48.000000pt" height="48.000000pt" viewBox="0 0 48.000000 48.000000"
 preserveAspectRatio="xMidYMid meet">

<g transform="translate(0.000000,48.000000) scale(0.100000,-0.100000)"
fill="#000000" stroke="none">
<path d="M82 408 c-16 -16 -15 -103 1 -117 8 -6 75 -12 168 -13 l154 -3 3 -41
c3 -40 2 -42 -31 -48 -49 -9 -72 -39 -72 -92 0 -60 29 -89 89 -89 64 0 86 24
86 91 0 44 -4 56 -25 72 -20 16 -25 29 -25 65 0 25 -6 49 -13 56 -8 6 -75 12
-168 13 l-154 3 0 45 0 45 155 0 155 0 3 -37 c2 -21 7 -38 13 -38 13 0 11 74
-3 88 -17 17 -319 17 -336 0z m363 -263 c14 -13 25 -36 25 -50 0 -14 -11 -37
-25 -50 -13 -14 -36 -25 -50 -25 -33 0 -75 42 -75 75 0 33 42 75 75 75 14 0
37 -11 50 -25z"/>
<path d="M340 95 c0 -8 7 -15 15 -15 8 0 15 7 15 15 0 8 -7 15 -15 15 -8 0
-15 -7 -15 -15z"/>
<path d="M380 95 c0 -8 7 -15 15 -15 8 0 15 7 15 15 0 8 -7 15 -15 15 -8 0
-15 -7 -15 -15z"/>
<path d="M420 95 c0 -8 7 -15 15 -15 8 0 15 7 15 15 0 8 -7 15 -15 15 -8 0
-15 -7 -15 -15z"/>
<path d="M70 222 c0 -21 5 -43 12 -50 15 -15 218 -17 218 -2 0 5 -45 11 -102
12 l-103 3 -3 38 c-4 49 -22 48 -22 -1z"/>
<path d="M70 102 c0 -21 5 -43 12 -50 15 -15 208 -17 208 -2 0 5 -44 11 -97
12 l-98 3 -3 38 c-4 49 -22 48 -22 -1z"/>
</g>
</svg>
