<?xml version="1.0" encoding="UTF-8"?>
<svg version="1.1" xmlns="http://www.w3.org/2000/svg" width="507" height="492">
<path d="M0 0 C6.72552102 5.99448613 10.74411789 14.70275619 15.0625 22.5 C19.058627 29.64723786 23.12305996 36.72753165 27.4375 43.6875 C31.84508778 50.80616104 36.04087986 58.02670333 40.17504883 65.30712891 C51.225642 84.78094578 51.225642 84.78094578 62.8125 103.9375 C69.82574758 115.20346154 76.27980736 126.81435592 82.88513184 138.3223877 C85.19207655 142.34117977 87.5020203 146.3582388 89.8125 150.375 C90.40232666 151.40455811 90.99215332 152.43411621 91.59985352 153.49487305 C94.59988658 158.70988772 97.66507477 163.87120974 100.8359375 168.984375 C104.90954072 175.56579173 108.75119968 182.26421296 112.5625 189 C121.8060231 205.26522103 131.21252184 221.43192919 141.09887695 237.31689453 C143.99096903 241.99499429 146.64663706 246.77262369 149.26147461 251.6105957 C152.14959834 256.89434574 155.17291327 262.10019474 158.1875 267.3125 C158.51681519 267.88275909 158.84613037 268.45301819 159.1854248 269.04055786 C163.28822761 276.14401611 167.43029087 283.21949518 171.67651367 290.23803711 C177.81555911 300.40221812 183.67346182 310.73494092 189.59375 321.02734375 C195.42305024 331.15608263 201.25821227 341.27261345 207.3046875 351.2734375 C244.12617871 412.45709083 244.12617871 412.45709083 241.484375 430.18359375 C237.9553503 444.3223145 225.96893855 454.49101487 213.91943359 461.73876953 C210.03011821 463.9003709 206.0358221 465.79821678 201.97705078 467.61816406 C199.80494913 468.59397001 197.65071003 469.60341841 195.49609375 470.6171875 C150.38237431 491.57568474 98.66947078 497.52241256 51.32885742 480.65625 C40.99224753 476.82882523 30.87846616 472.48266473 20.8125 468 C19.64847656 467.48244141 18.48445313 466.96488281 17.28515625 466.43164062 C11.23836984 463.69276175 5.33265097 460.78751652 -0.5 457.625 C-8.20394644 453.44987195 -16.0783415 449.73044587 -24.0625 446.125 C-24.77433441 445.80267395 -25.48616882 445.4803479 -26.21957397 445.14825439 C-90.77294639 415.99697448 -150.67644077 418.51392488 -216.625 443.0625 C-230.34105204 448.27245594 -243.74870058 453.88853642 -256.42578125 461.3125 C-259.26347489 462.6266273 -261.04066635 462.83216852 -264.125 462.5625 C-265.07757543 459.50221456 -265.34910503 458.05850869 -264.0078125 455.08984375 C-263.42773438 454.23519531 -262.84765625 453.38054687 -262.25 452.5 C-261.59773438 451.53707031 -260.94546875 450.57414062 -260.2734375 449.58203125 C-253.33439016 439.82951563 -245.93202533 430.6210332 -238.125 421.5625 C-237.49722656 420.8096875 -236.86945313 420.056875 -236.22265625 419.28125 C-231.64239111 413.8495944 -226.45847505 409.24171335 -221.125 404.5625 C-220.43921875 403.92699219 -219.7534375 403.29148437 -219.046875 402.63671875 C-186.38480398 372.53026779 -142.11167755 356.92664733 -97.84375 357.41015625 C-61.68384637 358.89149684 -24.23387409 368.50830104 5.88134766 389.20288086 C23.60895237 401.29264704 45.88620416 409.62237447 66.76757812 414.10693359 C68.78715834 414.54351106 70.78987586 415.02889778 72.796875 415.51953125 C95.04230826 420.56725652 124.31898616 420.64287921 144.875 409.5625 C147.20541963 407.62464234 147.20541963 407.62464234 147.40625 404.1796875 C147.24733069 397.89953709 143.54420328 392.90581393 140.375 387.6875 C139.1529422 385.62956483 137.93401922 383.56976379 136.71875 381.5078125 C136.17412109 380.60562988 135.62949219 379.70344727 135.06835938 378.77392578 C133.875 376.5625 133.875 376.5625 133.875 374.5625 C133.215 374.5625 132.555 374.5625 131.875 374.5625 C131.39426025 373.70591797 131.39426025 373.70591797 130.90380859 372.83203125 C121.35900164 355.84247745 111.58964105 338.99293116 101.71989441 322.19056702 C99.89612435 319.085655 98.07290414 315.98042047 96.25 312.875 C95.88736053 312.25732758 95.52472107 311.63965515 95.15109253 311.00326538 C90.13360003 302.4540366 85.17273774 293.87467803 80.27001953 285.2590332 C69.36074262 266.07098144 69.36074262 266.07098144 57.9375 247.1875 C52.67531162 238.73882655 47.79324037 230.06486055 42.83203125 221.4375 C31.95659747 202.42683171 31.95659747 202.42683171 20.625 183.6875 C17.57284783 178.79756258 14.76903566 173.80291883 12 168.75 C5.04332688 154.86272201 5.04332688 154.86272201 -4.125 142.5625 C-6.99864791 142.14503392 -6.99864791 142.14503392 -10.125 142.5625 C-13.42278498 145.33042116 -15.39396017 148.43358163 -17.48828125 152.1640625 C-18.12056641 153.28159912 -18.75285156 154.39913574 -19.40429688 155.55053711 C-19.73550537 156.14301239 -20.06671387 156.73548767 -20.40795898 157.34591675 C-21.45297027 159.21517232 -22.50563651 161.07991851 -23.56054688 162.94360352 C-25.0238666 165.52935387 -26.4846698 168.11650015 -27.94384766 170.70458984 C-31.30368929 176.65587716 -34.71105423 182.57960755 -38.125 188.5 C-38.75704346 189.59650879 -39.38908691 190.69301758 -40.0402832 191.82275391 C-43.57028857 197.9282775 -47.1842569 203.95731104 -50.921875 209.9375 C-58.09869464 221.60507812 -64.75297129 233.61666992 -71.515625 245.52734375 C-80.87148319 261.99987892 -80.87148319 261.99987892 -85.72265625 269.40625 C-86.18542969 270.1178125 -86.64820313 270.829375 -87.125 271.5625 C-87.65996094 272.3771875 -88.19492188 273.191875 -88.74609375 274.03125 C-90.14149072 276.59277191 -90.71484075 278.69138522 -91.125 281.5625 C-90.06925781 281.77003906 -89.01351562 281.97757812 -87.92578125 282.19140625 C-47.54716216 290.45298082 -7.04798979 310.52561189 20.875 341.5625 C21.39581077 345.27327676 21.30939043 347.56595726 19.8125 351 C16.84555747 353.39269559 14.60758872 352.87259199 10.875 352.5625 C8.44758756 351.48365003 6.28526287 350.37926689 4 349.0625 C-12.00299608 340.49208369 -30.33912415 335.82953423 -48.125 332.5625 C-48.86943359 332.41441895 -49.61386719 332.26633789 -50.38085938 332.11376953 C-99.11675717 322.59407881 -157.72810409 332.55950308 -202.48461914 352.56811523 C-207.09465735 354.54008867 -210.26512166 354.83187121 -215.125 353.5625 C-217.47953459 350.98722779 -218.15015335 349.52128636 -218.05859375 346.03125 C-216.676699 340.89684609 -213.95522902 336.75806706 -211.1875 332.25 C-209.9906759 330.26444919 -208.79406319 328.27877095 -207.59765625 326.29296875 C-207.00484863 325.31634277 -206.41204102 324.3397168 -205.80126953 323.33349609 C-203.54079791 319.59677123 -201.32970541 315.83229388 -199.125 312.0625 C-196.48835293 307.56976047 -193.84223256 303.08291605 -191.1796875 298.60546875 C-184.97864711 288.16705075 -178.88153271 277.6761172 -172.875 267.125 C-167.83884508 258.28029139 -162.73917482 249.48837138 -157.46435547 240.78320312 C-154.34964173 235.61888738 -151.26735879 230.43515243 -148.1875 225.25 C-147.83675415 224.65958923 -147.4860083 224.06917847 -147.12463379 223.46087646 C-142.93767098 216.40501505 -138.8173983 209.32089719 -134.875 202.125 C-131.10733284 195.24803236 -127.14034268 188.51405908 -123.08374023 181.80395508 C-118.47624587 174.17431727 -113.94559591 166.50114157 -109.4375 158.8125 C-109.06874756 158.18378998 -108.69999512 157.55507996 -108.32006836 156.90731812 C-103.8088379 149.21049743 -99.3556001 141.48591366 -95.02050781 133.68823242 C-92.22122822 128.67434157 -89.22753856 123.79721885 -86.1953125 118.921875 C-78.74306946 106.8295561 -71.74772417 94.4552439 -64.65844727 82.14868164 C-58.57562788 71.59503228 -52.41285959 61.09119949 -46.1875 50.62109375 C-45.12475763 48.83087303 -44.06226431 47.04050444 -43 45.25 C-42.46552246 44.35063721 -41.93104492 43.45127441 -41.38037109 42.5246582 C-38.16286726 37.08670971 -35.01200833 31.61595469 -31.9140625 26.109375 C-31.19418056 24.83373607 -30.47429125 23.55810129 -29.75439453 22.2824707 C-28.35801212 19.80692106 -26.97281889 17.32553216 -25.59326172 14.84057617 C-24.95404785 13.70595947 -24.31483398 12.57134277 -23.65625 11.40234375 C-23.09486328 10.39550537 -22.53347656 9.38866699 -21.95507812 8.35131836 C-16.56846128 0.1427639 -9.54407147 -4.39027288 0 0 Z " fill="#E80923" transform="translate(265.125,1.4375)"/>
<path d="M0 0 C0.33 1.32 0.66 2.64 1 4 C1.99 4 2.98 4 4 4 C4 6.31 4 8.62 4 11 C3.195625 11.28875 2.39125 11.5775 1.5625 11.875 C-1.1326468 12.73262568 -1.1326468 12.73262568 -2 15 C0.64 15.66 3.28 16.32 6 17 C6 16.34 6 15.68 6 15 C7.98 15 9.96 15 12 15 C9.19893013 17.80106987 5.81283888 19.2981272 2.3125 21.0625 C1.61705078 21.42666016 0.92160156 21.79082031 0.20507812 22.16601562 C-4.26151063 24.42224767 -8.00876256 25.57479629 -13 26 C-13.98771638 22.87410215 -14.2230204 21.47758645 -12.8125 18.45703125 C-11.9153125 17.14798828 -11.9153125 17.14798828 -11 15.8125 C-10.35933594 14.86375 -9.71867188 13.915 -9.05859375 12.9375 C-8.03958984 11.4834375 -8.03958984 11.4834375 -7 10 C-5.99646484 8.5459375 -5.99646484 8.5459375 -4.97265625 7.0625 C-3.32985428 4.69740268 -1.67279036 2.34394029 0 0 Z " fill="#E10B25" transform="translate(14,438)"/>
<path d="M0 0 C3.3245678 2.88129209 5.40926364 5.76196204 7.8125 9.4375 C7.4825 10.0975 7.1525 10.7575 6.8125 11.4375 C5.8225 11.1075 4.8325 10.7775 3.8125 10.4375 C3.68875 9.633125 3.565 8.82875 3.4375 8 C3.23125 7.154375 3.025 6.30875 2.8125 5.4375 C2.1525 5.1075 1.4925 4.7775 0.8125 4.4375 C0.8125 5.7575 0.8125 7.0775 0.8125 8.4375 C-1.1675 9.0975 -3.1475 9.7575 -5.1875 10.4375 C-6.1875 7.4375 -6.1875 7.4375 -5.1875 4.4375 C-7.6625 3.9425 -7.6625 3.9425 -10.1875 3.4375 C-10.5175 5.4175 -10.8475 7.3975 -11.1875 9.4375 C-12.5075 9.7675 -13.8275 10.0975 -15.1875 10.4375 C-15.1875 11.0975 -15.1875 11.7575 -15.1875 12.4375 C-21.0625 14.4375 -21.0625 14.4375 -24.1875 14.4375 C-22.17894913 8.59444291 -19.46976913 3.06044694 -14.375 -0.5625 C-9.01188417 -2.24504614 -5.11196872 -2.50586702 0 0 Z " fill="#E60927" transform="translate(265.1875,1.5625)"/>
<path d="M0 0 C10.11263394 7.23797658 10.11263394 7.23797658 14 12 C14.58567996 15.77438196 14.45803676 17.94920978 12.9375 21.4375 C9.95304208 23.8443209 7.76322164 23.32657625 4 23 C1.23035593 21.98171235 -1.29558575 20.6127694 -3.875 19.1875 C-9.49262613 16.22018777 -14.86597408 13.75257884 -21 12 C-16.98226748 10.76973073 -14.9728195 11.67572683 -11 13 C-8.66787973 13.07522969 -6.3314689 13.09325876 -4 13 C-3.67 14.32 -3.34 15.64 -3 17 C-1.35 15.68 0.3 14.36 2 13 C2 13.66 2 14.32 2 15 C2.66 15 3.32 15 4 15 C4.33 14.01 4.66 13.02 5 12 C5.99 12 6.98 12 8 12 C8 11.01 8 10.02 8 9 C6.8553125 8.6596875 6.8553125 8.6596875 5.6875 8.3125 C2.4246973 6.71903821 1.53739291 5.23661664 0 2 C0 1.34 0 0.68 0 0 Z " fill="#D30E26" transform="translate(272,331)"/>
<path d="M0 0 C0 0.33 0 0.66 0 1 C-2.31 1 -4.62 1 -7 1 C-7 0.34 -7 -0.32 -7 -1 C-8.010625 -0.938125 -9.02125 -0.87625 -10.0625 -0.8125 C-13.72238307 -0.98678015 -15.75576973 -1.6694837 -19.00390625 -3.203125 C-26.0114138 -6.00064269 -34.02117884 -6.2737339 -41.46875 -6.75390625 C-44 -7 -44 -7 -47 -8 C-49.80160502 -8.1539263 -52.58298425 -8.25738045 -55.38671875 -8.31640625 C-56.20372757 -8.33718735 -57.02073639 -8.35796844 -57.86250305 -8.37937927 C-60.47075034 -8.44473079 -63.07909775 -8.50369273 -65.6875 -8.5625 C-67.45639054 -8.60569892 -69.22527097 -8.64931365 -70.99414062 -8.69335938 C-75.32932463 -8.80039743 -79.66460929 -8.90170544 -84 -9 C-84 -9.33 -84 -9.66 -84 -10 C-55.13313399 -12.42360494 -27.43336398 -9.34880002 0 0 Z " fill="#B51229" transform="translate(228,370)"/>
<path d="M0 0 C7.20015907 0.53389439 13.49252811 2.17212218 20.3125 4.5 C21.35124268 4.85094727 22.38998535 5.20189453 23.46020508 5.56347656 C30.50347602 8.00014882 37.38294896 10.71076538 44.1875 13.75 C45.00581299 14.11416016 45.82412598 14.47832031 46.66723633 14.85351562 C50.91003161 16.81303775 54.47510938 18.86362438 58 22 C56.02 22 54.04 22 52 22 C52 21.34 52 20.68 52 20 C51.01 20 50.02 20 49 20 C49 19.34 49 18.68 49 18 C46.36 17.34 43.72 16.68 41 16 C41 15.34 41 14.68 41 14 C39.35 14 37.7 14 36 14 C36 13.34 36 12.68 36 12 C33.03 11.34 30.06 10.68 27 10 C27 9.34 27 8.68 27 8 C25.5459375 8.0309375 25.5459375 8.0309375 24.0625 8.0625 C21 8 21 8 20 7 C18.00041636 6.95919217 15.99954746 6.95745644 14 7 C13.67 6.01 13.34 5.02 13 4 C11.35 4 9.7 4 8 4 C8 3.34 8 2.68 8 2 C5.36 2 2.72 2 0 2 C0 1.34 0 0.68 0 0 Z " fill="#BA1229" transform="translate(180,285)"/>
<path d="M0 0 C-1.32 0.33 -2.64 0.66 -4 1 C-4 1.66 -4 2.32 -4 3 C-7.3 3 -10.6 3 -14 3 C-14 3.66 -14 4.32 -14 5 C-20.53278786 5.02527002 -27.06556321 5.04283292 -33.59838867 5.05493164 C-35.82267732 5.05997317 -38.04696263 5.06680623 -40.27124023 5.07543945 C-43.46078309 5.08751298 -46.65028229 5.09322996 -49.83984375 5.09765625 C-51.34139259 5.10539818 -51.34139259 5.10539818 -52.87327576 5.11329651 C-53.79415482 5.11337204 -54.71503387 5.11344757 -55.66381836 5.11352539 C-56.88626503 5.11685631 -56.88626503 5.11685631 -58.13340759 5.12025452 C-60 5 -60 5 -61 4 C-62.51928038 3.92820036 -64.04167482 3.91607993 -65.5625 3.9375 C-66.80193359 3.95103516 -66.80193359 3.95103516 -68.06640625 3.96484375 C-69.02353516 3.98224609 -69.02353516 3.98224609 -70 4 C-70 3.01 -70 2.02 -70 1 C-71.32 0.67 -72.64 0.34 -74 0 C-68.77991172 0.43885698 -63.66011661 1.03772206 -58.51171875 2.015625 C-51.67968206 3.16602946 -44.98091385 3.38197186 -38.0625 3.375 C-36.80719482 3.37701416 -35.55188965 3.37902832 -34.25854492 3.38110352 C-24.45680633 3.27569506 -15.29710256 1.99233694 -5.76953125 -0.22265625 C-2 -1 -2 -1 0 0 Z " fill="#B41128" transform="translate(403,416)"/>
<path d="M0 0 C1.29312675 2.5862535 0.84290464 3.76416975 0.25 6.5625 C0.01023437 7.77099609 0.01023437 7.77099609 -0.234375 9.00390625 C-0.48703125 9.66261719 -0.7396875 10.32132812 -1 11 C-1.99 11.33 -2.98 11.66 -4 12 C-5.70855022 15.00007271 -5.70855022 15.00007271 -7 18 C-6.34 18 -5.68 18 -5 18 C-5 17.34 -5 16.68 -5 16 C-4.34 16 -3.68 16 -3 16 C-3.75 20.75 -3.75 20.75 -6 23 C-6.39764263 24.98821313 -6.73775349 26.98944339 -7 29 C-8.9375 28.4375 -8.9375 28.4375 -11 27 C-12.28239503 23.23296459 -12.53451367 21.24504543 -10.94946289 17.55297852 C-9.40673767 14.8248364 -7.76805741 12.19182214 -6.0625 9.5625 C-5.48564453 8.64017578 -4.90878906 7.71785156 -4.31445312 6.76757812 C-2.89303744 4.50036138 -1.45492407 2.24580261 0 0 Z " fill="#E10A28" transform="translate(59,326)"/>
<path d="M0 0 C1.47345131 -0.00143509 1.47345131 -0.00143509 2.97666931 -0.00289917 C5.03124049 -0.00357439 7.08581388 -0.00176645 9.14038086 0.00244141 C12.30001507 0.00785132 15.45951047 0.00244771 18.61914062 -0.00390625 C20.62109406 -0.00324637 22.62304742 -0.00196707 24.625 0 C25.57278824 -0.00202423 26.52057648 -0.00404846 27.49708557 -0.00613403 C28.79995766 -0.00140579 28.79995766 -0.00140579 30.12915039 0.00341797 C31.27970665 0.00461136 31.27970665 0.00461136 32.45350647 0.00582886 C34.21484375 0.1328125 34.21484375 0.1328125 35.21484375 1.1328125 C37.23078957 1.36709028 39.25331775 1.54617374 41.27734375 1.6953125 C42.38207031 1.77910156 43.48679687 1.86289062 44.625 1.94921875 C45.47964844 2.00980469 46.33429688 2.07039063 47.21484375 2.1328125 C47.21484375 2.7928125 47.21484375 3.4528125 47.21484375 4.1328125 C50.67984375 3.6378125 50.67984375 3.6378125 54.21484375 3.1328125 C54.70984375 4.6178125 54.70984375 4.6178125 55.21484375 6.1328125 C52.86056794 5.84200839 50.50642756 5.55016397 48.15234375 5.2578125 C47.51490234 5.17917969 46.87746094 5.10054688 46.22070312 5.01953125 C45.54716797 4.93574219 44.87363281 4.85195313 44.1796875 4.765625 C43.03197876 4.62664795 43.03197876 4.62664795 41.86108398 4.48486328 C39.94699488 4.2302165 38.03788016 3.9371958 36.13305664 3.62060547 C24.34254213 1.77313799 12.68278656 1.90777469 0.77734375 2.0078125 C-1.32226133 2.01786855 -3.4218711 2.02698973 -5.52148438 2.03515625 C-10.60949326 2.05694754 -15.69727137 2.09133084 -20.78515625 2.1328125 C-20.78515625 1.8028125 -20.78515625 1.4728125 -20.78515625 1.1328125 C-13.83433196 0.30993475 -6.99638726 -0.01523533 0 0 Z " fill="#B8162D" transform="translate(171.78515625,328.8671875)"/>
<path d="M0 0 C10.23 0 20.46 0 31 0 C31 0.66 31 1.32 31 2 C29.77035522 2.029729 29.77035522 2.029729 28.51586914 2.06005859 C7.87372969 2.51964563 7.87372969 2.51964563 -12.65234375 4.59765625 C-16.13284 5.0159656 -19.49791625 5.06708973 -23 5 C-23 4.67 -23 4.34 -23 4 C-21.35 4 -19.7 4 -18 4 C-18 3.34 -18 2.68 -18 2 C-12.06 2 -6.12 2 0 2 C0 1.34 0 0.68 0 0 Z " fill="#B71325" transform="translate(133,421)"/>
<path d="M0 0 C0.625 1.8125 0.625 1.8125 1 4 C0.01 5.485 0.01 5.485 -1 7 C-1.66 7 -2.32 7 -3 7 C-3 9.31 -3 11.62 -3 14 C-2.34 14.33 -1.68 14.66 -1 15 C-2.375 16.5 -2.375 16.5 -4 18 C-4.66 18 -5.32 18 -6 18 C-6.33 18.99 -6.66 19.98 -7 21 C-7.66 21 -8.32 21 -9 21 C-9.33 22.65 -9.66 24.3 -10 26 C-10.66 26 -11.32 26 -12 26 C-13.1907556 22.54936954 -13.14316267 21.29579376 -11.5234375 17.94921875 C-10.81445312 16.87285156 -10.10546875 15.79648438 -9.375 14.6875 C-9.00761719 14.1200708 -8.64023438 13.5526416 -8.26171875 12.96801758 C-7.18441973 11.30552784 -6.09244739 9.65257496 -5 8 C-3.99470283 6.39914763 -2.99359994 4.79563863 -2 3.1875 C-1.34 2.135625 -0.68 1.08375 0 0 Z " fill="#E30A22" transform="translate(152,167)"/>
<path d="M0 0 C6.04984749 6.98059326 10.25821997 15.34727123 14.60546875 23.4453125 C15.8301123 25.68877715 17.11682535 27.87499078 18.4375 30.0625 C18.953125 31.031875 19.46875 32.00125 20 33 C19.67 33.66 19.34 34.32 19 35 C18.34 34.67 17.68 34.34 17 34 C17 33.01 17 32.02 17 31 C16.34 31 15.68 31 15 31 C15 29.68 15 28.36 15 27 C14.34 27 13.68 27 13 27 C12.32591692 25.73308493 11.66099503 24.46129251 11 23.1875 C10.443125 22.12595703 10.443125 22.12595703 9.875 21.04296875 C9 19 9 19 9 16 C8.34 16 7.68 16 7 16 C7 15.01 7 14.02 7 13 C5.68 13.33 4.36 13.66 3 14 C1.39274365 10.78548731 1.94251815 7.56387464 2 4 C1.34 4 0.68 4 0 4 C0 2.68 0 1.36 0 0 Z " fill="#BC1225" transform="translate(400,230)"/>
<path d="M0 0 C1 2 1 2 0.0625 5.125 C-0.4634375 6.548125 -0.4634375 6.548125 -1 8 C-1.66 8 -2.32 8 -3 8 C-3 8.99 -3 9.98 -3 11 C-3.66 11 -4.32 11 -5 11 C-4.87625 11.99 -4.87625 11.99 -4.75 13 C-5.10103641 17.21243694 -6.96960773 20.34710677 -9 24 C-9.66 24 -10.32 24 -11 24 C-11.33 25.65 -11.66 27.3 -12 29 C-13.65 29.33 -15.3 29.66 -17 30 C-14.40396216 24.6841923 -11.41280911 19.583884 -8.5 14.4375 C-7.90574219 13.38369141 -7.31148437 12.32988281 -6.69921875 11.24414062 C-5.84263672 9.72916992 -5.84263672 9.72916992 -4.96875 8.18359375 C-4.18661133 6.79998657 -4.18661133 6.79998657 -3.38867188 5.38842773 C-2.32218334 3.55413495 -1.17696191 1.76544286 0 0 Z " fill="#CE102C" transform="translate(232,30)"/>
<path d="M0 0 C4.1878844 4.76727617 7.13645904 10.19411135 10.25 15.6875 C11.08144531 17.13092773 11.08144531 17.13092773 11.9296875 18.60351562 C12.45304687 19.52197266 12.97640625 20.44042969 13.515625 21.38671875 C13.99290039 22.22420654 14.47017578 23.06169434 14.96191406 23.92456055 C16 26 16 26 16 28 C15.34 28 14.68 28 14 28 C14 27.01 14 26.02 14 25 C12.02 24.34 10.04 23.68 8 23 C8 21.35 8 19.7 8 18 C6.68 18 5.36 18 4 18 C4.875 13.25 4.875 13.25 6 11 C5.34 11 4.68 11 4 11 C4 10.01 4 9.02 4 8 C3.34 8 2.68 8 2 8 C2 7.01 2 6.02 2 5 C1.34 5 0.68 5 0 5 C0 3.35 0 1.7 0 0 Z " fill="#C91026" transform="translate(373,184)"/>
<path d="M0 0 C1 2 1 2 1 6 C0.34 6 -0.32 6 -1 6 C-0.67 8.31 -0.34 10.62 0 13 C-2 14 -2 14 -5 14 C-7.60304875 16.03744803 -8.62495796 18.10106837 -9.6875 21.1875 C-10.06455078 22.26064453 -10.06455078 22.26064453 -10.44921875 23.35546875 C-10.63097656 23.89816406 -10.81273437 24.44085938 -11 25 C-11.66 25 -12.32 25 -13 25 C-13.33 26.65 -13.66 28.3 -14 30 C-14.99 30 -15.98 30 -17 30 C-15.73902405 26.65694748 -14.30980952 23.66550265 -12.4375 20.625 C-11.91800781 19.77421875 -11.39851562 18.9234375 -10.86328125 18.046875 C-10.24839844 17.04140625 -9.63351563 16.0359375 -9 15 C-7.37045325 12.2943893 -5.7478865 9.58460943 -4.125 6.875 C-3.33605276 5.55982668 -2.54699944 4.24471699 -1.7578125 2.9296875 C-1.17773438 1.96289062 -0.59765625 0.99609375 0 0 Z " fill="#BD1329" transform="translate(190,102)"/>
<path d="M0 0 C0 0.66 0 1.32 0 2 C-0.66 2 -1.32 2 -2 2 C-2.07427838 5.34252724 -2.06546953 7.8035914 -1 11 C-1.66 11 -2.32 11 -3 11 C-3 11.66 -3 12.32 -3 13 C-8.875 15 -8.875 15 -12 15 C-10.20733907 9.78498639 -6.51280634 0 0 0 Z " fill="#D30D25" transform="translate(253,1)"/>
<path d="M0 0 C5.65772659 0.49629181 9.77968029 1.62712741 15 4 C17.97310454 4.90254959 20.94902108 5.7341149 23.9609375 6.49609375 C25.65607639 6.94236501 27.33049694 7.46575902 29 8 C29.33 8.66 29.66 9.32 30 10 C30.99 10.2165625 30.99 10.2165625 32 10.4375 C32.66 10.623125 33.32 10.80875 34 11 C34.495 12.485 34.495 12.485 35 14 C27.36903159 11.54339947 19.91028089 8.71145927 12.4375 5.8125 C11.23802734 5.34908203 10.03855469 4.88566406 8.80273438 4.40820312 C5.8677723 3.27397475 2.9335536 2.13786515 0 1 C0 0.67 0 0.34 0 0 Z " fill="#C0112A" transform="translate(200,430)"/>
<path d="M0 0 C5.61 0 11.22 0 17 0 C17 0.33 17 0.66 17 1 C13.31341552 1.81669118 9.62558072 2.6275948 5.9375 3.4375 C4.89916016 3.66759766 3.86082031 3.89769531 2.79101562 4.13476562 C-2.46113217 5.2852361 -7.66279803 6.34136657 -13 7 C-12.34 5.35 -11.68 3.7 -11 2 C-7.37 2 -3.74 2 0 2 C0 1.34 0 0.68 0 0 Z " fill="#BC1325" transform="translate(93,426)"/>
<path d="M0 0 C3.45615321 3.26198024 5.74238196 7.05668643 8.25 11.0625 C8.72179687 11.79533203 9.19359375 12.52816406 9.6796875 13.28320312 C10.12054688 13.98509766 10.56140625 14.68699219 11.015625 15.41015625 C11.42071289 16.05090088 11.82580078 16.69164551 12.24316406 17.35180664 C12.61779785 18.16766235 12.61779785 18.16766235 13 19 C12.67 19.66 12.34 20.32 12 21 C11.34 20.67 10.68 20.34 10 20 C10 19.01 10 18.02 10 17 C8.68 16.34 7.36 15.68 6 15 C6 13.68 6 12.36 6 11 C4.68 11.33 3.36 11.66 2 12 C-0.60018816 8.09971775 -0.15085514 4.52565431 0 0 Z " fill="#BB1327" transform="translate(355,154)"/>
<path d="M0 0 C0 0.66 0 1.32 0 2 C3.96 2 7.92 2 12 2 C8.81886649 4.12075567 6.07995044 5.06017176 2.4375 6.1875 C1.28121094 6.55230469 0.12492187 6.91710937 -1.06640625 7.29296875 C-4 8 -4 8 -6 7 C-4.68 6.34 -3.36 5.68 -2 5 C-4.64 5.33 -7.28 5.66 -10 6 C-8.94901234 3.13367003 -8.33137046 2.16993357 -5.5625 0.75 C-3 0 -3 0 0 0 Z " fill="#CD0F28" transform="translate(82,340)"/>
<path d="M0 0 C0 3.69418201 -1.28179295 5.77836178 -3 9 C-4.65 9 -6.3 9 -8 9 C-8 11.31 -8 13.62 -8 16 C-10.76264289 16.59732819 -13.16032769 17 -16 17 C-14.65396955 13.96132181 -13.19575827 11.99614388 -10.7421875 9.765625 C-10.11699219 9.19199219 -9.49179687 8.61835938 -8.84765625 8.02734375 C-8.19667969 7.44082031 -7.54570313 6.85429687 -6.875 6.25 C-6.21628906 5.64800781 -5.55757812 5.04601562 -4.87890625 4.42578125 C-3.25731491 2.94519785 -1.63097546 1.47022875 0 0 Z " fill="#D00F29" transform="translate(44,406)"/>
<path d="M0 0 C0.66 0.33 1.32 0.66 2 1 C-1.89572865 7.73613024 -5.83024925 14.42948367 -10 21 C-12 18 -12 18 -12 16 C-11.01 16 -10.02 16 -9 16 C-9 13.69 -9 11.38 -9 9 C-8.34 8.67 -7.68 8.34 -7 8 C-7 8.66 -7 9.32 -7 10 C-6.34 10 -5.68 10 -5 10 C-4.67 8.35 -4.34 6.7 -4 5 C-3.34 5 -2.68 5 -2 5 C-1.34 3.35 -0.68 1.7 0 0 Z " fill="#D10D24" transform="translate(223,192)"/>
<path d="M0 0 C3.64252558 4.27378294 6.47092061 8.86703655 9.3125 13.6875 C9.77978516 14.45900391 10.24707031 15.23050781 10.72851562 16.02539062 C11.38303711 17.13237305 11.38303711 17.13237305 12.05078125 18.26171875 C12.44950439 18.93162842 12.84822754 19.60153809 13.2590332 20.29174805 C13.50355225 20.85547119 13.74807129 21.41919434 14 22 C13.67 22.66 13.34 23.32 13 24 C11.0625 23.1875 11.0625 23.1875 9 22 C8.67 21.01 8.34 20.02 8 19 C8.33 18.34 8.66 17.68 9 17 C8.34 17 7.68 17 7 17 C6.17886823 15.60922699 5.36847505 14.21211107 4.5625 12.8125 C4.11003906 12.03519531 3.65757812 11.25789063 3.19140625 10.45703125 C1.97608501 7.95068023 1.42373425 5.74209635 1 3 C0.34 3 -0.32 3 -1 3 C-0.67 2.01 -0.34 1.02 0 0 Z " fill="#C01129" transform="translate(308,73)"/>
<path d="M0 0 C4.20782635 4.69334478 7.45213641 10.24646076 10 16 C9.67 16.66 9.34 17.32 9 18 C8.34 17.67 7.68 17.34 7 17 C7 16.01 7 15.02 7 14 C5.824375 13.8453125 5.824375 13.8453125 4.625 13.6875 C2 13 2 13 0 10 C0.875 7.3125 0.875 7.3125 2 5 C1.34 5 0.68 5 0 5 C0 3.35 0 1.7 0 0 Z " fill="#C91029" transform="translate(422,268)"/>
<path d="M0 0 C0 2.83967231 -0.40267181 5.23735711 -1 8 C-0.01 8 0.98 8 2 8 C1.67 9.65 1.34 11.3 1 13 C-0.32 12.34 -1.64 11.68 -3 11 C-3.680625 11.99 -3.680625 11.99 -4.375 13 C-4.91125 13.66 -5.4475 14.32 -6 15 C-6.66 15 -7.32 15 -8 15 C-6.51194289 9.19657726 -3.40902445 4.82409121 0 0 Z " fill="#D20D2A" transform="translate(72,304)"/>
<path d="M0 0 C0.33 0.66 0.66 1.32 1 2 C0.67 2.804375 0.34 3.60875 0 4.4375 C-1.33657887 7.05605906 -1.33657887 7.05605906 0 10 C1.65 10 3.3 10 5 10 C2.64031256 12.09749995 1.45383006 12.96905704 -1.75 13.1875 C-2.4925 13.125625 -3.235 13.06375 -4 13 C-4.8125 11 -4.8125 11 -5 8 C-3.58832428 5.15031132 -1.85115239 2.58136476 0 0 Z " fill="#CE0E24" transform="translate(5,451)"/>
<path d="M0 0 C0.99 0.33 1.98 0.66 3 1 C-0.96 7.93 -4.92 14.86 -9 22 C-10 18 -10 18 -9 16 C-8.34 16 -7.68 16 -7 16 C-7.33 14.68 -7.66 13.36 -8 12 C-7.38125 11.649375 -6.7625 11.29875 -6.125 10.9375 C-3.24445747 8.31112298 -2.84537162 5.73372463 -2 2 C-1.34 2 -0.68 2 0 2 C0 1.34 0 0.68 0 0 Z " fill="#BE1226" transform="translate(206,219)"/>
<path d="M0 0 C0.33 0 0.66 0 1 0 C1.50610724 6.07328688 0.04157942 9.77228537 -3 15 C-4.32 14.67 -5.64 14.34 -7 14 C-5.56032356 8.76481294 -3.18303389 4.36973991 0 0 Z " fill="#C9102A" transform="translate(198,88)"/>
<path d="M0 0 C1.32 0.66 2.64 1.32 4 2 C4 2.99 4 3.98 4 5 C3.01 5 2.02 5 1 5 C1 6.65 1 8.3 1 10 C-0.65 9.67 -2.3 9.34 -4 9 C-3.6875 5.625 -3.6875 5.625 -3 2 C-2.01 1.34 -1.02 0.68 0 0 Z " fill="#EA0827" transform="translate(281,343)"/>
<path d="M0 0 C7.68243753 4.24950449 14.33564306 9.29855395 21 15 C20.01 15.33 19.02 15.66 18 16 C18 15.34 18 14.68 18 14 C15.97833874 12.97781172 13.95415114 11.97898948 11.89453125 11.03515625 C11.20746094 10.71417969 10.52039063 10.39320313 9.8125 10.0625 C9.11769531 9.74410156 8.42289062 9.42570312 7.70703125 9.09765625 C6 8 6 8 5 5 C2.98491642 4.26676204 2.98491642 4.26676204 1 4 C0.67 2.68 0.34 1.36 0 0 Z " fill="#B61129" transform="translate(251,315)"/>
<path d="M0 0 C2.02045442 0.60183749 4.02111039 1.27306096 6 2 C7.24546405 4.49092811 6.7767578 5.41080733 6 8 C6.99 7.67 7.98 7.34 9 7 C9.97608217 9.92824652 10.08226668 11.95613276 10 15 C9.34 15 8.68 15 8 15 C6.66407203 12.6889639 5.33115569 10.37628245 4 8.0625 C3.6184375 7.40314453 3.236875 6.74378906 2.84375 6.06445312 C0 1.11328125 0 1.11328125 0 0 Z " fill="#CD132B" transform="translate(389,361)"/>
<path d="M0 0 C0.66 0.99 1.32 1.98 2 3 C1.34 3 0.68 3 0 3 C0 3.99 0 4.98 0 6 C1.65 5.34 3.3 4.68 5 4 C4.6875 5.875 4.6875 5.875 4 8 C1 10 1 10 -1.6875 9.625 C-2.450625 9.41875 -3.21375 9.2125 -4 9 C-4 9.99 -4 10.98 -4 12 C-4.66 12 -5.32 12 -6 12 C-4.43358249 7.69235185 -2.31663844 3.93828536 0 0 Z " fill="#CE0F28" transform="translate(163,148)"/>
<path d="M0 0 C0.33 0.66 0.66 1.32 1 2 C0 4 0 4 -1 5 C-1 5.99 -1 6.98 -1 8 C-1.62599617 9.68236471 -2.28752268 11.3523962 -3 13 C-4.32 12.34 -5.64 11.68 -7 11 C-7.99 12.32 -8.98 13.64 -10 15 C-10.66 14.67 -11.32 14.34 -12 14 C-8.04 9.38 -4.08 4.76 0 0 Z " fill="#C50F24" transform="translate(27,423)"/>
<path d="M0 0 C0.99 0.33 1.98 0.66 3 1 C1.73586702 3.44118791 0.46407987 5.87783192 -0.8125 8.3125 C-1.16892578 9.00279297 -1.52535156 9.69308594 -1.89257812 10.40429688 C-2.24384766 11.07138672 -2.59511719 11.73847656 -2.95703125 12.42578125 C-3.27647705 13.03848877 -3.59592285 13.65119629 -3.92504883 14.2824707 C-5.08538924 16.13643272 -6.40296797 17.51434256 -8 19 C-8.20086443 15.28400809 -8.1519437 14.22791555 -6 11 C-5.34 11 -4.68 11 -4 11 C-3.855625 10.236875 -3.71125 9.47375 -3.5625 8.6875 C-3 6 -3 6 -2 3 C-1.34 3 -0.68 3 0 3 C0 2.01 0 1.02 0 0 Z " fill="#BB102D" transform="translate(193,241)"/>
<path d="M0 0 C4.05819183 0.65503282 7.53971282 1.94559121 11.3125 3.5625 C12.38113281 4.01753906 13.44976562 4.47257812 14.55078125 4.94140625 C15.76314453 5.46541016 15.76314453 5.46541016 17 6 C17 6.33 17 6.66 17 7 C14.03 6.67 11.06 6.34 8 6 C8 5.34 8 4.68 8 4 C6.02 4.66 4.04 5.32 2 6 C1.34 5.34 0.68 4.68 0 4 C0 2.68 0 1.36 0 0 Z " fill="#C31028" transform="translate(288,401)"/>
<path d="M0 0 C2 1.0625 2 1.0625 4 3 C4.46268457 6.63537875 4.40708036 9.06610977 2.9375 12.4375 C1 14 1 14 -2.375 14.4375 C-6.08675828 13.98952917 -8.01047802 13.1741978 -11 11 C-9 10 -9 10 -6.8359375 10.55859375 C-6.02382813 10.84863281 -5.21171875 11.13867188 -4.375 11.4375 C-3.55773437 11.72496094 -2.74046875 12.01242187 -1.8984375 12.30859375 C-1.27195312 12.53675781 -0.64546875 12.76492188 0 13 C0 11.35 0 9.7 0 8 C0.99 8 1.98 8 3 8 C2.690625 7.236875 2.38125 6.47375 2.0625 5.6875 C1.32106407 3.81210323 0.63771783 1.91315348 0 0 Z " fill="#B61128" transform="translate(282,340)"/>
<path d="M0 0 C0.33 0 0.66 0 1 0 C1.12375 0.78375 1.2475 1.5675 1.375 2.375 C1.79117993 5.14057822 1.79117993 5.14057822 4 7 C3.67 7.66 3.34 8.32 3 9 C2.01 8.67 1.02 8.34 0 8 C-0.66 9.32 -1.32 10.64 -2 12 C-3.32 11.67 -4.64 11.34 -6 11 C-4.02 7.37 -2.04 3.74 0 0 Z " fill="#C3102A" transform="translate(116,228)"/>
<path d="M0 0 C1.19156292 4.76625167 0.3415946 5.87879351 -2 10 C-2.66 10 -3.32 10 -4 10 C-4.185625 11.670625 -4.185625 11.670625 -4.375 13.375 C-5 17 -5 17 -7 19 C-7.99 18.67 -8.98 18.34 -10 18 C-6.7 12.06 -3.4 6.12 0 0 Z " fill="#C11228" transform="translate(127,209)"/>
<path d="M0 0 C4.99450259 0.6853655 9.5967594 2.02015651 14.375 3.5625 C15.11105469 3.79646484 15.84710938 4.03042969 16.60546875 4.27148438 C18.40481238 4.8440028 20.20257277 5.42149314 22 6 C18.66827126 8.06397117 16.7383836 8.12083271 12.9375 7.3125 C12.08027344 7.14363281 11.22304688 6.97476562 10.33984375 6.80078125 C7.79100394 5.9284738 6.80349486 4.93823873 5 3 C2.39388923 2.27802838 2.39388923 2.27802838 0 2 C0 1.34 0 0.68 0 0 Z " fill="#AF1326" transform="translate(307,409)"/>
<path d="M0 0 C5.28 0 10.56 0 16 0 C16 0.33 16 0.66 16 1 C12.41727273 1.50440793 8.83372823 2.00275771 5.25 2.5 C3.72632813 2.71462891 3.72632813 2.71462891 2.171875 2.93359375 C0.70234375 3.13662109 0.70234375 3.13662109 -0.796875 3.34375 C-2.14797363 3.53227539 -2.14797363 3.53227539 -3.52636719 3.72460938 C-6 4 -6 4 -10 4 C-9.67 3.01 -9.34 2.02 -9 1 C-6.03 1.33 -3.06 1.66 0 2 C0 1.34 0 0.68 0 0 Z " fill="#BC152A" transform="translate(135,331)"/>
<path d="M0 0 C1.98 0 3.96 0 6 0 C6 0.66 6 1.32 6 2 C6.62648438 1.96519531 7.25296875 1.93039062 7.8984375 1.89453125 C8.71570313 1.86746094 9.53296875 1.84039062 10.375 1.8125 C11.18710937 1.77769531 11.99921875 1.74289062 12.8359375 1.70703125 C13.55007813 1.80371094 14.26421875 1.90039062 15 2 C15.99 3.485 15.99 3.485 17 5 C16.67 5.66 16.34 6.32 16 7 C10.53262809 5.25192871 5.24175152 3.34205919 0 1 C0 0.67 0 0.34 0 0 Z " fill="#C11026" transform="translate(278,465)"/>
<path d="M0 0 C8 9.42857143 8 9.42857143 8 14 C7.34 14 6.68 14 6 14 C5.7525 13.195625 5.505 12.39125 5.25 11.5625 C4.27761141 8.828919 4.27761141 8.828919 1.875 8.1875 C1.25625 8.125625 0.6375 8.06375 0 8 C-0.38063221 5.6739143 -0.71269945 3.33944736 -1 1 C-0.67 0.67 -0.34 0.34 0 0 Z " fill="#C5102B" transform="translate(451,318)"/>
<path d="M0 0 C0.33 0.66 0.66 1.32 1 2 C0.01453001 3.67529898 -0.98940479 5.33973644 -2 7 C-2.52410377 8.34502141 -3.02301756 9.70005547 -3.5 11.0625 C-4.60546425 14.12423083 -5.71072368 16.61118993 -8 19 C-8.66 19 -9.32 19 -10 19 C-8.62394084 14.23448987 -6.53221934 10.2751447 -3.875 6.125 C-3.50246094 5.53203125 -3.12992187 4.9390625 -2.74609375 4.328125 C-1.83635 2.8818657 -0.91896202 1.44041954 0 0 Z " fill="#BA112B" transform="translate(94,266)"/>
<path d="M0 0 C1.44508572 2.89017144 0.48038102 5.02460025 -0.33203125 8.0234375 C-1.16363628 10.48421027 -2.12106239 12.1962199 -4 14 C-4.99 14 -5.98 14 -7 14 C-5.23570801 9.02790438 -2.6060834 4.56561939 0 0 Z " fill="#C5102B" transform="translate(171,134)"/>
<path d="M0 0 C-3.69067522 2.01052129 -7.59431086 3.34436173 -11.5625 4.6875 C-12.23474609 4.92533203 -12.90699219 5.16316406 -13.59960938 5.40820312 C-18.6473984 7.11753387 -18.6473984 7.11753387 -22 6 C-15.01835238 1.54362918 -8.35301244 -0.42835961 0 0 Z " fill="#BE1224" transform="translate(80,433)"/>
<path d="M0 0 C2.96655321 3.55854831 5.45858103 7.1982268 7.8125 11.1875 C8.43769531 12.23292969 9.06289063 13.27835937 9.70703125 14.35546875 C10.13371094 15.22816406 10.56039063 16.10085938 11 17 C10.67 17.66 10.34 18.32 10 19 C8 17.8125 8 17.8125 6 16 C5.75 13.3125 5.75 13.3125 6 11 C5.34 11 4.68 11 4 11 C2.5393715 8.35261084 2 7.10551666 2 4 C1.34 4 0.68 4 0 4 C0 2.68 0 1.36 0 0 Z " fill="#B8132A" transform="translate(477,362)"/>
<path d="M0 0 C1.29312675 2.5862535 0.84290464 3.76416975 0.25 6.5625 C0.09015625 7.36816406 -0.0696875 8.17382812 -0.234375 9.00390625 C-0.48703125 9.66261719 -0.7396875 10.32132812 -1 11 C-1.99 11.33 -2.98 11.66 -4 12 C-4.99 13.485 -4.99 13.485 -6 15 C-6.66 15 -7.32 15 -8 15 C-6.62712658 11.30123909 -4.93644547 8.0485524 -2.875 4.6875 C-2.33617187 3.80449219 -1.79734375 2.92148437 -1.2421875 2.01171875 C-0.83226562 1.34785156 -0.42234375 0.68398438 0 0 Z " fill="#C61025" transform="translate(59,326)"/>
<path d="M0 0 C0.99 0.33 1.98 0.66 3 1 C3 1.66 3 2.32 3 3 C3.66 3 4.32 3 5 3 C5 4.32 5 5.64 5 7 C5.66 7 6.32 7 7 7 C7.48198463 8.24891614 7.96045677 9.49918808 8.4375 10.75 C8.70433594 11.44609375 8.97117187 12.1421875 9.24609375 12.859375 C9.96146693 14.89059003 10.51365652 16.9035291 11 19 C8.03073619 15.44608026 5.57681464 11.81482005 3.25 7.8125 C2.63640625 6.76707031 2.0228125 5.72164063 1.390625 4.64453125 C0 2 0 2 0 0 Z " fill="#BA142C" transform="translate(366,320)"/>
<path d="M0 0 C1.77119803 0.14133499 3.54195287 0.28823208 5.3125 0.4375 C6.29863281 0.51871094 7.28476562 0.59992188 8.30078125 0.68359375 C11 1 11 1 14 2 C14 2.99 14 3.98 14 5 C14.99 5.33 15.98 5.66 17 6 C16.01 6.495 16.01 6.495 15 7 C12.40267775 6.09239638 9.90549025 5.12932108 7.375 4.0625 C6.31539063 3.62647461 6.31539063 3.62647461 5.234375 3.18164062 C3.48672427 2.46132512 1.74298085 1.73154306 0 1 C0 0.67 0 0.34 0 0 Z " fill="#C21027" transform="translate(294,472)"/>
<path d="M0 0 C1.98 0 3.96 0 6 0 C5.67 0.99 5.34 1.98 5 3 C3.68 3 2.36 3 1 3 C1.33 3.99 1.66 4.98 2 6 C-2.29 5.01 -6.58 4.02 -11 3 C-11 2.67 -11 2.34 -11 2 C-7.7 2.33 -4.4 2.66 -1 3 C-0.67 2.01 -0.34 1.02 0 0 Z " fill="#CD0F28" transform="translate(196,424)"/>
<path d="M0 0 C7 8.44827586 7 8.44827586 7 13 C5.68 13.33 4.36 13.66 3 14 C1.39274365 10.78548731 1.94251815 7.56387464 2 4 C1.34 4 0.68 4 0 4 C0 2.68 0 1.36 0 0 Z " fill="#C80F2D" transform="translate(400,230)"/>
<path d="M0 0 C0.33 0.66 0.66 1.32 1 2 C-0.43359375 4.8203125 -0.43359375 4.8203125 -2.4375 8.125 C-3.09621094 9.22070312 -3.75492188 10.31640625 -4.43359375 11.4453125 C-4.95050781 12.28835937 -5.46742188 13.13140625 -6 14 C-6.75929472 11.01386614 -7.4118332 8.02485781 -8 5 C-7.34 5 -6.68 5 -6 5 C-5.67 4.34 -5.34 3.68 -5 3 C-4.01 3 -3.02 3 -2 3 C-1.34 2.01 -0.68 1.02 0 0 Z " fill="#C30F24" transform="translate(242,160)"/>
<path d="M0 0 C1.45606519 4.52092968 0.27032841 7.51648796 -1 12 C-2.32 12 -3.64 12 -5 12 C-5 12.66 -5 13.32 -5 14 C-5.66 14 -6.32 14 -7 14 C-5.23570801 9.02790438 -2.6060834 4.56561939 0 0 Z " fill="#C40F2A" transform="translate(206,74)"/>
<path d="M0 0 C0.33 0.66 0.66 1.32 1 2 C2.03060547 1.96519531 2.03060547 1.96519531 3.08203125 1.9296875 C4.43361328 1.90261719 4.43361328 1.90261719 5.8125 1.875 C6.70582031 1.85179687 7.59914062 1.82859375 8.51953125 1.8046875 C11 2 11 2 14 4 C11.69 4 9.38 4 7 4 C6.67 4.99 6.34 5.98 6 7 C3.11562221 5.70700306 1.12780579 4.34058637 -1 2 C-0.67 1.34 -0.34 0.68 0 0 Z " fill="#D70D26" transform="translate(220,369)"/>
<path d="M0 0 C0.845625 0.185625 1.69125 0.37125 2.5625 0.5625 C6.2773282 1.03529632 9.32974273 0.66064631 13 0 C10.78772032 2.21227968 9.07123506 2.95767096 6.1875 4.125 C4.90939453 4.65480469 4.90939453 4.65480469 3.60546875 5.1953125 C0.91980708 6.02476723 -1.20789919 6.15038245 -4 6 C-2.68 5.67 -1.36 5.34 0 5 C-0.33 4.01 -0.66 3.02 -1 2 C-0.67 1.34 -0.34 0.68 0 0 Z " fill="#C31028" transform="translate(56,350)"/>
<path d="M0 0 C0 3.72207387 -1.17964568 5.46395589 -3 8.6875 C-3.8353125 10.17830078 -3.8353125 10.17830078 -4.6875 11.69921875 C-5.3371875 12.83810547 -5.3371875 12.83810547 -6 14 C-8 11 -8 11 -8 8 C-7.34 8 -6.68 8 -6 8 C-5.67 6.68 -5.34 5.36 -5 4 C-4.34 4.33 -3.68 4.66 -3 5 C-3 3.68 -3 2.36 -3 1 C-2.01 0.67 -1.02 0.34 0 0 Z " fill="#C71024" transform="translate(232,178)"/>
<path d="M0 0 C0.33 1.32 0.66 2.64 1 4 C0.34 4 -0.32 4 -1 4 C-0.67 5.98 -0.34 7.96 0 10 C-0.639375 10.103125 -1.27875 10.20625 -1.9375 10.3125 C-2.9584375 10.6528125 -2.9584375 10.6528125 -4 11 C-4.33 11.99 -4.66 12.98 -5 14 C-5.66 14 -6.32 14 -7 14 C-5.53967505 8.68972746 -3.01679014 4.53669968 0 0 Z " fill="#C81129" transform="translate(240,16)"/>
<path d="M0 0 C5.31027254 1.46032495 9.46330032 3.98320986 14 7 C10.7169902 8.6415049 7.57454967 7.51888624 4 7 C4.33 5.68 4.66 4.36 5 3 C3.35 2.67 1.7 2.34 0 2 C0 1.34 0 0.68 0 0 Z " fill="#C41228" transform="translate(252,381)"/>
<path d="M0 0 C8 9.42857143 8 9.42857143 8 14 C7.01 14 6.02 14 5 14 C4.67 12.35 4.34 10.7 4 9 C3.01 8.67 2.02 8.34 1 8 C0.67 5.36 0.34 2.72 0 0 Z " fill="#BF112E" transform="translate(347,140)"/>
<path d="M0 0 C1 2 1 2 1 6 C0.34 6 -0.32 6 -1 6 C-0.67 8.31 -0.34 10.62 0 13 C-0.99 13.495 -0.99 13.495 -2 14 C-2.66 13.67 -3.32 13.34 -4 13 C-4.5497272 7.36529617 -2.95047835 4.61012242 0 0 Z " fill="#D10D2A" transform="translate(190,102)"/>
<path d="M0 0 C0 0.99 0 1.98 0 3 C0.8971875 3.2165625 0.8971875 3.2165625 1.8125 3.4375 C3.56150404 3.8872439 5.28677023 4.42892341 7 5 C7 5.99 7 6.98 7 8 C2.25981099 6.16508812 -2.36413251 4.08058541 -7 2 C-7 1.67 -7 1.34 -7 1 C-2.25 0 -2.25 0 0 0 Z " fill="#C50E26" transform="translate(257,450)"/>
<path d="M0 0 C-0.165 0.61875 -0.33 1.2375 -0.5 1.875 C-1.07634644 3.96063386 -1.07634644 3.96063386 -1 6 C-2.32 6 -3.64 6 -5 6 C-5 5.34 -5 4.68 -5 4 C-4.34 4 -3.68 4 -3 4 C-3 3.34 -3 2.68 -3 2 C-4.98 2.33 -6.96 2.66 -9 3 C-9 3.66 -9 4.32 -9 5 C-10.65 5 -12.3 5 -14 5 C-10.63156097 2.05261585 -4.40469071 -2.20234535 0 0 Z " fill="#C61029" transform="translate(102,372)"/>
<path d="M0 0 C1 2 1 2 0.0625 5.125 C-0.288125 6.07375 -0.63875 7.0225 -1 8 C-1.66 8 -2.32 8 -3 8 C-3 8.99 -3 9.98 -3 11 C-3.66 11 -4.32 11 -5 11 C-5 12.32 -5 13.64 -5 15 C-6.98 15.99 -6.98 15.99 -9 17 C-7.51481201 12.95698825 -5.57122002 9.38853744 -3.375 5.6875 C-2.74335938 4.61886719 -2.11171875 3.55023438 -1.4609375 2.44921875 C-0.97882813 1.64097656 -0.49671875 0.83273438 0 0 Z " fill="#B8122C" transform="translate(232,30)"/>
<path d="M0 0 C7.25469544 0.41854012 13.53919606 2.6817311 20 6 C20.33 6.66 20.66 7.32 21 8 C13.8821847 5.96192707 6.93292719 3.59655258 0 1 C0 0.67 0 0.34 0 0 Z " fill="#B11428" transform="translate(200,430)"/>
<path d="M0 0 C0.66 1.32 1.32 2.64 2 4 C-3.94 3.34 -9.88 2.68 -16 2 C-16 1.67 -16 1.34 -16 1 C-10.65097076 0.40801257 -5.39115154 -0.14187241 0 0 Z " fill="#BE0F29" transform="translate(180,422)"/>
<path d="M0 0 C8.57142857 1 8.57142857 1 12 2 C12 2.99 12 3.98 12 5 C12.66 5 13.32 5 14 5 C14 5.66 14 6.32 14 7 C9.0276578 5.50829734 4.58154261 3.39542583 0 1 C0 0.67 0 0.34 0 0 Z " fill="#BC1128" transform="translate(264,458)"/>
<path d="M0 0 C0.99 0.33 1.98 0.66 3 1 C4.58072959 4.28305377 5.84845643 7.54536928 7 11 C7.66 11 8.32 11 9 11 C9.33 11.99 9.66 12.98 10 14 C9.34 14.66 8.68 15.32 8 16 C6.66141476 13.71125827 5.32898986 11.41930344 4 9.125 C3.6184375 8.47402344 3.236875 7.82304687 2.84375 7.15234375 C0 2.2265625 0 2.2265625 0 0 Z " fill="#BD132C" transform="translate(380,344)"/>
<path d="M0 0 C0.625 1.8125 0.625 1.8125 1 4 C0.01 5.485 0.01 5.485 -1 7 C-1.66 7 -2.32 7 -3 7 C-3.144375 7.763125 -3.28875 8.52625 -3.4375 9.3125 C-4 12 -4 12 -5 15 C-5.99 15 -6.98 15 -8 15 C-6.62712658 11.30123909 -4.93644547 8.0485524 -2.875 4.6875 C-2.33617187 3.80449219 -1.79734375 2.92148438 -1.2421875 2.01171875 C-0.83226562 1.34785156 -0.42234375 0.68398437 0 0 Z " fill="#B91228" transform="translate(152,167)"/>
<path d="M0 0 C0.33 1.32 0.66 2.64 1 4 C0.01 4.495 0.01 4.495 -1 5 C-1.65772428 8.02934491 -1.65772428 8.02934491 -2 11 C-3.32 11 -4.64 11 -6 11 C-6 11.66 -6 12.32 -6 13 C-6.66 13 -7.32 13 -8 13 C-6.53181332 9.89257577 -4.79975 7.09528261 -2.875 4.25 C-2.33617187 3.45078125 -1.79734375 2.6515625 -1.2421875 1.828125 C-0.62730469 0.92320312 -0.62730469 0.92320312 0 0 Z " fill="#BD112A" transform="translate(14,438)"/>
<path d="M0 0 C6.15222436 0.43173504 9.81917949 1.65405342 15 5 C15 5.66 15 6.32 15 7 C9.76727367 5.36041242 4.84803364 3.61047965 0 1 C0 0.67 0 0.34 0 0 Z " fill="#B81128" transform="translate(235,444)"/>
<path d="M0 0 C1.41965142 0.42771549 2.8356224 0.86765543 4.25 1.3125 C5.43335938 1.67794922 5.43335938 1.67794922 6.640625 2.05078125 C9 3 9 3 13 6 C9.04 5.67 5.08 5.34 1 5 C0.67 3.35 0.34 1.7 0 0 Z " fill="#C11128" transform="translate(239,375)"/>
<path d="M0 0 C-4.37924925 2.45665202 -8.03167534 3.41549122 -13 4 C-13.33 4.33 -13.66 4.66 -14 5 C-15.99958364 5.04080783 -18.00045254 5.04254356 -20 5 C-16.85418354 2.90278902 -14.1591082 1.94332914 -10.5625 0.8125 C-9.42941406 0.44769531 -8.29632813 0.08289063 -7.12890625 -0.29296875 C-4.1660003 -0.96248932 -2.77995035 -1.07236414 0 0 Z " fill="#BA152B" transform="translate(122,366)"/>
<path d="M0 0 C1.29608947 0.93137592 2.58671632 1.8703566 3.875 2.8125 C4.59429687 3.33457031 5.31359375 3.85664063 6.0546875 4.39453125 C8 6 8 6 10 9 C7.25 8.875 7.25 8.875 4 8 C0 3.05263158 0 3.05263158 0 0 Z " fill="#C10F28" transform="translate(272,331)"/>
<path d="M0 0 C2.9555377 2.75170751 5.11563315 5.41970299 7 9 C7 9.66 7 10.32 7 11 C4.13275314 10.42655063 3.1385485 10.1385485 1 8 C1 7.01 1 6.02 1 5 C0.68911632 3.32900023 0.35919668 1.66128463 0 0 Z " fill="#C0102C" transform="translate(324,101)"/>
<path d="M0 0 C0 3.91661547 -0.79225633 5.75737649 -3 9 C-5.69225771 10.13106685 -8.08467548 10.52207795 -11 11 C-7.33333333 7.33333333 -3.66666667 3.66666667 0 0 Z " fill="#BE122A" transform="translate(44,406)"/>
<path d="M0 0 C5.69068698 2.4573421 8.72139955 5.123149 11.25 10.8125 C11.4975 11.534375 11.745 12.25625 12 13 C10.125 12.875 10.125 12.875 8 12 C6.875 9.0625 6.875 9.0625 6 6 C3.8614515 3.8614515 2.86724686 3.57344937 0 3 C0 2.01 0 1.02 0 0 Z " fill="#B91128" transform="translate(261,0)"/>
<path d="M0 0 C1.32 0.33 2.64 0.66 4 1 C3.57847656 1.66386719 3.15695313 2.32773437 2.72265625 3.01171875 C2.17480469 3.89472656 1.62695312 4.77773438 1.0625 5.6875 C0.51722656 6.55761719 -0.02804688 7.42773438 -0.58984375 8.32421875 C-1.97167172 10.94624689 -2.58480173 13.08310075 -3 16 C-3.33 16 -3.66 16 -4 16 C-4 13.36 -4 10.72 -4 8 C-3.34 8 -2.68 8 -2 8 C-0.52952664 4.08936776 -0.52952664 4.08936776 0 0 Z " fill="#BD1228" transform="translate(177,267)"/>
<path d="M0 0 C1.65 0 3.3 0 5 0 C1.71644638 3.67758005 -1.62778237 5.81389118 -6 8 C-6.66 7.67 -7.32 7.34 -8 7 C-5.79072873 3.51167694 -3.91402949 2.26941497 0 1 C0 0.67 0 0.34 0 0 Z " fill="#B4132A" transform="translate(480,458)"/>
<path d="M0 0 C-2.2898234 1.0044134 -4.5816599 2.00367612 -6.875 3 C-7.52597656 3.28617187 -8.17695312 3.57234375 -8.84765625 3.8671875 C-13.7734375 6 -13.7734375 6 -16 6 C-16 5.34 -16 4.68 -16 4 C-15.34 4 -14.68 4 -14 4 C-14 3.34 -14 2.68 -14 2 C-11.66836622 1.32741333 -9.3347961 0.66152556 -7 0 C-6.2575 -0.226875 -5.515 -0.45375 -4.75 -0.6875 C-3 -1 -3 -1 0 0 Z " fill="#B9122A" transform="translate(42,447)"/>
<path d="M0 0 C1.65 0 3.3 0 5 0 C5.33 0.66 5.66 1.32 6 2 C5.67 2.66 5.34 3.32 5 4 C2.67843403 4.40729228 0.3431213 4.74438677 -2 5 C-1.34 3.35 -0.68 1.7 0 0 Z " fill="#CD0E28" transform="translate(82,428)"/>
<path d="M0 0 C0.33 1.32 0.66 2.64 1 4 C0.34 4 -0.32 4 -1 4 C-1.33 6.31 -1.66 8.62 -2 11 C-3.32 11.33 -4.64 11.66 -6 12 C-4.43358249 7.69235185 -2.31663844 3.93828536 0 0 Z " fill="#C61124" transform="translate(134,197)"/>
<path d="M0 0 C3.625 0.375 3.625 0.375 7 1 C7 1.66 7 2.32 7 3 C4.98177083 3.45572917 2.96354167 3.91145833 0.9453125 4.3671875 C-1.20719964 4.90474428 -1.20719964 4.90474428 -3 7 C-2.25 2.25 -2.25 2.25 0 0 Z " fill="#BE1029" transform="translate(254,140)"/>
<path d="M0 0 C2.73544525 2.38172388 3.92545358 4.70665291 5.25 8.0625 C5.60578125 8.94035156 5.9615625 9.81820313 6.328125 10.72265625 C7 13 7 13 6 15 C5.34 13.35 4.68 11.7 4 10 C3.34 10 2.68 10 2 10 C2 8.02 2 6.04 2 4 C1.34 4 0.68 4 0 4 C0 2.68 0 1.36 0 0 Z " fill="#BB102B" transform="translate(499,400)"/>
<path d="M0 0 C4.5503959 3.91839647 7.24859663 8.2112707 9 14 C8.67 14.66 8.34 15.32 8 16 C6.66141476 13.71125827 5.32898986 11.41930344 4 9.125 C3.6184375 8.47402344 3.236875 7.82304687 2.84375 7.15234375 C0 2.2265625 0 2.2265625 0 0 Z " fill="#AF162E" transform="translate(399,376)"/>
<path d="M0 0 C0.33 1.32 0.66 2.64 1 4 C0.34 4 -0.32 4 -1 4 C-1 5.98 -1 7.96 -1 10 C-0.34 10 0.32 10 1 10 C1.33 11.32 1.66 12.64 2 14 C0.0625 13.4375 0.0625 13.4375 -2 12 C-3.14487832 7.95476326 -3.42951635 5.87770731 -1.5625 2.0625 C-1.046875 1.381875 -0.53125 0.70125 0 0 Z " fill="#B4152C" transform="translate(50,341)"/>
<path d="M0 0 C2.10633718 1.70828921 2.93801608 2.52148416 3.29296875 5.26171875 C3.25816406 6.06222656 3.22335937 6.86273438 3.1875 7.6875 C3.16042969 8.49574219 3.13335937 9.30398437 3.10546875 10.13671875 C3.07066406 10.75160156 3.03585937 11.36648437 3 12 C1 11 1 11 0 8 C-0.12781786 5.32605036 -0.04391871 2.67904143 0 0 Z " fill="#CE0E2D" transform="translate(355,154)"/>
<path d="M0 0 C0.33 1.32 0.66 2.64 1 4 C0.34 4 -0.32 4 -1 4 C-1.12375 4.7425 -1.2475 5.485 -1.375 6.25 C-1.96561763 8.84871755 -2.56286448 10.76445586 -4 13 C-4.99 13.33 -5.98 13.66 -7 14 C-5.23570801 9.02790438 -2.6060834 4.56561939 0 0 Z " fill="#B61529" transform="translate(214,60)"/>
<path d="M0 0 C2.63978826 3.18595135 5.10498388 6.30970546 7 10 C6.67 10.66 6.34 11.32 6 12 C3.5 9.75 3.5 9.75 1 7 C1 5.68 1 4.36 1 3 C0.34 3 -0.32 3 -1 3 C-0.67 2.01 -0.34 1.02 0 0 Z " fill="#BD1026" transform="translate(492,388)"/>
<path d="M0 0 C6.88490225 -0.57374185 11.02667877 0.5246131 17 4 C13.76630321 5.6168484 10.69371743 4.00851816 7.375 3.0625 C6.66859375 2.86720703 5.9621875 2.67191406 5.234375 2.47070312 C3.48780156 1.98685508 1.74365876 1.49424877 0 1 C0 0.67 0 0.34 0 0 Z " fill="#BC1A30" transform="translate(227,335)"/>
<path d="M0 0 C5.94 3.465 5.94 3.465 12 7 C11.01 7.33 10.02 7.66 9 8 C7.30712215 7.04504326 5.64142963 6.0409066 4 5 C1.80869466 4.30420546 1.80869466 4.30420546 0 4 C0 2.68 0 1.36 0 0 Z " fill="#BD1227" transform="translate(239,307)"/>
<path d="M0 0 C0.89674777 2.51089376 1.13172674 3.64535109 0.1875 6.1875 C-1 8 -1 8 -3 9 C-3.33 9.99 -3.66 10.98 -4 12 C-4.66 12 -5.32 12 -6 12 C-4.43358249 7.69235185 -2.31663844 3.93828536 0 0 Z " fill="#B61228" transform="translate(83,285)"/>
<path d="M0 0 C1.28317892 3.84953676 1.06643637 6.94738135 1 11 C-1.32472205 8.14693203 -2.7508258 5.45925163 -4 2 C-2.68 2 -1.36 2 0 2 C0 1.34 0 0.68 0 0 Z " fill="#CB102A" transform="translate(348,281)"/>
<path d="M0 0 C3.88056075 1.46248114 5.04133478 3.31854481 6.8125 7 C7.25207031 7.886875 7.69164062 8.77375 8.14453125 9.6875 C8.56798828 10.8321875 8.56798828 10.8321875 9 12 C8.67 12.66 8.34 13.32 8 14 C6.85018626 12.23174858 5.70528078 10.46030479 4.5625 8.6875 C3.92441406 7.70136719 3.28632813 6.71523437 2.62890625 5.69921875 C1 3 1 3 0 0 Z " fill="#B21631" transform="translate(287,186)"/>
<path d="M0 0 C0.33 0 0.66 0 1 0 C0.50269348 4.97306516 -0.55302334 8.63799813 -3 13 C-4.10348268 9.68955197 -3.99444068 7.34493684 -3 4 C-2.34 3.67 -1.68 3.34 -1 3 C-0.67 2.01 -0.34 1.02 0 0 Z " fill="#BB1029" transform="translate(505,429)"/>
<path d="M0 0 C1.00289062 0.10183594 2.00578125 0.20367187 3.0390625 0.30859375 C3.80992188 0.39238281 4.58078125 0.47617187 5.375 0.5625 C1.73883344 2.5414756 -1.50925629 3.0876065 -5.625 3.5625 C-5.625 2.9025 -5.625 2.2425 -5.625 1.5625 C-6.285 1.2325 -6.945 0.9025 -7.625 0.5625 C-4.89657939 -0.80171031 -3.01546682 -0.31557211 0 0 Z " fill="#C81329" transform="translate(100.625,338.4375)"/>
<path d="M0 0 C0.33 0.66 0.66 1.32 1 2 C-0.21484375 4.3828125 -0.21484375 4.3828125 -1.9375 7.125 C-2.50339844 8.03507813 -3.06929687 8.94515625 -3.65234375 9.8828125 C-4.09707031 10.58148438 -4.54179687 11.28015625 -5 12 C-5.33 10.68 -5.66 9.36 -6 8 C-5.34 8 -4.68 8 -4 8 C-3.67 5.69 -3.34 3.38 -3 1 C-2.01 0.67 -1.02 0.34 0 0 Z " fill="#B81124" transform="translate(249,148)"/>
<path d="M0 0 C3.3 0 6.6 0 10 0 C9.67 0.66 9.34 1.32 9 2 C9.66 2.66 10.32 3.32 11 4 C9.54054712 3.91291331 8.08234132 3.80473093 6.625 3.6875 C5.81289062 3.62949219 5.00078125 3.57148438 4.1640625 3.51171875 C2 3 2 3 0 0 Z " fill="#CF0E28" transform="translate(243,338)"/>
<path d="M0 0 C0.66 0 1.32 0 2 0 C2.33 1.98 2.66 3.96 3 6 C2.34 6 1.68 6 1 6 C0.67 6.99 0.34 7.98 0 9 C-0.99 7.02 -1.98 5.04 -3 3 C-2.01 2.67 -1.02 2.34 0 2 C0 1.34 0 0.68 0 0 Z " fill="#D50F29" transform="translate(323,240)"/>
<path d="M0 0 C0.33 0.66 0.66 1.32 1 2 C0.00390625 4.3828125 0.00390625 4.3828125 -1.4375 7.125 C-1.91058594 8.03507812 -2.38367188 8.94515625 -2.87109375 9.8828125 C-3.24363281 10.58148438 -3.61617188 11.28015625 -4 12 C-4.66 12 -5.32 12 -6 12 C-4.68139111 7.38486888 -2.78644563 3.90102388 0 0 Z " fill="#B0132A" transform="translate(101,254)"/>
<path d="M0 0 C0.66 0.33 1.32 0.66 2 1 C0.02 4.63 -1.96 8.26 -4 12 C-4.33 12 -4.66 12 -5 12 C-4.67 9.69 -4.34 7.38 -4 5 C-3.34 5 -2.68 5 -2 5 C-1.34 3.35 -0.68 1.7 0 0 Z " fill="#BD1227" transform="translate(223,192)"/>
<path d="M0 0 C2.72426311 2.35277269 3.8141763 4.62496331 5 8 C4.34 8 3.68 8 3 8 C3 8.66 3 9.32 3 10 C2.34 10 1.68 10 1 10 C1.020625 9.278125 1.04125 8.55625 1.0625 7.8125 C1.00179441 5.08074862 0.60741465 2.65743909 0 0 Z " fill="#C31227" transform="translate(443,304)"/>
<path d="M0 0 C2 1 2 1 3 3 C2.34 3 1.68 3 1 3 C0.67 4.32 0.34 5.64 0 7 C-0.66 7 -1.32 7 -2 7 C-2.33 5.35 -2.66 3.7 -3 2 C-2.01 2 -1.02 2 0 2 C0 1.34 0 0.68 0 0 Z " fill="#F2061C" transform="translate(232,161)"/>
<path d="M0 0 C0.99 0.99 1.98 1.98 3 3 C2.34 4.65 1.68 6.3 1 8 C0.01 7.67 -0.98 7.34 -2 7 C-1.125 1.125 -1.125 1.125 0 0 Z " fill="#D90A24" transform="translate(46,404)"/>
<path d="M0 0 C0.66 0.33 1.32 0.66 2 1 C0.8125 3.5 0.8125 3.5 -1 6 C-3.6875 6.3125 -3.6875 6.3125 -6 6 C-4 4 -2 2 0 0 Z " fill="#B7122B" transform="translate(53,398)"/>
<path d="M0 0 C0.66 0.33 1.32 0.66 2 1 C0.71034824 2.37562854 -0.62689293 3.70766393 -2 5 C-2.66 5 -3.32 5 -4 5 C-4.33 5.99 -4.66 6.98 -5 8 C-6.32 7.67 -7.64 7.34 -9 7 C-6.03 4.69 -3.06 2.38 0 0 Z " fill="#AF1528" transform="translate(70,385)"/>
<path d="M0 0 C2.475 0.495 2.475 0.495 5 1 C3.92598892 3.91517292 3.22189824 5.77810176 1 8 C0.67 5.36 0.34 2.72 0 0 Z " fill="#C70F26" transform="translate(180,259)"/>
<path d="M0 0 C0 1.32 0 2.64 0 4 C-0.66 4.66 -1.32 5.32 -2 6 C-3.98 5.34 -5.96 4.68 -8 4 C-2.7826087 0 -2.7826087 0 0 0 Z " fill="#C70F28" transform="translate(88,377)"/>
<path d="M0 0 C3.73639216 1.24546405 4.18756513 2.63404953 6 6 C5.01 7.485 5.01 7.485 4 9 C0 2.25 0 2.25 0 0 Z " fill="#BF1129" transform="translate(334,265)"/>
<path d="M0 0 C0.33 0 0.66 0 1 0 C1.12375 0.78375 1.2475 1.5675 1.375 2.375 C1.79117993 5.14057822 1.79117993 5.14057822 4 7 C3.67 7.66 3.34 8.32 3 9 C1.68 8.34 0.36 7.68 -1 7 C-0.67 4.69 -0.34 2.38 0 0 Z " fill="#D30928" transform="translate(116,228)"/>
<path d="M0 0 C0.66 0 1.32 0 2 0 C1.49396008 2.16874252 1.00016187 3.99967627 0 6 C-0.66 6 -1.32 6 -2 6 C-2 6.66 -2 7.32 -2 8 C-2.66 8 -3.32 8 -4 8 C-2.87548273 5.0280615 -1.77706209 2.66559313 0 0 Z " fill="#E10A2D" transform="translate(138,200)"/>
<path d="M0 0 C1.32 0 2.64 0 4 0 C4 0.99 4 1.98 4 3 C4.99 3.33 5.98 3.66 7 4 C6.34 5.32 5.68 6.64 5 8 C2.525 4.04 2.525 4.04 0 0 Z " fill="#BE1023" transform="translate(261,143)"/>
<path d="M0 0 C2.34058637 2.12780579 3.70700306 4.11562221 5 7 C2.03 6.505 2.03 6.505 -1 6 C-0.67 4.02 -0.34 2.04 0 0 Z " fill="#C41127" transform="translate(291,44)"/>
<path d="M0 0 C1.58294782 -0.05437607 3.16644256 -0.09296271 4.75 -0.125 C5.63171875 -0.14820313 6.5134375 -0.17140625 7.421875 -0.1953125 C10.1135858 0.00860498 11.69904974 0.63448279 14 2 C9.04653013 3.59789351 4.86717585 2.28306814 0 1 C0 0.67 0 0.34 0 0 Z " fill="#C30F29" transform="translate(315,414)"/>
<path d="M0 0 C1.32 0.33 2.64 0.66 4 1 C3.67 2.98 3.34 4.96 3 7 C1.5 5.75 1.5 5.75 0 4 C0 2.68 0 1.36 0 0 Z " fill="#D31025" transform="translate(377,337)"/>
<path d="M0 0 C1.0326802 2.78823655 1.04509293 3.8677274 0.0625 6.75 C-0.288125 7.4925 -0.63875 8.235 -1 9 C-1.99 9 -2.98 9 -4 9 C-2.94124926 5.59687262 -1.99097846 2.98646769 0 0 Z " fill="#BC1028" transform="translate(68,310)"/>
<path d="M0 0 C0.66 0.66 1.32 1.32 2 2 C1.625 5.125 1.625 5.125 1 8 C0.34 8 -0.32 8 -1 8 C-1.625 5.6875 -1.625 5.6875 -2 3 C-1.34 2.01 -0.68 1.02 0 0 Z " fill="#D6102D" transform="translate(141,185)"/>
<path d="M0 0 C4.42857143 5.14285714 4.42857143 5.14285714 5 9 C4.34 9 3.68 9 3 9 C0.8125 6.75 0.8125 6.75 -1 4 C-0.75 1.6875 -0.75 1.6875 0 0 Z " fill="#B71229" transform="translate(331,112)"/>
<path d="M0 0 C2.32472205 2.85306797 3.7508258 5.54074837 5 9 C3.68 8.67 2.36 8.34 1 8 C0.67 5.36 0.34 2.72 0 0 Z " fill="#B91225" transform="translate(284,32)"/>
<path d="M0 0 C1.98 0 3.96 0 6 0 C5.67 0.66 5.34 1.32 5 2 C2.4375 2.625 2.4375 2.625 0 3 C0 3.66 0 4.32 0 5 C-0.66 5 -1.32 5 -2 5 C-1.34 3.35 -0.68 1.7 0 0 Z " fill="#CF1125" transform="translate(243,11)"/>
<path d="M0 0 C1 2 1 2 0.25 4.5625 C-1 7 -1 7 -4 8 C-2.87548273 5.0280615 -1.77706209 2.66559313 0 0 Z " fill="#BD1025" transform="translate(5,451)"/>
<path d="M0 0 C0.66 0 1.32 0 2 0 C2 0.66 2 1.32 2 2 C2.66 2 3.32 2 4 2 C4.33 4.31 4.66 6.62 5 9 C0.57142857 3.85714286 0.57142857 3.85714286 0 0 Z " fill="#BE1630" transform="translate(315,233)"/>
<path d="M0 0 C0.99 0.99 1.98 1.98 3 3 C2.67 3.99 2.34 4.98 2 6 C0.68 5.67 -0.64 5.34 -2 5 C-1.34 3.35 -0.68 1.7 0 0 Z " fill="#F3041E" transform="translate(294,183)"/>
</svg>
