<svg xmlns="http://www.w3.org/2000/svg" width="682.667" height="682.667" version="1.0" viewBox="0 0 512 512"><path d="M56.7 29.1C43.5 32.2 31.3 43.5 26 57.5c-2 5.4-2.3 8.2-2.7 29-.6 28.2.4 39.1 4.6 47.8 3.4 7.1 10.7 15.1 17.3 19 10.5 6.1-2.2 5.7 196.9 5.5l181.5-.3 7.5-3.7c9.3-4.6 16.8-12.2 21.2-21.5l3.2-6.8v-66l-3.2-6.8c-5.7-12-16.3-21-28.7-24.3-4.2-1.1-35.4-1.4-184.1-1.3-99.9.1-180.7.5-182.8 1m365.9 15.6c6.6 2.2 14.5 10.1 16.7 16.7 2.4 7 2.5 56.9.1 63.8-1.9 5.8-7.3 12-13.2 15.6l-4.7 2.7-180 .3c-166.6.2-180.3.1-184.4-1.4-6-2.3-12.9-8.8-15.7-14.9-2.3-4.9-2.4-5.7-2.4-34s.1-29.1 2.4-34c2.7-6 10-12.8 15.9-14.9 3.6-1.2 27.8-1.5 182.3-1.5 164.1-.1 178.4 0 183 1.6"/><path d="M91.8 68.4c-4.8 1.3-6.1 2.1-11.2 6.5-7.2 6.4-9.7 19.8-5.5 29.1s14.2 16 23.9 16c14 0 25.9-12.2 26-26.5 0-17.4-16.4-29.8-33.2-25.1m11.6 15c4.5 1.9 6.6 5.2 6.6 10.4 0 7-6.9 12.5-13.6 10.8-1.5-.4-3.9-2-5.5-3.6-5.2-5.2-3.3-14.6 3.6-17.6 3.9-1.7 4.9-1.7 8.9 0M164.5 88.5c-1.4 1.3-2.5 3.6-2.5 5s1.1 3.7 2.5 5l2.4 2.5h44.2l2.6-2.6c2-2 2.4-3.1 1.9-5.7-1.2-6.4-2.4-6.7-26.8-6.7h-21.9zM240.5 88.5c-3.4 3.3-3.3 7.7.1 10.4 2.5 2 3.9 2.1 24.3 2.1 23.5 0 25.2-.4 26.5-5.5.7-2.9-1.5-7.9-3.9-8.9-.9-.3-11.3-.6-23.1-.6-21.5 0-21.5 0-23.9 2.5M316.6 88.1c-3.4 2.7-3.6 7.7-.3 10.7 2.2 2.1 3.1 2.2 24.1 2.2 13.4 0 22.5-.4 23.7-1.1 4.8-2.5 4.4-10.5-.7-12.8-1.6-.7-10-1.1-23.3-1.1-19.6 0-21 .1-23.5 2.1M53.1 176C42 180 32.9 188.2 28 198.6c-4.2 8.8-5.3 19.6-4.8 47.4.5 19.9.8 23.2 2.7 28.9 5 14.3 15.3 24.1 30 28.5 4.9 1.4 17.1 1.6 113.3 1.6H277v14H171.8c-62.8 0-107.7.4-111.2 1-19.7 3.2-34.3 18.8-36.6 39-1.3 10.8-1.2 43.2 0 53 2.4 19 16.2 34 34.8 37.9 3.7.8 37.5 1.1 112.6 1.1h107.3l1.4 2.6c2.2 4.1 10.1 10.8 17.6 14.6 34.8 18.2 109.1 21.2 154.9 6.2 16.3-5.3 28.9-13.9 33.7-22.9l2.2-4v-178l-2.3-4.2c-3.6-6.8-9.9-12.1-20.3-17.1l-9.7-4.7-.3-18.5c-.4-18.4-.4-18.5-3.6-25.3-3.6-7.5-11.4-16.4-17.7-20.1-10.2-6 2-5.6-195.5-5.6-176.7.1-180.7.1-186 2m371.4 15.4c5.2 2.4 11.1 8.1 14.2 13.8 1.4 2.7 1.8 6.3 2.1 18.7l.4 15.4-2.4-.7c-12-3.2-35.8-5.6-56.3-5.6-43.4 0-80.1 8.9-96.2 23.4-7.6 6.9-9.3 11.1-9.3 23.4V290H169.7c-119.9 0-112.5.4-121.1-7.1-2.4-2.2-5.6-6.3-7-9.1l-2.6-5.2v-29c0-28.5.1-29.2 2.4-34.1 2.9-6.1 8.6-11.7 14.6-14.4 4.5-2 5.7-2.1 184-2.1h179.5zm-12 58.1c20.4 2.4 40.7 7.9 50.4 13.7 14.6 8.6 13.3 15.8-4.3 24.3-16.5 8.1-38.3 12.3-67.7 13.2-35.5 1.1-65.2-3.7-85.6-13.7-17.9-8.8-17.6-16.4 1.1-25.5 13.2-6.4 26.8-9.7 53.1-12.8 8.6-1.1 41.4-.5 53 .8M311 305.8c20 7 40.1 9.7 71.5 9.7 37.5 0 63.7-4.6 83.7-14.6 3.2-1.6 6-2.9 6.3-2.9s.5 7.8.5 17.3c0 19.4-.1 19.6-7.5 24.7-16.2 11.2-51.5 17.7-89.5 16.7-21.8-.6-35.4-2.3-50.9-6.3-11.8-3.1-26.9-10.2-30.5-14.4-2.6-3.1-2.6-3.2-2.6-21v-17.8l5.3 2.8c2.8 1.6 9 4.2 13.7 5.8m-34.2 79.5.2 50.7-108.2-.2-108.3-.3-5.7-2.8c-3.2-1.6-7.3-4.6-9.2-6.9-6.2-7.2-6.6-9.9-6.6-40.8 0-18.4.4-28.8 1.2-31.1 2.9-8.8 10.8-16.1 19.6-18.5 3.7-1 27.7-1.2 110.7-1.1l106 .2zm30.4-24.9c9.2 3.5 24.2 7.1 37.8 9.3 14.2 2.2 57.4 2.5 71.5.5 20.8-2.9 38.5-7.7 49.7-13.3 3.2-1.6 6-2.9 6.3-2.9s.5 8.1.5 17.9v17.9l-4.2 3.7c-20.4 17.4-83.5 24.8-132.3 15.4-18.8-3.6-36.8-10.9-42-17.1-2.5-2.9-2.5-3.3-2.5-20.9v-18l4.3 2.5c2.3 1.4 7.2 3.6 10.9 5m4.3 57.6c9.9 3.4 22.9 6.3 36.5 8.2 14.5 2 57.4 1.7 72.4-.5 16.6-2.5 33.4-7 43.4-11.7 4.7-2.2 8.6-4 8.8-4s.4 8.1.4 17.9v17.9l-4.2 3.7c-8.5 7.2-23.3 12.5-46.4 16.6-11.2 2-16.3 2.3-38.9 2.4-28.1 0-39.1-1.1-58.3-6.1-11.9-3-27-10.2-30.6-14.4-2.6-3.1-2.6-3.2-2.6-21v-17.8l5.4 2.9c3 1.7 9.4 4.3 14.1 5.9"/><path d="M92 213.9c-11.6 3.8-19 13.7-19 25.6 0 14.7 11.3 25.9 26 25.8 3.7 0 8.1-.7 10.2-1.7 20.3-8.9 21.1-37.6 1.3-47.8-4.3-2.2-14.4-3.3-18.5-1.9m12 15.6c4 2.1 6 5.3 6 9.8 0 7.8-7.2 13.1-14.6 10.7-4.2-1.4-7.4-6-7.4-10.8 0-4.4 1.4-6.9 5.3-9.2 3.8-2.4 6.8-2.5 10.7-.5M164.1 234.6c-2.8 3.5-2.6 6.9.4 10l2.5 2.5 22.5-.3c24.6-.3 24.9-.4 26.1-6.5.5-2.6.1-3.7-1.9-5.7l-2.6-2.6h-45zM240.2 234.3c-2.9 3.1-2.8 7.2.3 10.2 2.4 2.5 2.4 2.5 23.4 2.5 13.5 0 21.9-.4 23.5-1.1 5.1-2.3 5.5-10.3.7-12.8-1.2-.7-10.3-1.1-23.9-1.1-21.5 0-21.9 0-24 2.3M90.5 360.2c-21.5 7.9-23.7 37.5-3.6 48 4.3 2.3 6.6 2.8 12 2.8 11.3 0 19.8-5.5 24.4-15.9 2.3-5.3 2-16.7-.7-21.8-2.3-4.5-7.5-9.6-12.2-11.8-4.6-2.2-15.5-3-19.9-1.3m16.1 17.2c2.6 2.6 3.4 4.2 3.4 7 0 7.1-4.2 11.6-10.9 11.6-6.6 0-11.1-4.6-11.1-11.5 0-5.5 5.2-10.5 11-10.5 3.4 0 4.8.6 7.6 3.4M164.2 380.3c-4 4.3-1.9 10.7 4.1 12.2 1.3.4 11.4.5 22.6.3l20.3-.3 2.4-2.8c2.9-3.4 3-5.6.3-9.1l-2-2.6h-22.8c-22.5 0-22.8 0-24.9 2.3"/></svg>