<svg width="12" height="12" viewBox="0 0 12 12" fill="none" xmlns="http://www.w3.org/2000/svg">
<mask id="mask0_1164_16075" style="mask-type:alpha" maskUnits="userSpaceOnUse" x="0" y="0" width="12" height="12">
<rect width="12" height="12" fill="#D9D9D9"/>
</mask>
<g mask="url(#mask0_1164_16075)">
<path d="M3 2.5V1H9V2.5H3ZM6 7.75C6.20833 7.75 6.38542 7.67708 6.53125 7.53125C6.67708 7.38542 6.75 7.20833 6.75 7C6.75 6.79167 6.67708 6.61458 6.53125 6.46875C6.38542 6.32292 6.20833 6.25 6 6.25C5.79167 6.25 5.61458 6.32292 5.46875 6.46875C5.32292 6.61458 5.25 6.79167 5.25 7C5.25 7.20833 5.32292 7.38542 5.46875 7.53125C5.61458 7.67708 5.79167 7.75 6 7.75ZM4 11V5.5L3 4V3.5H9V4L8 5.5V11H4Z" fill="#B4522E"/>
</g>
</svg>
