<svg width="25" height="24" viewBox="0 0 25 24" fill="none" xmlns="http://www.w3.org/2000/svg">
<mask id="mask0_1152_5222" style="mask-type:alpha" maskUnits="userSpaceOnUse" x="0" y="0" width="25" height="24">
<rect x="0.621094" width="24" height="24" fill="#D9D9D9"/>
</mask>
<g mask="url(#mask0_1152_5222)">
<path d="M5.62109 21C5.07109 21 4.60026 20.8042 4.20859 20.4125C3.81693 20.0208 3.62109 19.55 3.62109 19V5C3.62109 4.45 3.81693 3.97917 4.20859 3.5875C4.60026 3.19583 5.07109 3 5.62109 3H19.6211C20.1711 3 20.6419 3.19583 21.0336 3.5875C21.4253 3.97917 21.6211 4.45 21.6211 5V19C21.6211 19.55 21.4253 20.0208 21.0336 20.4125C20.6419 20.8042 20.1711 21 19.6211 21H5.62109ZM5.62109 8.325H19.6211V5H5.62109V8.325ZM5.62109 13.675H19.6211V10.325H5.62109V13.675ZM5.62109 19H19.6211V15.675H5.62109V19ZM6.62109 7.65V5.65H8.62109V7.65H6.62109ZM6.62109 13V11H8.62109V13H6.62109ZM6.62109 18.35V16.35H8.62109V18.35H6.62109Z" fill="#1C1B1F"/>
</g>
</svg>
