<?xml version="1.0" encoding="UTF-8"?>
<svg version="1.1" xmlns="http://www.w3.org/2000/svg" width="500" height="500">
<path d="M0 0 C2.41431314 1.25831899 4.73244377 2.54144298 7.0625 3.9375 C12.44337361 7.12975367 12.44337361 7.12975367 18 10 C18 10.66 18 11.32 18 12 C18.55558594 12.10957031 19.11117187 12.21914062 19.68359375 12.33203125 C22.40503071 13.11679638 24.59216564 14.30134773 27.0625 15.6875 C28.01898438 16.21988281 28.97546875 16.75226563 29.9609375 17.30078125 C30.96382813 17.86152344 31.96671875 18.42226562 33 19 C35.06123443 20.1273171 37.1236767 21.25242945 39.1875 22.375 C40.79166667 23.25 42.39583333 24.125 44 25 C44 25.66 44 26.32 44 27 C44.81210937 27.15275391 44.81210937 27.15275391 45.640625 27.30859375 C48.60596581 28.17757607 51.05524946 29.55472291 53.75 31.0625 C54.73484375 31.61035156 55.7196875 32.15820312 56.734375 32.72265625 C57.48203125 33.14417969 58.2296875 33.56570312 59 34 C59.2785381 43.26612903 59.49149107 52.53081011 59.62174606 61.80021763 C59.68427882 66.1050546 59.76900543 70.40702088 59.90527344 74.71020508 C60.03606545 78.86667245 60.10748278 83.02038813 60.13852692 87.17875481 C60.1606335 88.76153859 60.20381349 90.34417793 60.26876068 91.92578316 C60.46101537 96.80343607 60.46222348 101.28546073 59 106 C54.80446595 110.07799134 49.95473626 113 44 113 C44 113.66 44 114.32 44 115 C43.34515625 115.35191406 42.6903125 115.70382812 42.015625 116.06640625 C35.75556106 119.45285327 29.61338908 122.98238716 23.53125 126.6796875 C21 128 21 128 18 128 C18 128.66 18 129.32 18 130 C16.948125 130.56267578 16.948125 130.56267578 15.875 131.13671875 C10.67755954 133.94022943 5.64747844 136.76051663 0.8515625 140.21484375 C-1.85474206 141.36245391 -3.20791054 140.89989646 -6 140 C-8.41431314 138.74168101 -10.73244377 137.45855702 -13.0625 136.0625 C-18.44337361 132.87024633 -18.44337361 132.87024633 -24 130 C-24 129.34 -24 128.68 -24 128 C-24.55558594 127.89042969 -25.11117187 127.78085937 -25.68359375 127.66796875 C-28.40503071 126.88320362 -30.59216564 125.69865227 -33.0625 124.3125 C-34.01898438 123.78011719 -34.97546875 123.24773437 -35.9609375 122.69921875 C-36.96382812 122.13847656 -37.96671875 121.57773437 -39 121 C-41.06123443 119.8726829 -43.1236767 118.74757055 -45.1875 117.625 C-46.79166667 116.75 -48.39583333 115.875 -50 115 C-50 114.34 -50 113.68 -50 113 C-50.54140625 112.89816406 -51.0828125 112.79632813 -51.640625 112.69140625 C-54.60596581 111.82242393 -57.05524946 110.44527709 -59.75 108.9375 C-60.73484375 108.38964844 -61.7196875 107.84179688 -62.734375 107.27734375 C-63.48203125 106.85582031 -64.2296875 106.43429687 -65 106 C-65.2785381 96.73387097 -65.49149107 87.46918989 -65.62174606 78.19978237 C-65.68427882 73.8949454 -65.76900543 69.59297912 -65.90527344 65.28979492 C-66.03606545 61.13332755 -66.10748278 56.97961187 -66.13852692 52.82124519 C-66.1606335 51.23846141 -66.20381349 49.65582207 -66.26876068 48.07421684 C-66.46101537 43.19656393 -66.46222348 38.71453927 -65 34 C-60.80446595 29.92200866 -55.95473626 27 -50 27 C-50 26.34 -50 25.68 -50 25 C-49.34515625 24.64808594 -48.6903125 24.29617187 -48.015625 23.93359375 C-41.75556106 20.54714673 -35.61338908 17.01761284 -29.53125 13.3203125 C-27 12 -27 12 -24 12 C-24 11.34 -24 10.68 -24 10 C-23.29875 9.62488281 -22.5975 9.24976563 -21.875 8.86328125 C-16.67755954 6.05977057 -11.64747844 3.23948337 -6.8515625 -0.21484375 C-4.14525794 -1.36245391 -2.79208946 -0.89989646 0 0 Z " fill="#0B1D30" transform="translate(253,180)"/>
<path d="M0 0 C2.95514876 2.75134539 5.1524809 5.39733775 7 9 C7 9.99 7 10.98 7 12 C7.66 12 8.32 12 9 12 C10.4606285 14.64738916 11 15.89448334 11 19 C11.66 19 12.32 19 13 19 C13.39832031 19.73605469 13.79664063 20.47210938 14.20703125 21.23046875 C14.73683594 22.20628906 15.26664062 23.18210937 15.8125 24.1875 C16.33457031 25.15042969 16.85664063 26.11335938 17.39453125 27.10546875 C18.44170877 28.99344574 19.54185688 30.85326887 20.69921875 32.67578125 C22 35 22 35 22 38 C22.66 38 23.32 38 24 38 C24.35191406 38.65484375 24.70382812 39.3096875 25.06640625 39.984375 C28.45285327 46.24443894 31.98238716 52.38661092 35.6796875 58.46875 C37 61 37 61 37 64 C37.66 64 38.32 64 39 64 C39.3125 66.3125 39.3125 66.3125 39 69 C36.13896577 71.24243223 34.65923696 72 31 72 C31 72.66 31 73.32 31 74 C28.35261084 75.4606285 27.10551666 76 24 76 C24 76.66 24 77.32 24 78 C23.26394531 78.39832031 22.52789062 78.79664063 21.76953125 79.20703125 C20.79371094 79.73683594 19.81789063 80.26664062 18.8125 80.8125 C17.84957031 81.33457031 16.88664062 81.85664063 15.89453125 82.39453125 C14.00655426 83.44170877 12.14673113 84.54185688 10.32421875 85.69921875 C8 87 8 87 5 87 C5 87.66 5 88.32 5 89 C2.35261084 90.4606285 1.10551666 91 -2 91 C-2 91.66 -2 92.32 -2 93 C-2.73863281 93.35191406 -3.47726562 93.70382812 -4.23828125 94.06640625 C-10.69392021 97.20809586 -16.70678313 100.6109134 -22.625 104.6796875 C-25 106 -25 106 -29 106 C-29.39832031 105.26394531 -29.79664063 104.52789062 -30.20703125 103.76953125 C-30.73683594 102.79371094 -31.26664062 101.81789063 -31.8125 100.8125 C-32.33457031 99.84957031 -32.85664063 98.88664062 -33.39453125 97.89453125 C-34.44170877 96.00655426 -35.54185688 94.14673113 -36.69921875 92.32421875 C-38 90 -38 90 -38 87 C-38.66 87 -39.32 87 -40 87 C-41.4606285 84.35261084 -42 83.10551666 -42 80 C-42.66 80 -43.32 80 -44 80 C-44.39832031 79.26394531 -44.79664063 78.52789062 -45.20703125 77.76953125 C-45.73683594 76.79371094 -46.26664062 75.81789063 -46.8125 74.8125 C-47.33457031 73.84957031 -47.85664063 72.88664062 -48.39453125 71.89453125 C-49.44170877 70.00655426 -50.54185688 68.14673113 -51.69921875 66.32421875 C-53 64 -53 64 -53 61 C-53.66 61 -54.32 61 -55 61 C-55.39832031 60.26394531 -55.79664063 59.52789062 -56.20703125 58.76953125 C-56.73683594 57.79371094 -57.26664062 56.81789063 -57.8125 55.8125 C-58.59560547 54.36810547 -58.59560547 54.36810547 -59.39453125 52.89453125 C-60.44170877 51.00655426 -61.54185688 49.14673113 -62.69921875 47.32421875 C-64 45 -64 45 -64 42 C-64.66 42 -65.32 42 -66 42 C-66 40.68 -66 39.36 -66 38 C-63.91796875 36.296875 -63.91796875 36.296875 -61.1875 34.75 C-59.84751953 33.96882813 -59.84751953 33.96882813 -58.48046875 33.171875 C-56 32 -56 32 -53 32 C-53 31.34 -53 30.68 -53 30 C-52.37544922 29.66266846 -51.75089844 29.32533691 -51.10742188 28.9777832 C-48.23682885 27.42535757 -45.36840837 25.86895823 -42.5 24.3125 C-41.51773437 23.78205078 -40.53546875 23.25160156 -39.5234375 22.70507812 C-33.88986161 19.64416856 -28.40332596 16.44828275 -23 13 C-20.9031745 11.7170902 -18.79969061 10.444952 -16.6875 9.1875 C-15.68074219 8.58292969 -14.67398438 7.97835938 -13.63671875 7.35546875 C-11 6 -11 6 -8 6 C-8 5.34 -8 4.68 -8 4 C-5.36 2.68 -2.72 1.36 0 0 Z " fill="#F33EA6" transform="translate(342,333)"/>
<path d="M0 0 C3.0831351 1.19899698 6.06279492 2.47700477 9 4 C9 4.66 9 5.32 9 6 C9.87893921 6.18985474 9.87893921 6.18985474 10.77563477 6.38354492 C12.95737476 6.98818695 14.62301845 7.75656206 16.58984375 8.86328125 C17.28207031 9.25008057 17.97429687 9.63687988 18.6875 10.03540039 C19.43 10.45684326 20.1725 10.87828613 20.9375 11.3125 C21.71222656 11.74747803 22.48695313 12.18245605 23.28515625 12.63061523 C30.63435397 16.76672621 37.95487351 20.95435151 45.26928711 25.15161133 C46.11885986 25.63911865 46.96843262 26.12662598 47.84375 26.62890625 C48.97586914 27.2796814 48.97586914 27.2796814 50.13085938 27.94360352 C51.40238684 28.66224241 52.69363896 29.34681948 54 30 C54 30.66 54 31.32 54 32 C54.56203125 32.11214844 55.1240625 32.22429687 55.703125 32.33984375 C58.31513108 33.09057339 60.39471322 34.21167376 62.75 35.5625 C63.54921875 36.01753906 64.3484375 36.47257812 65.171875 36.94140625 C65.77515625 37.29074219 66.3784375 37.64007813 67 38 C67 39.32 67 40.64 67 42 C66.34 42 65.68 42 65 42 C64.89558594 42.5465625 64.79117188 43.093125 64.68359375 43.65625 C63.84407207 46.53461006 62.53047453 48.88707713 61.0625 51.5 C59.30771629 54.63877775 57.57782132 57.7681341 56 61 C55.34 61 54.68 61 54 61 C53.89558594 61.5465625 53.79117188 62.093125 53.68359375 62.65625 C52.84407207 65.53461006 51.53047453 67.88707713 50.0625 70.5 C48.30771629 73.63877775 46.57782132 76.7681341 45 80 C44.34 80 43.68 80 43 80 C42.7834375 80.8971875 42.7834375 80.8971875 42.5625 81.8125 C42.1127561 83.56150404 41.57107659 85.28677023 41 87 C40.34 87 39.68 87 39 87 C38.84337891 87.81984375 38.84337891 87.81984375 38.68359375 88.65625 C37.84407207 91.53461006 36.53047453 93.88707713 35.0625 96.5 C33.30771629 99.63877775 31.57782132 102.7681341 30 106 C26.20960677 105.43177527 23.64877276 104.38271138 20.4375 102.3125 C14.81324435 98.8090044 8.95889764 95.88730092 3 93 C3 92.34 3 91.68 3 91 C2.401875 90.855625 1.80375 90.71125 1.1875 90.5625 C-0.56150404 90.1127561 -2.28677023 89.57107659 -4 89 C-4 88.34 -4 87.68 -4 87 C-4.53496094 86.9071875 -5.06992188 86.814375 -5.62109375 86.71875 C-8.75839449 85.77086275 -11.26068476 84.19428233 -14.0625 82.5 C-18.36864736 79.89857559 -18.36864736 79.89857559 -23 78 C-23 77.34 -23 76.68 -23 76 C-23.598125 75.855625 -24.19625 75.71125 -24.8125 75.5625 C-26.56150404 75.1127561 -28.28677023 74.57107659 -30 74 C-30 73.34 -30 72.68 -30 72 C-30.86625 71.814375 -30.86625 71.814375 -31.75 71.625 C-34.02335767 70.99351176 -35.9253529 70.11141809 -38 69 C-38 67.35 -38 65.7 -38 64 C-37.34 64 -36.68 64 -36 64 C-35.83564453 63.16662109 -35.83564453 63.16662109 -35.66796875 62.31640625 C-34.88320362 59.59496929 -33.69865227 57.40783436 -32.3125 54.9375 C-31.78011719 53.98101562 -31.24773437 53.02453125 -30.69921875 52.0390625 C-30.13847656 51.03617187 -29.57773438 50.03328125 -29 49 C-27.8726829 46.93876557 -26.74757055 44.8763233 -25.625 42.8125 C-24.75 41.20833333 -23.875 39.60416667 -23 38 C-22.34 38 -21.68 38 -21 38 C-20.86078125 37.19755859 -20.86078125 37.19755859 -20.71875 36.37890625 C-19.77086275 33.24160551 -18.19428233 30.73931524 -16.5 27.9375 C-13.89857559 23.63135264 -13.89857559 23.63135264 -12 19 C-11.34 19 -10.68 19 -10 19 C-9.7834375 18.1028125 -9.7834375 18.1028125 -9.5625 17.1875 C-9.1127561 15.43849596 -8.57107659 13.71322977 -8 12 C-7.34 12 -6.68 12 -6 12 C-5.88785156 11.42765625 -5.77570313 10.8553125 -5.66015625 10.265625 C-4.92776966 7.75210888 -3.86145147 5.94069457 -2.4375 3.75 C-1.98246094 3.04359375 -1.52742188 2.3371875 -1.05859375 1.609375 C-0.53458984 0.81273437 -0.53458984 0.81273437 0 0 Z " fill="#F43CA6" transform="translate(157,333)"/>
<path d="M0 0 C0.39832031 0.73605469 0.79664063 1.47210938 1.20703125 2.23046875 C1.73683594 3.20628906 2.26664062 4.18210937 2.8125 5.1875 C3.33457031 6.15042969 3.85664063 7.11335938 4.39453125 8.10546875 C5.44170877 9.99344574 6.54185688 11.85326887 7.69921875 13.67578125 C9 16 9 16 9 19 C9.66 19 10.32 19 11 19 C12.4606285 21.64738916 13 22.89448334 13 26 C13.66 26 14.32 26 15 26 C15.39832031 26.73605469 15.79664063 27.47210938 16.20703125 28.23046875 C16.73683594 29.20628906 17.26664062 30.18210937 17.8125 31.1875 C18.33457031 32.15042969 18.85664063 33.11335938 19.39453125 34.10546875 C20.44170877 35.99344574 21.54185688 37.85326887 22.69921875 39.67578125 C24 42 24 42 24 45 C24.66 45 25.32 45 26 45 C26.39832031 45.73605469 26.79664063 46.47210938 27.20703125 47.23046875 C27.73683594 48.20628906 28.26664062 49.18210938 28.8125 50.1875 C29.33457031 51.15042969 29.85664063 52.11335938 30.39453125 53.10546875 C31.44170877 54.99344574 32.54185688 56.85326887 33.69921875 58.67578125 C35 61 35 61 35 64 C35.66 64 36.32 64 37 64 C37 65.32 37 66.64 37 68 C34.91796875 69.703125 34.91796875 69.703125 32.1875 71.25 C31.29417969 71.77078125 30.40085937 72.2915625 29.48046875 72.828125 C27 74 27 74 24 74 C24 74.66 24 75.32 24 76 C23.38592285 76.33209473 22.7718457 76.66418945 22.13916016 77.00634766 C19.29984342 78.54357773 16.46241919 80.08427045 13.625 81.625 C12.65949219 82.14707031 11.69398438 82.66914063 10.69921875 83.20703125 C3.30957419 87.22422058 -3.91292508 91.46319487 -11.05859375 95.8984375 C-11.84363281 96.38570313 -12.62867188 96.87296875 -13.4375 97.375 C-14.24058594 97.87773437 -15.04367188 98.38046875 -15.87109375 98.8984375 C-18 100 -18 100 -21 100 C-21 100.66 -21 101.32 -21 102 C-23.97 103.32 -26.94 104.64 -30 106 C-31.00842453 104.56839732 -32.00647891 103.12948547 -33 101.6875 C-33.556875 100.88699219 -34.11375 100.08648437 -34.6875 99.26171875 C-36 97 -36 97 -36 94 C-36.66 94 -37.32 94 -38 94 C-39.4606285 91.35261084 -40 90.10551666 -40 87 C-40.66 87 -41.32 87 -42 87 C-42.39832031 86.26394531 -42.79664063 85.52789062 -43.20703125 84.76953125 C-43.73683594 83.79371094 -44.26664063 82.81789063 -44.8125 81.8125 C-45.33457031 80.84957031 -45.85664063 79.88664062 -46.39453125 78.89453125 C-47.44170877 77.00655426 -48.54185688 75.14673113 -49.69921875 73.32421875 C-51 71 -51 71 -51 68 C-51.66 68 -52.32 68 -53 68 C-53.35191406 67.34515625 -53.70382813 66.6903125 -54.06640625 66.015625 C-57.45285327 59.75556106 -60.98238716 53.61338908 -64.6796875 47.53125 C-66 45 -66 45 -66 42 C-66.66 42 -67.32 42 -68 42 C-68.3125 39.6875 -68.3125 39.6875 -68 37 C-65.13896577 34.75756777 -63.65923696 34 -60 34 C-60 33.34 -60 32.68 -60 32 C-57.35261084 30.5393715 -56.10551666 30 -53 30 C-53 29.34 -53 28.68 -53 28 C-52.26394531 27.60167969 -51.52789062 27.20335938 -50.76953125 26.79296875 C-49.30580078 25.99826172 -49.30580078 25.99826172 -47.8125 25.1875 C-46.84957031 24.66542969 -45.88664062 24.14335938 -44.89453125 23.60546875 C-43.00655426 22.55829123 -41.14673113 21.45814312 -39.32421875 20.30078125 C-37 19 -37 19 -34 19 C-34 18.34 -34 17.68 -34 17 C-31.35261084 15.5393715 -30.10551666 15 -27 15 C-27 14.34 -27 13.68 -27 13 C-26.26136719 12.64808594 -25.52273437 12.29617187 -24.76171875 11.93359375 C-18.30607979 8.79190414 -12.29321687 5.3890866 -6.375 1.3203125 C-4 0 -4 0 0 0 Z " fill="#F43CA6" transform="translate(187,61)"/>
<path d="M0 0 C3.79039323 0.56822473 6.35122724 1.61728862 9.5625 3.6875 C15.18675565 7.1909956 21.04110236 10.11269908 27 13 C27 13.66 27 14.32 27 15 C27.598125 15.144375 28.19625 15.28875 28.8125 15.4375 C30.56150404 15.8872439 32.28677023 16.42892341 34 17 C34 17.66 34 18.32 34 19 C34.53496094 19.0928125 35.06992187 19.185625 35.62109375 19.28125 C38.75839449 20.22913725 41.26068476 21.80571767 44.0625 23.5 C48.36864736 26.10142441 48.36864736 26.10142441 53 28 C53 28.66 53 29.32 53 30 C53.598125 30.144375 54.19625 30.28875 54.8125 30.4375 C56.56150404 30.8872439 58.28677023 31.42892341 60 32 C60 32.66 60 33.32 60 34 C60.86625 34.185625 60.86625 34.185625 61.75 34.375 C64.02335767 35.00648824 65.9253529 35.88858191 68 37 C68 38.65 68 40.3 68 42 C67.34 42 66.68 42 66 42 C65.89042969 42.55558594 65.78085937 43.11117187 65.66796875 43.68359375 C64.88320362 46.40503071 63.69865227 48.59216564 62.3125 51.0625 C61.51392578 52.49722656 61.51392578 52.49722656 60.69921875 53.9609375 C60.13847656 54.96382812 59.57773437 55.96671875 59 57 C57.8726829 59.06123443 56.74757055 61.1236767 55.625 63.1875 C54.75 64.79166667 53.875 66.39583333 53 68 C52.34 68 51.68 68 51 68 C50.9071875 68.53496094 50.814375 69.06992188 50.71875 69.62109375 C49.77086275 72.75839449 48.19428233 75.26068476 46.5 78.0625 C43.89857559 82.36864736 43.89857559 82.36864736 42 87 C41.34 87 40.68 87 40 87 C39.7834375 87.8971875 39.7834375 87.8971875 39.5625 88.8125 C39.1127561 90.56150404 38.57107659 92.28677023 38 94 C37.34 94 36.68 94 36 94 C35.88785156 94.57234375 35.77570313 95.1446875 35.66015625 95.734375 C34.53497679 99.59593765 32.18214415 102.64285515 30 106 C27.03 104.68 24.06 103.36 21 102 C21 101.34 21 100.68 21 100 C20.41404053 99.87343018 19.82808105 99.74686035 19.22436523 99.61645508 C17.04262524 99.01181305 15.37698155 98.24343794 13.41015625 97.13671875 C12.71792969 96.74991943 12.02570313 96.36312012 11.3125 95.96459961 C10.57 95.54315674 9.8275 95.12171387 9.0625 94.6875 C8.28777344 94.25252197 7.51304687 93.81754395 6.71484375 93.36938477 C-0.63435397 89.23327379 -7.95487351 85.04564849 -15.26928711 80.84838867 C-16.11885986 80.36088135 -16.96843262 79.87337402 -17.84375 79.37109375 C-18.59849609 78.93724365 -19.35324219 78.50339355 -20.13085938 78.05639648 C-21.40238684 77.33775759 -22.69363896 76.65318052 -24 76 C-24 75.34 -24 74.68 -24 74 C-24.56203125 73.88785156 -25.1240625 73.77570313 -25.703125 73.66015625 C-28.31513108 72.90942661 -30.39471322 71.78832624 -32.75 70.4375 C-33.54921875 69.98246094 -34.3484375 69.52742188 -35.171875 69.05859375 C-36.07679688 68.53458984 -36.07679688 68.53458984 -37 68 C-37 66.68 -37 65.36 -37 64 C-36.34 64 -35.68 64 -35 64 C-34.89558594 63.4534375 -34.79117187 62.906875 -34.68359375 62.34375 C-33.84407207 59.46538994 -32.53047453 57.11292287 -31.0625 54.5 C-29.30771629 51.36122225 -27.57782132 48.2318659 -26 45 C-25.34 45 -24.68 45 -24 45 C-23.89558594 44.4534375 -23.79117187 43.906875 -23.68359375 43.34375 C-22.84407207 40.46538994 -21.53047453 38.11292287 -20.0625 35.5 C-18.30771629 32.36122225 -16.57782132 29.2318659 -15 26 C-14.34 26 -13.68 26 -13 26 C-12.7834375 25.1028125 -12.7834375 25.1028125 -12.5625 24.1875 C-12.1127561 22.43849596 -11.57107659 20.71322977 -11 19 C-10.34 19 -9.68 19 -9 19 C-8.89558594 18.4534375 -8.79117187 17.906875 -8.68359375 17.34375 C-7.84407207 14.46538994 -6.53047453 12.11292287 -5.0625 9.5 C-3.30771629 6.36122225 -1.57782132 3.2318659 0 0 Z " fill="#F43CA6" transform="translate(313,61)"/>
<path d="M0 0 C25.41 0 50.82 0 77 0 C77 25.74 77 51.48 77 78 C51.59 78 26.18 78 0 78 C0 52.26 0 26.52 0 0 Z " fill="#F33FA6" transform="translate(369,211)"/>
<path d="M0 0 C25.41 0 50.82 0 77 0 C77 25.74 77 51.48 77 78 C51.59 78 26.18 78 0 78 C0 52.26 0 26.52 0 0 Z " fill="#F43BA5" transform="translate(54,211)"/>
<path d="M0 0 C3.65684643 1.21894881 3.94316328 2.11009784 5.8125 5.375 C6.33714844 6.28507812 6.86179688 7.19515625 7.40234375 8.1328125 C9.41561954 11.74587957 11.40104125 15.37280409 13.3671875 19.01171875 C15.20907101 22.38262996 17.09551269 25.72672069 19 29.0625 C19.33692871 29.65361572 19.67385742 30.24473145 20.02099609 30.85375977 C22.5702261 35.30351528 25.22936644 39.67678998 27.96875 44.01171875 C29 46 29 46 29 49 C29.66 49 30.32 49 31 49 C35 55.625 35 55.625 35 59 C35.66 59 36.32 59 37 59 C38.4606285 61.64738916 39 62.89448334 39 66 C13.92 66 -11.16 66 -37 66 C-36 62 -36 62 -35 59 C-34.34 59 -33.68 59 -33 59 C-32.896875 58.46375 -32.79375 57.9275 -32.6875 57.375 C-31.81907303 54.37497956 -30.44379704 51.7620465 -29 49 C-28.34 49 -27.68 49 -27 49 C-26.90074219 48.28070313 -26.80148438 47.56140625 -26.69921875 46.8203125 C-25.90573372 43.6197751 -24.65568711 41.60112662 -22.8125 38.875 C-19.86361279 34.38288175 -17.20927629 29.83531651 -14.671875 25.1015625 C-12.60967861 21.27589911 -10.49852285 17.47938112 -8.375 13.6875 C-8.00262207 13.01759033 -7.63024414 12.34768066 -7.24658203 11.6574707 C-4.99529172 7.64288653 -2.6020441 3.79710056 0 0 Z " fill="#FDBC05" transform="translate(249,387)"/>
<path d="M0 0 C22.77 0 45.54 0 69 0 C67.40748575 4.77754276 65.65832621 8.62196205 63.125 12.875 C60.22552938 17.83634553 57.48712883 22.81848159 55 28 C54.34 28 53.68 28 53 28 C52.86658203 28.78697266 52.86658203 28.78697266 52.73046875 29.58984375 C51.73915608 32.86064543 50.04171464 35.63969286 48.3125 38.5625 C47.58494769 39.81062147 46.85839667 41.0593271 46.1328125 42.30859375 C45.77219727 42.92847168 45.41158203 43.54834961 45.04003906 44.18701172 C43.05545414 47.64652524 41.19283725 51.17224382 39.32421875 54.6953125 C38.02050748 56.96430852 36.70644581 59.01448396 35 61 C34.34 61 33.68 61 33 61 C33 60.01 33 59.02 33 58 C32.34 58 31.68 58 31 58 C30.66266846 57.37544922 30.32533691 56.75089844 29.9777832 56.10742188 C28.42535757 53.23682885 26.86895823 50.36840837 25.3125 47.5 C24.78205078 46.51773438 24.25160156 45.53546875 23.70507812 44.5234375 C20.98630513 39.51956081 18.19822762 34.60769621 15.13696289 29.80566406 C12.97958081 26.37942446 11.02830433 22.83681445 9.0390625 19.31103516 C6.4945544 14.82093856 3.8188393 10.43042508 1.03125 6.0859375 C0 4 0 4 0 0 Z " fill="#FDBC06" transform="translate(373,319)"/>
<path d="M0 0 C22.77 0 45.54 0 69 0 C68.16180906 4.1909547 67.50122961 6.30614053 65.5 9.875 C64.96375 10.83148438 64.4275 11.78796875 63.875 12.7734375 C61.40246554 17.02825721 58.86587001 21.24264583 56.31835938 25.45288086 C53.62801235 29.91173542 51.07897411 34.42585336 48.6171875 39.015625 C46.4957803 42.93049239 44.3115231 46.80872042 42.125 50.6875 C41.71894531 51.40800537 41.31289062 52.12851074 40.89453125 52.87084961 C39.93026392 54.58089157 38.96521681 56.29049379 38 58 C37.34 58 36.68 58 36 58 C36 58.99 36 59.98 36 61 C32.4545202 59.8181734 32.28031093 59.26225524 30.5 56.125 C29.99210937 55.23941406 29.48421875 54.35382813 28.9609375 53.44140625 C28.31382813 52.30574219 27.66671875 51.17007813 27 50 C26.05676 48.40372146 25.11126599 46.80877362 24.1640625 45.21484375 C23.15066181 43.49761994 22.13764413 41.78017006 21.125 40.0625 C20.62419922 39.22154785 20.12339844 38.3805957 19.60742188 37.51416016 C19.14142578 36.71671387 18.67542969 35.91926758 18.1953125 35.09765625 C17.77266113 34.38101807 17.35000977 33.66437988 16.91455078 32.92602539 C16 31 16 31 16 28 C15.34 28 14.68 28 14 28 C12.03349851 24.46281042 10.07827783 20.91950646 8.125 17.375 C7.56941406 16.37597656 7.01382813 15.37695312 6.44140625 14.34765625 C5.90644531 13.37441406 5.37148438 12.40117187 4.8203125 11.3984375 C4.32805176 10.50817871 3.83579102 9.61791992 3.32861328 8.70068359 C2 6 2 6 0 0 Z " fill="#FEBC03" transform="translate(58,319)"/>
<path d="M0 0 C3 1 3 1 5 4 C5 4.99 5 5.98 5 7 C5.66 7 6.32 7 7 7 C7.35191406 7.65484375 7.70382812 8.3096875 8.06640625 8.984375 C11.45285327 15.24443894 14.98238716 21.38661092 18.6796875 27.46875 C20 30 20 30 20 33 C20.66 33 21.32 33 22 33 C23.96650149 36.53718958 25.92172217 40.08049354 27.875 43.625 C28.70837891 45.12353516 28.70837891 45.12353516 29.55859375 46.65234375 C30.09355469 47.62558594 30.62851562 48.59882813 31.1796875 49.6015625 C31.91807861 50.93695068 31.91807861 50.93695068 32.67138672 52.29931641 C34 55 34 55 36 61 C13.23 61 -9.54 61 -33 61 C-32.22998773 57.14993864 -31.6738858 54.99223427 -29.9375 51.6875 C-29.57527344 50.99011719 -29.21304687 50.29273438 -28.83984375 49.57421875 C-28.42412109 48.79498047 -28.42412109 48.79498047 -28 48 C-27.34 48 -26.68 48 -26 48 C-25.88068115 47.42636719 -25.7613623 46.85273438 -25.63842773 46.26171875 C-24.95964155 43.85702459 -24.01559924 41.98413175 -22.78515625 39.8125 C-22.34623047 39.03132813 -21.90730469 38.25015625 -21.45507812 37.4453125 C-20.99552734 36.63835937 -20.53597656 35.83140625 -20.0625 35 C-19.15685492 33.39622682 -18.25188346 31.79207302 -17.34765625 30.1875 C-16.94554932 29.47980469 -16.54344238 28.77210938 -16.12915039 28.04296875 C-15.02953999 26.05344663 -14.00155836 24.04037067 -13 22 C-12.34 22 -11.68 22 -11 22 C-10.91621094 21.484375 -10.83242188 20.96875 -10.74609375 20.4375 C-9.69586619 17.00639007 -7.87719219 14.07052341 -6.0625 11 C-2.8771213 5.58374332 -2.8771213 5.58374332 0 0 Z " fill="#FEBC04" transform="translate(406,118)"/>
<path d="M0 0 C0.66 0 1.32 0 2 0 C2.37511719 0.70125 2.75023437 1.4025 3.13671875 2.125 C5.94820008 7.33721728 8.80694216 12.43042988 12.1171875 17.34375 C13 19 13 19 13 22 C13.66 22 14.32 22 15 22 C15.35191406 22.65484375 15.70382813 23.3096875 16.06640625 23.984375 C19.45285327 30.24443894 22.98238716 36.38661092 26.6796875 42.46875 C28 45 28 45 28 48 C28.66 48 29.32 48 30 48 C30.84384675 49.41042956 31.67469496 50.82864132 32.5 52.25 C33.19609375 53.43335938 33.19609375 53.43335938 33.90625 54.640625 C35 57 35 57 35 61 C12.23 61 -10.54 61 -34 61 C-32.5676166 56.7028498 -31.31544803 53.46410814 -29.1796875 49.6015625 C-28.37724609 48.14169922 -28.37724609 48.14169922 -27.55859375 46.65234375 C-27.00300781 45.65332031 -26.44742188 44.65429688 -25.875 43.625 C-25.31167969 42.60277344 -24.74835938 41.58054688 -24.16796875 40.52734375 C-22.7830669 38.01574208 -21.39363545 35.50676281 -20 33 C-19.34 33 -18.68 33 -18 33 C-17.88068115 32.42636719 -17.7613623 31.85273438 -17.63842773 31.26171875 C-16.95964155 28.85702459 -16.01559924 26.98413175 -14.78515625 24.8125 C-14.12676758 23.64074219 -14.12676758 23.64074219 -13.45507812 22.4453125 C-12.99552734 21.63835937 -12.53597656 20.83140625 -12.0625 20 C-11.15685492 18.39622682 -10.25188346 16.79207302 -9.34765625 15.1875 C-8.94554932 14.47980469 -8.54344238 13.77210938 -8.12915039 13.04296875 C-7.02953999 11.05344663 -6.00155836 9.04037067 -5 7 C-4.34 7 -3.68 7 -3 7 C-2.87625 6.401875 -2.7525 5.80375 -2.625 5.1875 C-2 3 -2 3 0 0 Z " fill="#FDBD0A" transform="translate(92,118)"/>
<path d="M0 0 C23.1 0 46.2 0 70 0 C65.66958533 10.82603667 59.41768651 20.77280311 53.48828125 30.78515625 C47.79166703 40.4112269 42.30545198 50.15275958 37 60 C35.68 60 34.36 60 33 60 C32.50693359 59.08734375 32.50693359 59.08734375 32.00390625 58.15625 C25.83497144 46.78802325 19.51333409 35.51296121 12.9375 24.375 C6.52305679 13.50490326 6.52305679 13.50490326 3.375 8.0625 C2.72273437 6.93972656 2.07046875 5.81695312 1.3984375 4.66015625 C0 2 0 2 0 0 Z " fill="#FDBC05" transform="translate(215,47)"/>
<path d="M0 0 C25.41 0 50.82 0 77 0 C77 25.74 77 51.48 77 78 C51.59 78 26.18 78 0 78 C0.495 77.01 0.495 77.01 1 76 C25.75 76 50.5 76 76 76 C75.67 51.58 75.34 27.16 75 2 C51.81391833 2.07915336 51.81391833 2.07915336 28.62792969 2.18017578 C24.13916016 2.18920898 24.13916016 2.18920898 22.03643799 2.19088745 C20.57076808 2.19395459 19.10510316 2.20098043 17.63946533 2.21115112 C15.41678119 2.22580158 13.19440492 2.22781164 10.97167969 2.22705078 C9.71925476 2.231492 8.46682983 2.23593323 7.17645264 2.24050903 C4 2 4 2 0 0 Z " fill="#E975B6" transform="translate(54,211)"/>
<path d="M0 0 C22.77 0 45.54 0 69 0 C66.99572748 10.02136259 60.41018251 18.74653786 55.1484375 27.421875 C53.03684464 30.91360649 51.01173131 34.44988593 49 38 C48.67 37.01 48.34 36.02 48 35 C48.495 34.01 48.495 34.01 49 33 C49.66 33 50.32 33 51 33 C51 31.02 51 29.04 51 27 C51.99 27 52.98 27 54 27 C54.33 25.35 54.66 23.7 55 22 C55.66 22 56.32 22 57 22 C57 20.68 57 19.36 57 18 C57.66 18 58.32 18 59 18 C59 16.35 59 14.7 59 13 C59.66 13 60.32 13 61 13 C61 12.01 61 11.02 61 10 C61.66 10 62.32 10 63 10 C62.938125 9.21625 62.87625 8.4325 62.8125 7.625 C62.9053125 6.325625 62.9053125 6.325625 63 5 C64.485 4.01 64.485 4.01 66 3 C45.54 2.67 25.08 2.34 4 2 C4 3.98 4 5.96 4 8 C0.78253679 5.34209561 0.91766992 4.58834962 0 0 Z " fill="#F6D168" transform="translate(58,319)"/>
<path d="M0 0 C22.77 0 45.54 0 69 0 C67.54996379 4.35010863 66.09990776 7.99108518 64 12 C63 9 63 9 66 2 C44.88 2 23.76 2 2 2 C2.33 3.65 2.66 5.3 3 7 C3.99 7.33 4.98 7.66 6 8 C6 8.99 6 9.98 6 11 C6.66 11 7.32 11 8 11 C8.33 12.98 8.66 14.96 9 17 C4.86297417 13.47586688 2.13052394 8.95958031 0 4 C0 2.68 0 1.36 0 0 Z " fill="#F5D066" transform="translate(373,319)"/>
<path d="M0 0 C1.125 3.75 1.125 3.75 0 6 C20.79 5.67 41.58 5.34 63 5 C63.33 3.68 63.66 2.36 64 1 C66 4 66 4 66 8 C43.23 8 20.46 8 -3 8 C-1 2 -1 2 0 0 Z " fill="#F6D16A" transform="translate(61,171)"/>
<path d="M0 0 C0.33 1.32 0.66 2.64 1 4 C21.79 4.33 42.58 4.66 64 5 C64.33 3.68 64.66 2.36 65 1 C65.99 3.97 65.99 3.97 67 7 C44.23 7 21.46 7 -2 7 C-1 2 -1 2 0 0 Z " fill="#F6D169" transform="translate(375,172)"/>
<path d="M0 0 C1.5625 1.8125 1.5625 1.8125 3 4 C2.67 4.99 2.34 5.98 2 7 C1.01 6.67 0.02 6.34 -1 6 C-1.66 7.98 -2.32 9.96 -3 12 C20.43 12 43.86 12 68 12 C67.505 10.02 67.505 10.02 67 8 C65.68 7.67 64.36 7.34 63 7 C63 4.69 63 2.38 63 0 C64.5 1.3125 64.5 1.3125 66 3 C66 3.99 66 4.98 66 6 C66.66 6 67.32 6 68 6 C69.4606285 8.64738916 70 9.89448334 70 13 C44.92 13 19.84 13 -6 13 C-5 9 -5 9 -4 6 C-3.34 6 -2.68 6 -2 6 C-1.855625 5.38125 -1.71125 4.7625 -1.5625 4.125 C-1 2 -1 2 0 0 Z " fill="#EBC258" transform="translate(218,440)"/>
<path d="M0 0 C0 0.66 0 1.32 0 2 C-0.99 2 -1.98 2 -3 2 C-3 2.66 -3 3.32 -3 4 C-4.97290587 6.34869747 -6.00306862 7.00102287 -9 8 C-8.835 8.61875 -8.67 9.2375 -8.5 9.875 C-8 12 -8 12 -8 14 C-7.67 14.66 -7.34 15.32 -7 16 C-7.99 16 -8.98 16 -10 16 C-9.01 18.97 -8.02 21.94 -7 25 C-7.99 25 -8.98 25 -10 25 C-10.84114171 23.56705502 -11.67265687 22.12845595 -12.5 20.6875 C-12.9640625 19.88699219 -13.428125 19.08648437 -13.90625 18.26171875 C-15 16 -15 16 -15 13 C-15.66 13 -16.32 13 -17 13 C-17 11.68 -17 10.36 -17 9 C-14.91796875 7.296875 -14.91796875 7.296875 -12.1875 5.75 C-11.29417969 5.22921875 -10.40085937 4.7084375 -9.48046875 4.171875 C-7 3 -7 3 -4 3 C-4 2.34 -4 1.68 -4 1 C-2 0 -2 0 0 0 Z " fill="#EF3EA4" transform="translate(293,362)"/>
<path d="M0 0 C4.98862887 1.66287629 6.63732832 6.5116008 9 11 C10.375 14.625 10.375 14.625 11 17 C10.01 17 9.02 17 8 17 C8 15.35 8 13.7 8 12 C7.01 11.67 6.02 11.34 5 11 C4.34 10.34 3.68 9.68 3 9 C1.68 10.32 0.36 11.64 -1 13 C-1.33 12.01 -1.66 11.02 -2 10 C-2.66 10 -3.32 10 -4 10 C-4 10.66 -4 11.32 -4 12 C-4.66 12 -5.32 12 -6 12 C-6 13.32 -6 14.64 -6 16 C-6.99 16.33 -7.98 16.66 -9 17 C-7.68925635 12.53817564 -5.92933989 9.00381243 -3.375 5.125 C-2.74335938 4.15820312 -2.11171875 3.19140625 -1.4609375 2.1953125 C-0.73777344 1.10863281 -0.73777344 1.10863281 0 0 Z " fill="#F6C437" transform="translate(249,387)"/>
<path d="M0 0 C1.9375 0.8125 1.9375 0.8125 4 2 C4.33 2.99 4.66 3.98 5 5 C7.01508358 5.73323796 7.01508358 5.73323796 9 6 C9.13277344 6.60328125 9.26554688 7.2065625 9.40234375 7.828125 C9.57894531 8.62734375 9.75554687 9.4265625 9.9375 10.25 C10.11152344 11.03890625 10.28554687 11.8278125 10.46484375 12.640625 C10.947556 14.76878703 11.46163178 16.88532842 12 19 C13.65 19.33 15.3 19.66 17 20 C17 21.98 17 23.96 17 26 C17.66 26.33 18.32 26.66 19 27 C19.72693904 28.97888961 20.39816251 30.97954558 21 33 C20.01 33.495 20.01 33.495 19 34 C17.99193149 32.40089132 16.99379615 30.79551738 16 29.1875 C15.443125 28.29417969 14.88625 27.40085938 14.3125 26.48046875 C13 24 13 24 13 21 C12.34 21 11.68 21 11 21 C10.62488281 20.29875 10.24976563 19.5975 9.86328125 18.875 C7.04084854 13.64247992 4.16246043 8.51931908 0.8828125 3.55859375 C0 2 0 2 0 0 Z M11 7 C11.33 7.66 11.66 8.32 12 9 C11.34 8.67 10.68 8.34 10 8 C10.33 7.67 10.66 7.34 11 7 Z " fill="#EA62AE" transform="translate(123,108)"/>
<path d="M0 0 C0.99 0.99 1.98 1.98 3 3 C2.34 3 1.68 3 1 3 C1 3.99 1 4.98 1 6 C0.01 6.495 0.01 6.495 -1 7 C-0.87625 8.3921875 -0.87625 8.3921875 -0.75 9.8125 C-0.8325 10.864375 -0.915 11.91625 -1 13 C-2.875 14.5625 -2.875 14.5625 -5 16 C-5.69658363 17.65438613 -6.36096883 19.32254318 -7 21 C-8.9375 23.8125 -8.9375 23.8125 -11 26 C-11.99 26 -12.98 26 -14 26 C-12.64734437 22.35371092 -10.9907517 19.17432828 -8.9375 15.875 C-7.27320598 13.19748052 -6.00009199 11.00027598 -5 8 C-4.34 8 -3.68 8 -3 8 C-2.87625 7.4225 -2.7525 6.845 -2.625 6.25 C-1.99351176 3.97664233 -1.11141809 2.0746471 0 0 Z " fill="#E95AA8" transform="translate(139,363)"/>
<path d="M0 0 C23.1 0 46.2 0 70 0 C69.34 1.65 68.68 3.3 68 5 C67.505 3.02 67.505 3.02 67 1 C45.55 1 24.1 1 2 1 C2.33 2.32 2.66 3.64 3 5 C1.5 3.625 1.5 3.625 0 2 C0 1.34 0 0.68 0 0 Z " fill="#EBC454" transform="translate(215,47)"/>
<path d="M0 0 C0.99 0 1.98 0 3 0 C3 0.66 3 1.32 3 2 C2.34 2 1.68 2 1 2 C0.91105469 2.52464844 0.82210938 3.04929687 0.73046875 3.58984375 C-0.26082488 6.86058263 -1.95807308 9.63985622 -3.6875 12.5625 C-4.4138461 13.80665847 -5.1390932 15.05145915 -5.86328125 16.296875 C-6.22373535 16.91626953 -6.58418945 17.53566406 -6.95556641 18.17382812 C-8.98816836 21.7277932 -10.87729958 25.36019613 -12.7734375 28.98828125 C-14 31 -14 31 -16 32 C-16 30.35 -16 28.7 -16 27 C-15.34 27 -14.68 27 -14 27 C-13.9175 25.906875 -13.835 24.81375 -13.75 23.6875 C-12.88608003 19.43989349 -12.33902051 19.32719612 -9 17 C-7.71991738 13.91222828 -7.71991738 13.91222828 -7 11 C-6.01 11 -5.02 11 -4 11 C-4 9.68 -4 8.36 -4 7 C-3.34 7 -2.68 7 -2 7 C-2 5.68 -2 4.36 -2 3 C-1.34 3 -0.68 3 0 3 C0 2.01 0 1.02 0 0 Z " fill="#F7C743" transform="translate(425,345)"/>
<path d="M0 0 C21.45 0 42.9 0 65 0 C65 0.33 65 0.66 65 1 C34.31 1.495 34.31 1.495 3 2 C3.66 4.97 4.32 7.94 5 11 C2 8 2 8 0 0 Z " fill="#F7BD19" transform="translate(217,48)"/>
<path d="M0 0 C0.511048 4.76684424 -1.05665707 7.23879298 -3.625 11.1875 C-4.36247867 12.33952414 -5.09945292 13.49187134 -5.8359375 14.64453125 C-6.90714844 16.30548828 -6.90714844 16.30548828 -8 18 C-9.09207225 19.78635348 -10.17643339 21.57746411 -11.25 23.375 C-11.72179687 24.16390625 -12.19359375 24.9528125 -12.6796875 25.765625 C-14.48743673 28.82489292 -16.25150872 31.90651542 -18 35 C-18.495 33.515 -18.495 33.515 -19 32 C-18.67 31.34 -18.34 30.68 -18 30 C-17.34 30 -16.68 30 -16 30 C-16 28.02 -16 26.04 -16 24 C-15.01 24 -14.02 24 -13 24 C-12.67 22.35 -12.34 20.7 -12 19 C-11.34 19 -10.68 19 -10 19 C-10 17.68 -10 16.36 -10 15 C-9.34 15 -8.68 15 -8 15 C-8 13.35 -8 11.7 -8 10 C-7.34 10 -6.68 10 -6 10 C-6 9.01 -6 8.02 -6 7 C-5.34 7 -4.68 7 -4 7 C-4.061875 6.21625 -4.12375 5.4325 -4.1875 4.625 C-4.125625 3.75875 -4.06375 2.8925 -4 2 C-1 0 -1 0 0 0 Z " fill="#FACE56" transform="translate(125,322)"/>
<path d="M0 0 C1.35680872 4.49084576 0.04427943 6.91144114 -2 11 C-2.66 11 -3.32 11 -4 11 C-4 11.99 -4 12.98 -4 14 C-4.6496875 14.61875 -4.6496875 14.61875 -5.3125 15.25 C-7.79323439 17.82261344 -8.68732152 20.68704954 -10 24 C-10.66 24 -11.32 24 -12 24 C-12 25.32 -12 26.64 -12 28 C-12.66 28 -13.32 28 -14 28 C-14 28.99 -14 29.98 -14 31 C-15.98 31.99 -15.98 31.99 -18 33 C-16.53524189 29.01055832 -14.62274587 25.51555575 -12.4375 21.875 C-10.64686939 18.88937474 -9.10117028 16.30351083 -8 13 C-7.34 13 -6.68 13 -6 13 C-5.88785156 12.43796875 -5.77570313 11.8759375 -5.66015625 11.296875 C-4.90942661 8.68486892 -3.78832624 6.60528678 -2.4375 4.25 C-1.98246094 3.45078125 -1.52742188 2.6515625 -1.05859375 1.828125 C-0.70925781 1.22484375 -0.35992187 0.6215625 0 0 Z " fill="#F3CB4A" transform="translate(401,127)"/>
<path d="M0 0 C2.95514876 2.75134539 5.1524809 5.39733775 7 9 C7 9.99 7 10.98 7 12 C7.66 12 8.32 12 9 12 C9 13.65 9 15.3 9 17 C3.94956268 14.03939881 2.77129612 9.31388835 1 4 C-0.32 4 -1.64 4 -3 4 C-3.33 4.99 -3.66 5.98 -4 7 C-6.64 7.33 -9.28 7.66 -12 8 C-11.67 7.34 -11.34 6.68 -11 6 C-10.01 6 -9.02 6 -8 6 C-8 5.34 -8 4.68 -8 4 C-5.36 2.68 -2.72 1.36 0 0 Z " fill="#E663AA" transform="translate(342,333)"/>
<path d="M0 0 C1.32 0 2.64 0 4 0 C2.59113139 3.79842028 0.82880444 7.15096195 -1.25 10.625 C-4.19414997 15.58711943 -6.96780084 20.60975385 -9.640625 25.72265625 C-10.90942997 27.84826917 -12.16655304 29.35529023 -14 31 C-14 29.35 -14 27.7 -14 26 C-13.34 26 -12.68 26 -12 26 C-12 25.01 -12 24.02 -12 23 C-11.34 23 -10.68 23 -10 23 C-10 21.68 -10 20.36 -10 19 C-9.34 19 -8.68 19 -8 19 C-8 17.68 -8 16.36 -8 15 C-7.34 15 -6.68 15 -6 15 C-6 14.34 -6 13.68 -6 13 C-5.34 13 -4.68 13 -4 13 C-4 11.68 -4 10.36 -4 9 C-3.34 9 -2.68 9 -2 9 C-2 8.01 -2 7.02 -2 6 C-1.34 6 -0.68 6 0 6 C0 4.02 0 2.04 0 0 Z " fill="#F6C94C" transform="translate(269,68)"/>
<path d="M0 0 C3.0831351 1.19899698 6.06279492 2.47700477 9 4 C8.67 4.66 8.34 5.32 8 6 C5.6693782 6.35179197 3.33564933 6.68330179 1 7 C-1.35460678 7.67424167 -1.35460678 7.67424167 -3 9 C-3.80528889 11.05000871 -3.80528889 11.05000871 -4 13 C-4.66 13 -5.32 13 -6 13 C-6.33 14.32 -6.66 15.64 -7 17 C-7.66 16.34 -8.32 15.68 -9 15 C-8.67 14.01 -8.34 13.02 -8 12 C-7.34 12 -6.68 12 -6 12 C-5.88785156 11.42765625 -5.77570313 10.8553125 -5.66015625 10.265625 C-4.92776966 7.75210888 -3.86145147 5.94069457 -2.4375 3.75 C-1.98246094 3.04359375 -1.52742187 2.3371875 -1.05859375 1.609375 C-0.70925781 1.07828125 -0.35992187 0.5471875 0 0 Z " fill="#E860AE" transform="translate(157,333)"/>
<path d="M0 0 C1 2 1 2 0.5 4.4375 C-0.23853737 7.10448331 -0.23853737 7.10448331 1 10 C0.01 10.495 0.01 10.495 -1 11 C-1.66 10.67 -2.32 10.34 -3 10 C-3.33 12.31 -3.66 14.62 -4 17 C-4.99 17 -5.98 17 -7 17 C-6.67 17.66 -6.34 18.32 -6 19 C-7.32 19.33 -8.64 19.66 -10 20 C-10 18.68 -10 17.36 -10 16 C-9.34 16 -8.68 16 -8 16 C-7.8453125 15.18595703 -7.8453125 15.18595703 -7.6875 14.35546875 C-6.83006596 11.4177828 -5.48505561 8.98631406 -4 6.3125 C-3.46375 5.33925781 -2.9275 4.36601563 -2.375 3.36328125 C-1 1 -1 1 0 0 Z " fill="#EB60B0" transform="translate(286,109)"/>
<path d="M0 0 C4.75481646 0.57634139 7.97048212 2.55068521 12 5 C12 5.33 12 5.66 12 6 C10.35 6 8.7 6 7 6 C7 5.34 7 4.68 7 4 C6.01 4 5.02 4 4 4 C4 4.66 4 5.32 4 6 C1 8 1 8 -2 8 C-2 8.66 -2 9.32 -2 10 C-2.66 10 -3.32 10 -4 10 C-3.29445932 6.33118845 -1.72264494 3.29549466 0 0 Z " fill="#E85EAC" transform="translate(313,61)"/>
<path d="M0 0 C2.475 0.495 2.475 0.495 5 1 C5 1.99 5 2.98 5 4 C7.41645782 4.16687448 7.41645782 4.16687448 10 4 C10.66 3.34 11.32 2.68 12 2 C13.32 2 14.64 2 16 2 C16 1.34 16 0.68 16 0 C17.32 0.33 18.64 0.66 20 1 C17 3 17 3 14 3 C14 3.66 14 4.32 14 5 C11.03 6.32 8.06 7.64 5 9 C0 1.125 0 1.125 0 0 Z " fill="#EB64AC" transform="translate(152,158)"/>
<path d="M0 0 C3.3 1.65 6.6 3.3 10 5 C10 6.32 10 7.64 10 9 C9.34 9 8.68 9 8 9 C7.896875 9.556875 7.79375 10.11375 7.6875 10.6875 C6.86410318 13.45710747 5.59831722 15.60252417 4 18 C3.67 18 3.34 18 3 18 C3 16.02 3 14.04 3 12 C3.66 12 4.32 12 5 12 C5 11.34 5 10.68 5 10 C5.66 10 6.32 10 7 10 C4.41889311 5.41455183 4.41889311 5.41455183 0 3 C0 2.01 0 1.02 0 0 Z " fill="#E672B4" transform="translate(214,366)"/>
<path d="M0 0 C0 3.90079996 -1.41793017 5.68416703 -3.4375 9 C-6.07683294 13.33373016 -6.07683294 13.33373016 -8 18 C-8.66 18 -9.32 18 -10 18 C-10.12375 18.598125 -10.2475 19.19625 -10.375 19.8125 C-11 22 -11 22 -13 25 C-13.57412662 20.11992372 -11.72382179 17.92550787 -9 14 C-8.32204472 12.00379834 -7.65266469 10.00461299 -7 8 C-6.34 7.67 -5.68 7.34 -5 7 C-4.34786708 4.97536745 -4.34786708 4.97536745 -4 3 C-3.34 3 -2.68 3 -2 3 C-2 2.34 -2 1.68 -2 1 C-1.34 0.67 -0.68 0.34 0 0 Z " fill="#E36FB0" transform="translate(363,130)"/>
<path d="M0 0 C2.65269897 2.47585238 4.68010103 4.59026101 6 8 C6 8.99 6 9.98 6 11 C6.66 11 7.32 11 8 11 C8.3125 13.3125 8.3125 13.3125 8 16 C5.13896577 18.24243223 3.65923696 19 0 19 C0 18.01 0 17.02 0 16 C1.32 16 2.64 16 4 16 C3.67 12.37 3.34 8.74 3 5 C2.01 4.67 1.02 4.34 0 4 C0 2.68 0 1.36 0 0 Z " fill="#E66BB0" transform="translate(373,386)"/>
<path d="M0 0 C0.66 0 1.32 0 2 0 C2 0.66 2 1.32 2 2 C2.8971875 2.2165625 2.8971875 2.2165625 3.8125 2.4375 C5.56150404 2.8872439 7.28677023 3.42892341 9 4 C9 4.66 9 5.32 9 6 C9.54140625 6.10183594 10.0828125 6.20367187 10.640625 6.30859375 C13.60596581 7.17757607 16.05524946 8.55472291 18.75 10.0625 C19.73484375 10.61035156 20.7196875 11.15820312 21.734375 11.72265625 C22.85585938 12.35494141 22.85585938 12.35494141 24 13 C20.68604014 14.08784335 20.16419665 14.07262544 16.75 12.5625 C15.8425 12.046875 14.935 11.53125 14 11 C14 10.34 14 9.68 14 9 C13.34 8.938125 12.68 8.87625 12 8.8125 C7.87043321 7.69407566 4.33003359 5.6920365 1 3 C0.67 2.01 0.34 1.02 0 0 Z " fill="#E77BB8" transform="translate(338,74)"/>
<path d="M0 0 C0 3.6594149 -1.07985345 5.27237319 -2.875 8.4375 C-4.65424537 11.59630519 -6.41238671 14.73999796 -8 18 C-8.66 18 -9.32 18 -10 18 C-10.33 18.99 -10.66 19.98 -11 21 C-11 19.68 -11 18.36 -11 17 C-10.34 17 -9.68 17 -9 17 C-9.226875 15.906875 -9.45375 14.81375 -9.6875 13.6875 C-10 10 -10 10 -8.875 8.1875 C-6.6697368 6.7908333 -4.45943107 5.86412443 -2 5 C-2 3.68 -2 2.36 -2 1 C-1.34 0.67 -0.68 0.34 0 0 Z " fill="#EA77B7" transform="translate(210,395)"/>
<path d="M0 0 C0.66 0 1.32 0 2 0 C1.32847734 3.4050149 0.00625871 6.04396413 -1.6875 9.0625 C-2.21988281 10.01898438 -2.75226563 10.97546875 -3.30078125 11.9609375 C-3.86152344 12.96382812 -4.42226563 13.96671875 -5 15 C-6.1273171 17.06123443 -7.25242945 19.1236767 -8.375 21.1875 C-9.25 22.79166667 -10.125 24.39583333 -11 26 C-11.33 26 -11.66 26 -12 26 C-12.20086443 22.28400809 -12.1519437 21.22791555 -10 18 C-9.34 18 -8.68 18 -8 18 C-8 16.68 -8 15.36 -8 14 C-7.34 14 -6.68 14 -6 14 C-6 12.68 -6 11.36 -6 10 C-5.34 10 -4.68 10 -4 10 C-4.33 8.68 -4.66 7.36 -5 6 C-3.68 6 -2.36 6 -1 6 C-0.67 4.02 -0.34 2.04 0 0 Z " fill="#E879B7" transform="translate(377,103)"/>
<path d="M0 0 C-1.25 1.5 -1.25 1.5 -3 3 C-4.32 3 -5.64 3 -7 3 C-7 3.99 -7 4.98 -7 6 C-9.31 6.33 -11.62 6.66 -14 7 C-14 7.66 -14 8.32 -14 9 C-15.98 9.33 -17.96 9.66 -20 10 C-20 9.34 -20 8.68 -20 8 C-17.35261084 6.5393715 -16.10551666 6 -13 6 C-13 5.34 -13 4.68 -13 4 C-11.59248779 3.13083113 -10.1735479 2.28014851 -8.75 1.4375 C-7.96109375 0.96183594 -7.1721875 0.48617187 -6.359375 -0.00390625 C-3.69155375 -1.13022151 -2.65498232 -1.0169313 0 0 Z " fill="#EA6FB5" transform="translate(173,70)"/>
<path d="M0 0 C0.99 0 1.98 0 3 0 C3 0.66 3 1.32 3 2 C3.66 2 4.32 2 5 2 C5 3.32 5 4.64 5 6 C5.66 6 6.32 6 7 6 C7.33 6.66 7.66 7.32 8 8 C9.32 7.67 10.64 7.34 12 7 C11.01 9.31 10.02 11.62 9 14 C9.66 14.33 10.32 14.66 11 15 C10.34 15.66 9.68 16.32 9 17 C7.49743011 14.35559624 5.9978388 11.70958148 4.5 9.0625 C4.07074219 8.30775391 3.64148438 7.55300781 3.19921875 6.77539062 C2.79316406 6.05673828 2.38710937 5.33808594 1.96875 4.59765625 C1.59169922 3.93258057 1.21464844 3.26750488 0.82617188 2.58227539 C0 1 0 1 0 0 Z " fill="#F8C74C" transform="translate(226,67)"/>
<path d="M0 0 C1.65 3.3 3.3 6.6 5 10 C4.34 10.66 3.68 11.32 3 12 C-0.0916909 9.47043472 -0.90931332 6.77545388 -2 3 C-3.36125 3.7734375 -3.36125 3.7734375 -4.75 4.5625 C-8.16419665 6.07262544 -8.68604014 6.08784335 -12 5 C-10.75747321 4.15556432 -9.5056114 3.3248542 -8.25 2.5 C-7.55390625 2.0359375 -6.8578125 1.571875 -6.140625 1.09375 C-4 0 -4 0 0 0 Z " fill="#E274B2" transform="translate(187,61)"/>
<path d="M0 0 C5.14285714 6.42857143 5.14285714 6.42857143 5 13 C3.02 13 1.04 13 -1 13 C-0.67 8.71 -0.34 4.42 0 0 Z " fill="#FDBB08" transform="translate(434,164)"/>
<path d="M0 0 C0.66 0 1.32 0 2 0 C2 0.66 2 1.32 2 2 C2.99 2.66 3.98 3.32 5 4 C6.1328125 6.05859375 6.1328125 6.05859375 7.125 8.4375 C7.45757812 9.21996094 7.79015625 10.00242187 8.1328125 10.80859375 C8.80948666 12.51856765 9.41845906 14.25537718 10 16 C9.01 16 8.02 16 7 16 C6.15885829 14.56705502 5.32734313 13.12845595 4.5 11.6875 C4.0359375 10.88699219 3.571875 10.08648437 3.09375 9.26171875 C2 7 2 7 2 4 C1.34 4 0.68 4 0 4 C0 2.68 0 1.36 0 0 Z " fill="#E96AB1" transform="translate(276,371)"/>
<path d="M0 0 C3 1 3 1 5 4 C5 4.99 5 5.98 5 7 C5.66 7 6.32 7 7 7 C7.66 8.98 8.32 10.96 9 13 C6.33333333 10.33333333 3.66666667 7.66666667 1 5 C-0.32 6.32 -1.64 7.64 -3 9 C-3.33 8.34 -3.66 7.68 -4 7 C-3.22265625 5.2734375 -3.22265625 5.2734375 -2.0625 3.375 C-1.381875 2.26125 -0.70125 1.1475 0 0 Z " fill="#F4CD58" transform="translate(406,118)"/>
<path d="M0 0 C2.52521234 3.22666021 4.65662251 6.60431967 6.75 10.125 C7.38421875 11.17945312 8.0184375 12.23390625 8.671875 13.3203125 C9.11015625 14.20460938 9.5484375 15.08890625 10 16 C9.67 16.66 9.34 17.32 9 18 C7.68 17.34 6.36 16.68 5 16 C5 14.68 5 13.36 5 12 C4.34 12 3.68 12 3 12 C2.49166409 10.75336669 1.99368855 9.50250613 1.5 8.25 C1.2215625 7.55390625 0.943125 6.8578125 0.65625 6.140625 C0 4 0 4 0 0 Z " fill="#E76BB0" transform="translate(212,106)"/>
<path d="M0 0 C0.66 0 1.32 0 2 0 C2 0.66 2 1.32 2 2 C2.99 2 3.98 2 5 2 C5.33 4.31 5.66 6.62 6 9 C6.66 9 7.32 9 8 9 C8 8.34 8 7.68 8 7 C8.66 7 9.32 7 10 7 C10.9765625 13.0546875 10.9765625 13.0546875 11 15 C10.34 15.66 9.68 16.32 9 17 C7.68417937 14.73103368 6.37224764 12.45996813 5.0625 10.1875 C4.68931641 9.54490234 4.31613281 8.90230469 3.93164062 8.24023438 C2.36533365 5.51683576 0.99630626 2.98891878 0 0 Z " fill="#F6C638" transform="translate(390,351)"/>
<path d="M0 0 C3.14737182 0.69941596 6.02588876 1.76078698 9 3 C6.31158141 5.25245881 4.35358125 6.88213958 1 8 C0.26919734 6.02253397 -0.39421747 4.01927511 -1 2 C-0.67 1.34 -0.34 0.68 0 0 Z " fill="#243343" transform="translate(275,298)"/>
<path d="M0 0 C5.4611399 0.35233161 5.4611399 0.35233161 8 1 C9.5 3.0625 9.5 3.0625 10 5 C10.99 5 11.98 5 13 5 C13.33 3.68 13.66 2.36 14 1 C14.66 1.33 15.32 1.66 16 2 C14.25 6.875 14.25 6.875 12 8 C10.0546875 7.22265625 10.0546875 7.22265625 7.875 6.0625 C7.15054687 5.68222656 6.42609375 5.30195313 5.6796875 4.91015625 C4.84824219 4.45962891 4.84824219 4.45962891 4 4 C4 3.34 4 2.68 4 2 C2.68 1.67 1.36 1.34 0 1 C0 0.67 0 0.34 0 0 Z " fill="#E671B2" transform="translate(330,159)"/>
<path d="M0 0 C8.0794702 0.66225166 8.0794702 0.66225166 11 4 C13.60611077 4.72197162 13.60611077 4.72197162 16 5 C16 5.66 16 6.32 16 7 C16.66 7.33 17.32 7.66 18 8 C18 8.66 18 9.32 18 10 C12.52067211 8.45454854 7.88570819 5.84456788 3 3 C3 2.34 3 1.68 3 1 C2.01 0.67 1.02 0.34 0 0 Z " fill="#E67ABA" transform="translate(286,134)"/>
<path d="M0 0 C1.63550095 3.2710019 0.98229349 6.59775168 0 10 C-2.5625 13 -2.5625 13 -5 15 C-5.99 14.67 -6.98 14.34 -8 14 C-7.59007812 13.32453125 -7.18015625 12.6490625 -6.7578125 11.953125 C-6.21898437 11.06109375 -5.68015625 10.1690625 -5.125 9.25 C-4.59132812 8.36828125 -4.05765625 7.4865625 -3.5078125 6.578125 C-2.24403334 4.41725907 -1.08501165 2.25429605 0 0 Z " fill="#F8C126" transform="translate(236,409)"/>
<path d="M0 0 C2.97 0.495 2.97 0.495 6 1 C5.67 2.65 5.34 4.3 5 6 C6.65 6 8.3 6 10 6 C10 6.66 10 7.32 10 8 C9.34 8 8.68 8 8 8 C8 8.99 8 9.98 8 11 C4.32057704 9.77352568 4.07059518 8.83668515 2.3125 5.5 C1.87550781 4.6853125 1.43851562 3.870625 0.98828125 3.03125 C0 1 0 1 0 0 Z " fill="#F4CB5B" transform="translate(86,369)"/>
<path d="M0 0 C2.64 0.66 5.28 1.32 8 2 C8 2.66 8 3.32 8 4 C8.99 4.33 9.98 4.66 11 5 C8 7 8 7 5.5625 6.875 C2.52228253 5.83687696 1.08905886 4.39854906 -1 2 C-0.67 1.34 -0.34 0.68 0 0 Z " fill="#1E2B3B" transform="translate(244,314)"/>
<path d="M0 0 C0.99 0 1.98 0 3 0 C3 0.66 3 1.32 3 2 C3.5775 2.12375 4.155 2.2475 4.75 2.375 C7.02335767 3.00648824 8.9253529 3.88858191 11 5 C11 6.65 11 8.3 11 10 C9.35 9.67 7.7 9.34 6 9 C6 8.34 6 7.68 6 7 C5.34 6.67 4.68 6.34 4 6 C4 5.34 4 4.68 4 4 C2.68 3.34 1.36 2.68 0 2 C0 1.34 0 0.68 0 0 Z " fill="#E66AB3" transform="translate(370,93)"/>
<path d="M0 0 C0.66 0 1.32 0 2 0 C1.40985173 4.32243729 -0.15674215 7.39046463 -2.375 11.125 C-2.98085937 12.15882813 -3.58671875 13.19265625 -4.2109375 14.2578125 C-5.67884804 16.50775399 -7.00795159 18.2279324 -9 20 C-8.67 18.35 -8.34 16.7 -8 15 C-7.34 15 -6.68 15 -6 15 C-6 13.02 -6 11.04 -6 9 C-5.01 9 -4.02 9 -3 9 C-2.67 7.35 -2.34 5.7 -2 4 C-1.34 4 -0.68 4 0 4 C0 2.68 0 1.36 0 0 Z " fill="#F4CD57" transform="translate(115,337)"/>
<path d="M0 0 C0.66 0.99 1.32 1.98 2 3 C1.45859375 3.67095703 1.45859375 3.67095703 0.90625 4.35546875 C-2.13442422 8.23864387 -2.13442422 8.23864387 -3.3125 12.9375 C-3.209375 13.618125 -3.10625 14.29875 -3 15 C-4.32 15 -5.64 15 -7 15 C-7.33 14.34 -7.66 13.68 -8 13 C-7.34 13 -6.68 13 -6 13 C-5.83177734 12.15695313 -5.83177734 12.15695313 -5.66015625 11.296875 C-4.90942661 8.68486892 -3.78832624 6.60528678 -2.4375 4.25 C-1.98246094 3.45078125 -1.52742188 2.6515625 -1.05859375 1.828125 C-0.53458984 0.92320313 -0.53458984 0.92320313 0 0 Z " fill="#E85DAD" transform="translate(295,93)"/>
<path d="M0 0 C2.63744638 1.31872319 3.20619668 2.8111975 4.625 5.375 C5.07101562 6.16648437 5.51703125 6.95796875 5.9765625 7.7734375 C7 10 7 10 7 13 C7.66 13 8.32 13 9 13 C9.33 14.32 9.66 15.64 10 17 C8 17 8 17 6.015625 15.3515625 C3.78939324 12.75429212 2.84574801 10.60136914 1.75 7.375 C1.41484375 6.41335938 1.0796875 5.45171875 0.734375 4.4609375 C0 2 0 2 0 0 Z " fill="#F5CC52" transform="translate(271,423)"/>
<path d="M0 0 C1.5 1.3125 1.5 1.3125 3 3 C3 3.99 3 4.98 3 6 C3.66 6 4.32 6 5 6 C8 11.75 8 11.75 8 14 C6.35 13.67 4.7 13.34 3 13 C2.45627049 9.94152152 2 7.11227195 2 4 C1.34 4 0.68 4 0 4 C0 2.68 0 1.36 0 0 Z " fill="#F9C133" transform="translate(423,145)"/>
<path d="M0 0 C0.33 0 0.66 0 1 0 C1.25 5.625 1.25 5.625 -1 9 C-1.66 9 -2.32 9 -3 9 C-3.0825 9.78375 -3.165 10.5675 -3.25 11.375 C-4 14 -4 14 -6.0625 15.3125 C-7.0215625 15.6528125 -7.0215625 15.6528125 -8 16 C-7.34 14.02 -6.68 12.04 -6 10 C-5.34 10 -4.68 10 -4 10 C-3.7834375 9.1028125 -3.7834375 9.1028125 -3.5625 8.1875 C-3.1127561 6.43849596 -2.57107659 4.71322977 -2 3 C-1.34 3 -0.68 3 0 3 C0 2.01 0 1.02 0 0 Z " fill="#E96DB2" transform="translate(304,77)"/>
<path d="M0 0 C6.27 0 12.54 0 19 0 C19 0.33 19 0.66 19 1 C11.08 1.495 11.08 1.495 3 2 C3.66 4.97 4.32 7.94 5 11 C2 8 2 8 0 0 Z " fill="#F7C330" transform="translate(217,48)"/>
<path d="M0 0 C0.33 0 0.66 0 1 0 C1.33 2.31 1.66 4.62 2 7 C0.68 6.67 -0.64 6.34 -2 6 C-1.67 8.64 -1.34 11.28 -1 14 C-2.32 13.67 -3.64 13.34 -5 13 C-5 11.35 -5 9.7 -5 8 C-4.34 8 -3.68 8 -3 8 C-2.87625 7.4225 -2.7525 6.845 -2.625 6.25 C-1.99351176 3.97664233 -1.11141809 2.0746471 0 0 Z " fill="#E171AE" transform="translate(124,389)"/>
<path d="M0 0 C-4.49101628 4.04191465 -9.58984989 6.43674441 -15 9 C-14.67 7.35 -14.34 5.7 -14 4 C-13.2575 3.896875 -12.515 3.79375 -11.75 3.6875 C-8.96192452 3.1882621 -8.96192452 3.1882621 -7 1.4375 C-4.51091681 -0.35152855 -2.99743256 -0.24978605 0 0 Z " fill="#E879BB" transform="translate(188,149)"/>
<path d="M0 0 C0.33 1.32 0.66 2.64 1 4 C-0.59910868 5.00806851 -2.20448262 6.00620385 -3.8125 7 C-5.15248047 7.8353125 -5.15248047 7.8353125 -6.51953125 8.6875 C-9 10 -9 10 -12 10 C-11.67 8.68 -11.34 7.36 -11 6 C-8.36 5.67 -5.72 5.34 -3 5 C-3 4.34 -3 3.68 -3 3 C-2.34 3 -1.68 3 -1 3 C-0.67 2.01 -0.34 1.02 0 0 Z " fill="#E670B4" transform="translate(223,125)"/>
<path d="M0 0 C0.99 0.33 1.98 0.66 3 1 C3 1.66 3 2.32 3 3 C3.66 3.33 4.32 3.66 5 4 C5.4140625 6.06640625 5.4140625 6.06640625 5.625 8.5625 C5.69976562 9.38878906 5.77453125 10.21507812 5.8515625 11.06640625 C5.90054688 11.70449219 5.94953125 12.34257812 6 13 C5.67 12.01 5.34 11.02 5 10 C4.34 10 3.68 10 3 10 C1.5393715 7.35261084 1 6.10551666 1 3 C0.34 3 -0.32 3 -1 3 C-0.67 2.01 -0.34 1.02 0 0 Z " fill="#E868AE" transform="translate(146,145)"/>
<path d="M0 0 C0.99 0.2165625 0.99 0.2165625 2 0.4375 C5.65599551 1.12299916 9.30622195 1.56175515 13 2 C12.67 3.32 12.34 4.64 12 6 C7.24518354 5.42365861 4.02951788 3.44931479 0 1 C0 0.67 0 0.34 0 0 Z " fill="#E372B0" transform="translate(175,433)"/>
<path d="M0 0 C0.33 0.99 0.66 1.98 1 3 C1.66 3 2.32 3 3 3 C4.4606285 5.64738916 5 6.89448334 5 10 C5.66 10 6.32 10 7 10 C7.33 11.32 7.66 12.64 8 14 C7.34 14 6.68 14 6 14 C5.6596875 12.824375 5.6596875 12.824375 5.3125 11.625 C4.21875 8.78125 4.21875 8.78125 1.375 7.6875 C0.59125 7.460625 -0.1925 7.23375 -1 7 C-0.67 4.69 -0.34 2.38 0 0 Z " fill="#E96CB1" transform="translate(195,77)"/>
<path d="M0 0 C0.66 0 1.32 0 2 0 C1.49942848 4.38000076 0.06806466 6.84169815 -3 10 C-3.99 10 -4.98 10 -6 10 C-4.125 5.25 -4.125 5.25 -3 3 C-2.01 3 -1.02 3 0 3 C0 2.01 0 1.02 0 0 Z " fill="#E756A5" transform="translate(131,379)"/>
<path d="M0 0 C2.3431213 0.25561323 4.67843403 0.59270772 7 1 C7.33 1.66 7.66 2.32 8 3 C9.2065625 3.433125 9.2065625 3.433125 10.4375 3.875 C13 5 13 5 14.3125 7.125 C14.6528125 8.053125 14.6528125 8.053125 15 9 C11.2089881 7.55049545 7.6125362 5.84827434 4 4 C4 3.34 4 2.68 4 2 C2.68 1.67 1.36 1.34 0 1 C0 0.67 0 0.34 0 0 Z " fill="#EA7DBE" transform="translate(156,422)"/>
<path d="M0 0 C0.66 0.33 1.32 0.66 2 1 C0.68 1.33 -0.64 1.66 -2 2 C-2 2.66 -2 3.32 -2 4 C-3.45264038 4.8638129 -4.9123163 5.71580454 -6.375 6.5625 C-7.59316406 7.27599609 -7.59316406 7.27599609 -8.8359375 8.00390625 C-9.55007813 8.33261719 -10.26421875 8.66132813 -11 9 C-11.66 8.67 -12.32 8.34 -13 8 C-12.67 7.34 -12.34 6.68 -12 6 C-11.34 6 -10.68 6 -10 6 C-10 5.34 -10 4.68 -10 4 C-8.33333333 3.33333333 -6.66666667 2.66666667 -5 2 C-3.6696875 1.4121875 -3.6696875 1.4121875 -2.3125 0.8125 C-1.549375 0.544375 -0.78625 0.27625 0 0 Z " fill="#E87EBB" transform="translate(342,422)"/>
<path d="M0 0 C0 0.66 0 1.32 0 2 C-0.99 2 -1.98 2 -3 2 C-3 2.66 -3 3.32 -3 4 C-5.22118942 6.85376117 -7.19274553 7.529068 -10.6875 8.1875 C-11.49574219 8.34605469 -12.30398438 8.50460937 -13.13671875 8.66796875 C-13.75160156 8.77753906 -14.36648438 8.88710938 -15 9 C-12.54003371 6.44706986 -10.15727531 4.65756954 -7 3 C-6.01 3 -5.02 3 -4 3 C-4 2.34 -4 1.68 -4 1 C-2 0 -2 0 0 0 Z " fill="#E777B9" transform="translate(293,362)"/>
<path d="M0 0 C0.66 0 1.32 0 2 0 C2 0.99 2 1.98 2 3 C2.66 3 3.32 3 4 3 C5.625 4.375 5.625 4.375 7 6 C7 6.66 7 7.32 7 8 C3.59687262 6.94124926 0.98646769 5.99097846 -2 4 C-1.34 2.68 -0.68 1.36 0 0 Z " fill="#EB68B3" transform="translate(316,147)"/>
<path d="M0 0 C0.66 0.33 1.32 0.66 2 1 C1 3.4375 1 3.4375 -1 6 C-3.72714162 6.76381481 -6.14167178 6.85942648 -9 7 C-8.67 6.34 -8.34 5.68 -8 5 C-7.01 5 -6.02 5 -5 5 C-5 4.34 -5 3.68 -5 3 C-2.625 1.3125 -2.625 1.3125 0 0 Z " fill="#E872B3" transform="translate(339,334)"/>
<path d="M0 0 C-1.24252679 0.84443568 -2.4943886 1.6751458 -3.75 2.5 C-4.79414063 3.19609375 -4.79414063 3.19609375 -5.859375 3.90625 C-8 5 -8 5 -12 5 C-11.67 3.68 -11.34 2.36 -11 1 C-10.236875 0.855625 -9.47375 0.71125 -8.6875 0.5625 C-2.31428571 -0.77142857 -2.31428571 -0.77142857 0 0 Z " fill="#E27AB5" transform="translate(325,434)"/>
<path d="M0 0 C0.33 0 0.66 0 1 0 C1.48951049 6.36363636 1.48951049 6.36363636 -0.875 9.4375 C-3 11 -3 11 -5 11 C-3.77782954 6.95743617 -2.37245704 3.50711041 0 0 Z " fill="#F7C843" transform="translate(227,424)"/>
<path d="M0 0 C0.66 0 1.32 0 2 0 C1.29445932 3.66881155 -0.27735506 6.70450534 -2 10 C-2.66 10 -3.32 10 -4 10 C-4.33 8.02 -4.66 6.04 -5 4 C-4.01 4 -3.02 4 -2 4 C-1.34 2.68 -0.68 1.36 0 0 Z " fill="#E867AF" transform="translate(215,384)"/>
<path d="M0 0 C3 1 3 1 4.421875 3.14453125 C4.86015625 4.02496094 5.2984375 4.90539062 5.75 5.8125 C6.19859375 6.68519531 6.6471875 7.55789063 7.109375 8.45703125 C8.06982104 11.19935744 8.02018585 12.3313431 7 15 C6.01515892 13.25318707 5.03733813 11.5024149 4.0625 9.75 C3.51722656 8.77546875 2.97195312 7.8009375 2.41015625 6.796875 C1.23389165 4.46389591 0.47898309 2.54649238 0 0 Z " fill="#F3CF58" transform="translate(62,327)"/>
<path d="M0 0 C1.5 1.3125 1.5 1.3125 3 3 C3 3.99 3 4.98 3 6 C3.66 6 4.32 6 5 6 C8 11.75 8 11.75 8 14 C7.01 14 6.02 14 5 14 C2 7.375 2 7.375 2 4 C1.34 4 0.68 4 0 4 C0 2.68 0 1.36 0 0 Z " fill="#F5C956" transform="translate(102,134)"/>
<path d="M0 0 C1.00206597 2.70557813 1.05573121 3.83280636 0.125 6.625 C-0.56903771 8.09019073 -1.27495211 9.54990422 -2 11 C-2.66 11 -3.32 11 -4 11 C-4.33 11.99 -4.66 12.98 -5 14 C-4.53411505 8.29290936 -3.06242216 4.84060277 0 0 Z " fill="#F3C73F" transform="translate(401,127)"/>
<path d="M0 0 C0.99 0 1.98 0 3 0 C3 0.66 3 1.32 3 2 C1.35 2.66 -0.3 3.32 -2 4 C-2 4.66 -2 5.32 -2 6 C-3.65 6 -5.3 6 -7 6 C-7.33 7.32 -7.66 8.64 -8 10 C-8.3125 7.6875 -8.3125 7.6875 -8 5 C-5.13896577 2.75756777 -3.65923696 2 0 2 C0 1.34 0 0.68 0 0 Z " fill="#E27DB7" transform="translate(127,93)"/>
<path d="M0 0 C0.99 0.33 1.98 0.66 3 1 C3 1.99 3 2.98 3 4 C3.66 4 4.32 4 5 4 C7.10865385 7.47307692 7.10865385 7.47307692 6.55859375 10.140625 C6.28208984 11.06101562 6.28208984 11.06101562 6 12 C4.99466333 10.37829621 3.99588093 8.75252763 3 7.125 C2.443125 6.22007812 1.88625 5.31515625 1.3125 4.3828125 C0 2 0 2 0 0 Z " fill="#F5CA4D" transform="translate(77,353)"/>
<path d="M0 0 C2.0625 0.4375 2.0625 0.4375 4 1 C3.67 1.99 3.34 2.98 3 4 C2.34 4 1.68 4 1 4 C0.87625 4.61875 0.7525 5.2375 0.625 5.875 C0 8 0 8 -2 10 C-2 8.35 -2 6.7 -2 5 C-1.34 5 -0.68 5 0 5 C-0.2784375 4.0409375 -0.2784375 4.0409375 -0.5625 3.0625 C-0.7790625 2.0415625 -0.7790625 2.0415625 -1 1 C-0.67 0.67 -0.34 0.34 0 0 Z " fill="#EB6CB1" transform="translate(195,416)"/>
<path d="M0 0 C0.33 0.66 0.66 1.32 1 2 C1.99 2.33 2.98 2.66 4 3 C5.75 5.875 5.75 5.875 7 9 C6.67 9.99 6.34 10.98 6 12 C4.99157547 10.56839732 3.99352109 9.12948547 3 7.6875 C2.1646875 6.48673828 2.1646875 6.48673828 1.3125 5.26171875 C0 3 0 3 0 0 Z " fill="#E97BBB" transform="translate(291,398)"/>
<path d="M0 0 C0.99 0 1.98 0 3 0 C3 0.66 3 1.32 3 2 C2.34 2 1.68 2 1 2 C0.896875 2.53625 0.79375 3.0725 0.6875 3.625 C-0.18092697 6.62502044 -1.55620296 9.2379535 -3 12 C-3.33 12 -3.66 12 -4 12 C-4 10.35 -4 8.7 -4 7 C-3.34 7 -2.68 7 -2 7 C-2 5.68 -2 4.36 -2 3 C-1.34 3 -0.68 3 0 3 C0 2.01 0 1.02 0 0 Z " fill="#F4CA54" transform="translate(425,345)"/>
<path d="M0 0 C1.98 0.99 1.98 0.99 4 2 C4 2.99 4 3.98 4 5 C4.66 5 5.32 5 6 5 C6.33 6.98 6.66 8.96 7 11 C4.0444623 8.24829249 1.88436685 5.58029701 0 2 C0 1.34 0 0.68 0 0 Z " fill="#F6D161" transform="translate(375,325)"/>
<path d="M0 0 C0.33 0 0.66 0 1 0 C1.33 2.31 1.66 4.62 2 7 C0.35 7.33 -1.3 7.66 -3 8 C-2.45276317 4.62537285 -1.9451 2.91765 0 0 Z " fill="#E952A4" transform="translate(308,71)"/>
<path d="M0 0 C1 3 1 3 0 6 C-0.99 6 -1.98 6 -3 6 C-2.67 6.66 -2.34 7.32 -2 8 C-3.32 8.33 -4.64 8.66 -6 9 C-6 7.68 -6 6.36 -6 5 C-3.5625 3.375 -3.5625 3.375 -1 2 C-0.67 1.34 -0.34 0.68 0 0 Z " fill="#E75BAB" transform="translate(282,120)"/>
<path d="M0 0 C0.99 0 1.98 0 3 0 C3 0.66 3 1.32 3 2 C2.01 2 1.02 2 0 2 C0 1.34 0 0.68 0 0 Z M-3 2 C-2.01 2 -1.02 2 0 2 C0 2.99 0 3.98 0 5 C0.99 5 1.98 5 3 5 C3.33 6.32 3.66 7.64 4 9 C0.17053157 7.54744301 -1.12050295 5.57104439 -3 2 Z " fill="#EA51AB" transform="translate(171,424)"/>
<path d="M0 0 C0.99 0 1.98 0 3 0 C1.55049545 3.7910119 -0.15172566 7.3874638 -2 11 C-2.93423645 7.98968256 -3.04449911 7.13349732 -2 4 C-1.34 4 -0.68 4 0 4 C0 2.68 0 1.36 0 0 Z " fill="#F4CC50" transform="translate(99,364)"/>
<path d="M0 0 C0.99 0.99 1.98 1.98 3 3 C2.34 3 1.68 3 1 3 C1 3.99 1 4.98 1 6 C-1.5 8.1875 -1.5 8.1875 -4 10 C-4.33 9.34 -4.66 8.68 -5 8 C-4.34 8 -3.68 8 -3 8 C-2.87625 7.4225 -2.7525 6.845 -2.625 6.25 C-1.99351176 3.97664233 -1.11141809 2.0746471 0 0 Z " fill="#E96CB4" transform="translate(139,363)"/>
<path d="M0 0 C0.99 0.33 1.98 0.66 3 1 C3 1.66 3 2.32 3 3 C3.66 3 4.32 3 5 3 C5 3.99 5 4.98 5 6 C5.66 6 6.32 6 7 6 C7 7.65 7 9.3 7 11 C5.5 9.6875 5.5 9.6875 4 8 C4 7.01 4 6.02 4 5 C3.34 5 2.68 5 2 5 C1.34 3.35 0.68 1.7 0 0 Z " fill="#F4CE53" transform="translate(70,342)"/>
<path d="M0 0 C4.50802601 1.25805377 7.4912812 2.90407165 11 6 C9.35 6 7.7 6 6 6 C6 5.34 6 4.68 6 4 C4.68 4 3.36 4 2 4 C2 3.34 2 2.68 2 2 C1.34 2 0.68 2 0 2 C0 1.34 0 0.68 0 0 Z " fill="#E474B3" transform="translate(170,341)"/>
<path d="M0 0 C1.32 0.33 2.64 0.66 4 1 C1 3 1 3 -2 3 C-2 3.66 -2 4.32 -2 5 C-3.98 5.66 -5.96 6.32 -8 7 C-8 6.34 -8 5.68 -8 5 C-5.04518508 2.25624329 -4.22528092 2 0 2 C0 1.34 0 0.68 0 0 Z " fill="#E77DB8" transform="translate(168,158)"/>
<path d="M0 0 C0.33 0.66 0.66 1.32 1 2 C0.06553465 4.03144641 -0.93224776 6.03533587 -2 8 C-3.32 8 -4.64 8 -6 8 C-6 7.01 -6 6.02 -6 5 C-5.01 5 -4.02 5 -3 5 C-3 4.01 -3 3.02 -3 2 C-2.01 1.34 -1.02 0.68 0 0 Z " fill="#F2D471" transform="translate(254,99)"/>
<path d="M0 0 C2.31 0 4.62 0 7 0 C7 0.66 7 1.32 7 2 C7.66 2.33 8.32 2.66 9 3 C9 3.66 9 4.32 9 5 C5.54074837 3.7508258 2.85306797 2.32472205 0 0 Z " fill="#EB7ABC" transform="translate(138,412)"/>
<path d="M0 0 C0.33 0 0.66 0 1 0 C1.3125 2.3125 1.3125 2.3125 1 5 C-1.86103423 7.24243223 -3.34076304 8 -7 8 C-7 7.01 -7 6.02 -7 5 C-5.35 5 -3.7 5 -2 5 C-2 4.34 -2 3.68 -2 3 C-1.34 3 -0.68 3 0 3 C0 2.01 0 1.02 0 0 Z " fill="#E57DB8" transform="translate(380,397)"/>
<path d="M0 0 C0.66 0 1.32 0 2 0 C2 0.66 2 1.32 2 2 C2.99 2.33 3.98 2.66 5 3 C6.1875 6.0625 6.1875 6.0625 7 9 C6.01 9 5.02 9 4 9 C2.68 6.03 1.36 3.06 0 0 Z " fill="#E878B5" transform="translate(279,378)"/>
<path d="M0 0 C6.75 -0.125 6.75 -0.125 9 1 C8.34 2.32 7.68 3.64 7 5 C5.68 4.34 4.36 3.68 3 3 C3 2.34 3 1.68 3 1 C2.01 0.67 1.02 0.34 0 0 Z " fill="#354150" transform="translate(226,307)"/>
<path d="M0 0 C4.42857143 5.14285714 4.42857143 5.14285714 5 9 C4.34 9 3.68 9 3 9 C3 8.34 3 7.68 3 7 C2.34 7 1.68 7 1 7 C0.67 7.66 0.34 8.32 0 9 C0 6.03 0 3.06 0 0 Z " fill="#F7C740" transform="translate(434,164)"/>
<path d="M0 0 C1.5625 1.8125 1.5625 1.8125 3 4 C2.67 4.99 2.34 5.98 2 7 C1.01 6.67 0.02 6.34 -1 6 C-1.33 6.99 -1.66 7.98 -2 9 C-2.33 8.34 -2.66 7.68 -3 7 C-2.06421005 4.64018187 -1.06652192 2.30368736 0 0 Z " fill="#F8C437" transform="translate(218,440)"/>
<path d="M0 0 C2.56687367 3.8503105 1.83288724 5.58569763 1 10 C0.34 10 -0.32 10 -1 10 C-1.33 10.99 -1.66 11.98 -2 13 C-2 11.68 -2 10.36 -2 9 C-1.34 9 -0.68 9 0 9 C-0.185625 7.88625 -0.37125 6.7725 -0.5625 5.625 C-1 2 -1 2 0 0 Z " fill="#E960AD" transform="translate(201,403)"/>
<path d="M0 0 C3.48331435 3.01887244 4.79157144 5.56909529 6 10 C5.01 10 4.02 10 3 10 C3 8.35 3 6.7 3 5 C2.01 4.67 1.02 4.34 0 4 C0 2.68 0 1.36 0 0 Z " fill="#F3C743" transform="translate(254,394)"/>
<path d="M0 0 C3.45925163 1.2491742 6.14693203 2.67527795 9 5 C6.55492066 5.87324262 5.32299678 6.10151327 2.8125 5.3125 C1 4 1 4 0.25 1.875 C0.1675 1.25625 0.085 0.6375 0 0 Z " fill="#E96AB8" transform="translate(198,357)"/>
<path d="M0 0 C0.66 0 1.32 0 2 0 C2 0.66 2 1.32 2 2 C2.99 2 3.98 2 5 2 C5.33 4.64 5.66 7.28 6 10 C4.5 8 4.5 8 3 6 C2.443125 5.29875 1.88625 4.5975 1.3125 3.875 C0 2 0 2 0 0 Z " fill="#F5CF59" transform="translate(390,351)"/>
<path d="M0 0 C3.625 -0.1875 3.625 -0.1875 7 0 C4.31158141 2.25245881 2.35358125 3.88213958 -1 5 C-1.33 4.34 -1.66 3.68 -2 3 C-1.34 2.01 -0.68 1.02 0 0 Z " fill="#EB6BB3" transform="translate(198,139)"/>
<path d="M0 0 C2.31 0.33 4.62 0.66 7 1 C5 4 5 4 2 4.8125 C1.01 4.874375 0.02 4.93625 -1 5 C-1.66 4.34 -2.32 3.68 -3 3 C-1.35 2.67 0.3 2.34 2 2 C1.34 1.34 0.68 0.68 0 0 Z " fill="#F249AA" transform="translate(286,129)"/>
<path d="M0 0 C3.48331435 3.01887244 4.79157144 5.56909529 6 10 C5.34 10 4.68 10 4 10 C1.1605948 6.32547562 0 4.73113419 0 0 Z " fill="#E479B8" transform="translate(205,95)"/>
<path d="M0 0 C0.66 0.33 1.32 0.66 2 1 C1.01 2.98 0.02 4.96 -1 7 C-0.34 7.33 0.32 7.66 1 8 C0.34 8.66 -0.32 9.32 -1 10 C-2.57035335 7.50590939 -3.0274945 6.29556584 -2.75 3.3125 C-2.5025 2.549375 -2.255 1.78625 -2 1 C-1.34 0.67 -0.68 0.34 0 0 Z " fill="#F8C633" transform="translate(236,74)"/>
<path d="M0 0 C2.89932357 2.39509338 3.50168276 4.31245243 4 8 C2.68 7.67 1.36 7.34 0 7 C0 4.69 0 2.38 0 0 Z " fill="#F6C73F" transform="translate(281,440)"/>
<path d="M0 0 C1.65 0.33 3.3 0.66 5 1 C2.37801226 3.15377564 0.35595828 4.40072174 -3 5 C-3.33 4.01 -3.66 3.02 -4 2 C-2.68 2 -1.36 2 0 2 C0 1.34 0 0.68 0 0 Z " fill="#EB77B9" transform="translate(361,409)"/>
<path d="M0 0 C1.5 1.3125 1.5 1.3125 3 3 C3 3.99 3 4.98 3 6 C-0.63 6 -4.26 6 -8 6 C-8 5.67 -8 5.34 -8 5 C-5.36 4.67 -2.72 4.34 0 4 C0 2.68 0 1.36 0 0 Z " fill="#F1C047" transform="translate(124,172)"/>
<path d="M0 0 C2.475 0.495 2.475 0.495 5 1 C5 2.98 5 4.96 5 7 C3.0625 6.3125 3.0625 6.3125 1 5 C0.25 2.375 0.25 2.375 0 0 Z " fill="#E554A7" transform="translate(135,127)"/>
<path d="M0 0 C1.32 0.66 2.64 1.32 4 2 C3.67 2.99 3.34 3.98 3 5 C2.34 5 1.68 5 1 5 C1 5.66 1 6.32 1 7 C0.01 7 -0.98 7 -2 7 C-1.34 4.69 -0.68 2.38 0 0 Z " fill="#E8449E" transform="translate(219,123)"/>
<path d="M0 0 C0.66 0 1.32 0 2 0 C2.99 2.31 3.98 4.62 5 7 C4.01 7.495 4.01 7.495 3 8 C1.5 6.8125 1.5 6.8125 0 5 C-0.1875 2.3125 -0.1875 2.3125 0 0 Z " fill="#E666AE" transform="translate(187,65)"/>
<path d="M0 0 C2.475 0.99 2.475 0.99 5 2 C5 2.33 5 2.66 5 3 C3.35 3 1.7 3 0 3 C-0.33 4.32 -0.66 5.64 -1 7 C-1 6.34 -1 5.68 -1 5 C-1.66 4.67 -2.32 4.34 -3 4 C-2.01 2.68 -1.02 1.36 0 0 Z " fill="#E585B8" transform="translate(157,333)"/>
<path d="M0 0 C0.66 0 1.32 0 2 0 C2 0.66 2 1.32 2 2 C2.99 2.33 3.98 2.66 5 3 C2 5 2 5 -0.6875 4.625 C-1.450625 4.41875 -2.21375 4.2125 -3 4 C-1.625 2 -1.625 2 0 0 Z " fill="#666F79" transform="translate(250,316)"/>
<path d="M0 0 C1.5 1.3125 1.5 1.3125 3 3 C3 3.99 3 4.98 3 6 C3.66 6 4.32 6 5 6 C5.33 7.32 5.66 8.64 6 10 C5.01 9.67 4.02 9.34 3 9 C2.67 7.35 2.34 5.7 2 4 C1.34 4 0.68 4 0 4 C0 2.68 0 1.36 0 0 Z " fill="#F8CF62" transform="translate(423,145)"/>
<path d="M0 0 C4.42857143 5.14285714 4.42857143 5.14285714 5 9 C4.34 8.67 3.68 8.34 3 8 C3 7.34 3 6.68 3 6 C1.68 5.67 0.36 5.34 -1 5 C-0.67 3.35 -0.34 1.7 0 0 Z " fill="#F4CD48" transform="translate(418,136)"/>
<path d="M0 0 C1.65 0 3.3 0 5 0 C5 0.66 5 1.32 5 2 C5.66 2.33 6.32 2.66 7 3 C7 3.66 7 4.32 7 5 C4.0625 4.1875 4.0625 4.1875 1 3 C0.67 2.01 0.34 1.02 0 0 Z " fill="#E66BB2" transform="translate(297,139)"/>
<path d="M0 0 C0.66 0.33 1.32 0.66 2 1 C1.67 2.65 1.34 4.3 1 6 C1.99 6.33 2.98 6.66 4 7 C2.02 7 0.04 7 -2 7 C-1.42415568 4.61435923 -0.77772405 2.33317216 0 0 Z " fill="#EFCD64" transform="translate(214,446)"/>
<path d="M0 0 C0.66 0 1.32 0 2 0 C0.90931332 3.77545388 0.0916909 6.47043472 -3 9 C-2.25 2.25 -2.25 2.25 0 0 Z " fill="#E57FBB" transform="translate(191,426)"/>
<path d="M0 0 C1.60031344 3.20062687 0.03173691 5.72271806 -1 9 C-2.32 8.67 -3.64 8.34 -5 8 C-3.35 5.36 -1.7 2.72 0 0 Z " fill="#F5D15C" transform="translate(236,409)"/>
<path d="M0 0 C2.9375 1.3125 2.9375 1.3125 6 3 C6.33 3.99 6.66 4.98 7 6 C6.34 6.66 5.68 7.32 5 8 C4.731875 7.360625 4.46375 6.72125 4.1875 6.0625 C3.11332248 3.66868314 3.11332248 3.66868314 0 3 C0 2.01 0 1.02 0 0 Z " fill="#E357A8" transform="translate(214,366)"/>
<path d="M0 0 C2.97 0.495 2.97 0.495 6 1 C5.34 2.32 4.68 3.64 4 5 C3.01 4.67 2.02 4.34 1 4 C0.3125 1.9375 0.3125 1.9375 0 0 Z " fill="#F9C742" transform="translate(86,369)"/>
<path d="M0 0 C0 0.66 0 1.32 0 2 C0.99 2.33 1.98 2.66 3 3 C1.35 3.33 -0.3 3.66 -2 4 C-2.33 3.34 -2.66 2.68 -3 2 C-3.99 1.34 -4.98 0.68 -6 0 C-3.50907189 -1.24546405 -2.58919267 -0.7767578 0 0 Z " fill="#EA74B9" transform="translate(211,363)"/>
<path d="M0 0 C2.91517292 1.07401108 4.77810176 1.77810176 7 4 C4.69 4 2.38 4 0 4 C0 2.68 0 1.36 0 0 Z " fill="#E66AB2" transform="translate(191,353)"/>
<path d="M0 0 C0.66 0 1.32 0 2 0 C0.25 6.75 0.25 6.75 -2 9 C-2 7.02 -2 5.04 -2 3 C-1.34 3 -0.68 3 0 3 C0 2.01 0 1.02 0 0 Z " fill="#F7C135" transform="translate(119,329)"/>
<path d="M0 0 C0.33 1.32 0.66 2.64 1 4 C3.97 4.495 3.97 4.495 7 5 C7 5.33 7 5.66 7 6 C4.03 6 1.06 6 -2 6 C-1 2 -1 2 0 0 Z " fill="#EFC34B" transform="translate(375,172)"/>
<path d="M0 0 C0 3.69418201 -1.28179295 5.77836178 -3 9 C-3.33 9 -3.66 9 -4 9 C-4 7.02 -4 5.04 -4 3 C-3.34 3 -2.68 3 -2 3 C-2 2.34 -2 1.68 -2 1 C-1.34 0.67 -0.68 0.34 0 0 Z " fill="#EA7BBB" transform="translate(363,130)"/>
<path d="M0 0 C4.75 0.75 4.75 0.75 7 3 C4.36 3.33 1.72 3.66 -1 4 C-0.67 2.68 -0.34 1.36 0 0 Z " fill="#E57CB8" transform="translate(313,61)"/>
<path d="M0 0 C0.33 0 0.66 0 1 0 C1.33 2.31 1.66 4.62 2 7 C0.35 7 -1.3 7 -3 7 C-1.125 1.125 -1.125 1.125 0 0 Z " fill="#ED7ABE" transform="translate(124,389)"/>
<path d="M0 0 C3.37503669 1.1858237 5.64722731 2.27573689 8 5 C3.48279689 5.36625971 3.48279689 5.36625971 1.1875 3.625 C0 2 0 2 0 0 Z " fill="#545D6A" transform="translate(276,194)"/>
<path d="M0 0 C0 0.66 0 1.32 0 2 C-5.41538462 5.07692308 -5.41538462 5.07692308 -8.375 4.6875 C-8.91125 4.460625 -9.4475 4.23375 -10 4 C-3.375 0 -3.375 0 0 0 Z " fill="#5A636B" transform="translate(239,186)"/>
<path d="M0 0 C0.93423645 3.01031744 1.04449911 3.86650268 0 7 C-2.0625 8.1875 -2.0625 8.1875 -4 9 C-2.80100302 5.9168649 -1.52299523 2.93720508 0 0 Z " fill="#F4CF5C" transform="translate(387,151)"/>
<path d="M0 0 C0.99 0.33 1.98 0.66 3 1 C4.6875 4.5625 4.6875 4.5625 6 8 C5.01 8.495 5.01 8.495 4 9 C0 2.25 0 2.25 0 0 Z " fill="#ED7EBE" transform="translate(130,120)"/>
<path d="M0 0 C0.75 1.75 0.75 1.75 1 4 C-0.9375 6.25 -0.9375 6.25 -3 8 C-3 4.42424104 -1.91159393 2.94704065 0 0 Z " fill="#E773B8" transform="translate(282,116)"/>
<path d="M0 0 C0.99 0.33 1.98 0.66 3 1 C3.94921875 3.06640625 3.94921875 3.06640625 4.6875 5.5625 C4.93886719 6.38878906 5.19023437 7.21507813 5.44921875 8.06640625 C5.63097656 8.70449219 5.81273437 9.34257813 6 10 C3.44765282 7.54774487 1.68581342 5.13079636 0 2 C0 1.34 0 0.68 0 0 Z " fill="#F5D162" transform="translate(242,94)"/>
<path d="M0 0 C0.66 0.99 1.32 1.98 2 3 C0.35 4.65 -1.3 6.3 -3 8 C-3 4.42424104 -1.91159393 2.94704065 0 0 Z " fill="#E978B6" transform="translate(295,93)"/>
<path d="M0 0 C0.598125 0.20625 1.19625 0.4125 1.8125 0.625 C0.5625 2.125 0.5625 2.125 -1.1875 3.625 C-2.5075 3.625 -3.8275 3.625 -5.1875 3.625 C-5.1875 2.965 -5.1875 2.305 -5.1875 1.625 C-2.1875 -0.375 -2.1875 -0.375 0 0 Z " fill="#E762AB" transform="translate(171.1875,69.375)"/>
<path d="M0 0 C2.97 0 5.94 0 9 0 C8.34 1.65 7.68 3.3 7 5 C6.67 3.68 6.34 2.36 6 1 C4.02 1 2.04 1 0 1 C0 0.67 0 0.34 0 0 Z " fill="#EFCC63" transform="translate(276,47)"/>
</svg>
