<svg width="12" height="12" viewBox="0 0 12 12" fill="none" xmlns="http://www.w3.org/2000/svg">
<mask id="mask0_1334_9" style="mask-type:alpha" maskUnits="userSpaceOnUse" x="0" y="0" width="12" height="12">
<rect width="12" height="12" fill="#D9D9D9"/>
</mask>
<g mask="url(#mask0_1334_9)">
<path d="M6 8C6.625 8 7.15625 7.78125 7.59375 7.34375C8.03125 6.90625 8.25 6.375 8.25 5.75C8.25 5.125 8.03125 4.59375 7.59375 4.15625C7.15625 3.71875 6.625 3.5 6 3.5C5.375 3.5 4.84375 3.71875 4.40625 4.15625C3.96875 4.59375 3.75 5.125 3.75 5.75C3.75 6.375 3.96875 6.90625 4.40625 7.34375C4.84375 7.78125 5.375 8 6 8ZM6 7.1C5.625 7.1 5.30625 6.96875 5.04375 6.70625C4.78125 6.44375 4.65 6.125 4.65 5.75C4.65 5.375 4.78125 5.05625 5.04375 4.79375C5.30625 4.53125 5.625 4.4 6 4.4C6.375 4.4 6.69375 4.53125 6.95625 4.79375C7.21875 5.05625 7.35 5.375 7.35 5.75C7.35 6.125 7.21875 6.44375 6.95625 6.70625C6.69375 6.96875 6.375 7.1 6 7.1ZM6 9.5C4.78333 9.5 3.675 9.16042 2.675 8.48125C1.675 7.80208 0.95 6.89167 0.5 5.75C0.95 4.60833 1.675 3.69792 2.675 3.01875C3.675 2.33958 4.78333 2 6 2C7.21667 2 8.325 2.33958 9.325 3.01875C10.325 3.69792 11.05 4.60833 11.5 5.75C11.05 6.89167 10.325 7.80208 9.325 8.48125C8.325 9.16042 7.21667 9.5 6 9.5Z" fill="#1C1B1F"/>
</g>
</svg>
